<svg width="32" height="32" viewBox="0 0 32 32" fill="none" xmlns="http://www.w3.org/2000/svg">
<path fill-rule="evenodd" clip-rule="evenodd" d="M29.094 27.3519H29.5898C29.8165 27.3519 30 27.5367 30 27.7645V29.5873C30 29.8154 29.8165 30 29.5898 30H2.41016C2.1835 30 2 29.8154 2 29.5873V27.7645C2 27.5365 2.1835 27.3519 2.41016 27.3519H2.90598V25.9415C2.90598 25.7137 3.08969 25.5289 3.31613 25.5289H4.71793V24.1185C4.71793 23.8905 4.90164 23.7058 5.12808 23.7058H5.6239V14.6752H5.12808C4.90164 14.6752 4.71793 14.4904 4.71793 14.2625V12.8522H3.31613C3.08969 12.8522 2.90598 12.6674 2.90598 12.4395V10.6165C2.90598 10.3885 3.08969 10.2039 3.31613 10.2039H4.09415L15.7665 2.07334C15.9071 1.97555 16.0931 1.97555 16.2335 2.07334L27.9061 10.2039H28.6839C28.9105 10.2039 29.094 10.3887 29.094 10.6165V12.4395C29.094 12.6674 28.9105 12.8522 28.6839 12.8522H27.2821V14.2625C27.2821 14.4904 27.0986 14.6752 26.8719 14.6752H26.3763V23.7058H26.8719C27.0986 23.7058 27.2821 23.8907 27.2821 24.1185V25.5289H28.6839C28.9103 25.5289 29.094 25.7137 29.094 25.9415V27.3519ZM22.7522 25.5289H26.4618V24.5312H22.7522V25.5289ZM23.658 14.6752V23.7058H25.5558V14.6752H23.658ZM22.7522 13.8499H26.4618V12.8522H22.7522V13.8499ZM22.8376 14.6752H22.342C22.1154 14.6752 21.9319 14.4904 21.9319 14.2625V12.8522H18.6752V14.2625C18.6752 14.4904 18.4915 14.6752 18.265 14.6752H17.7692V23.7058H18.265C18.4915 23.7058 18.6752 23.8905 18.6752 24.1185V25.5289H21.9319V24.1185C21.9319 23.8905 22.1154 23.7058 22.342 23.7058H22.8376V14.6752ZM17.8549 12.8522H14.1453V13.8499H17.8549V12.8522ZM16.9489 23.7058V14.6752H15.0511V23.7058H16.9489ZM17.8549 25.5289V24.5312H14.1453V25.5289H17.8549ZM4.22232 11.0292H3.72629V12.0269H28.2737V11.0292H27.7736H27.7723H12.5246C12.2981 11.0292 12.1144 10.8443 12.1144 10.6165C12.1144 10.3885 12.2981 10.2039 12.5246 10.2039H26.465L16 2.91457L5.53525 10.2039H10.8839C11.1106 10.2039 11.2941 10.3885 11.2941 10.6165C11.2941 10.8443 11.1106 11.0292 10.8839 11.0292H4.22232ZM9.24802 12.8522H5.53824V13.8499H9.24802V12.8522ZM8.34204 23.7058V14.6752H6.44421V23.7058H8.34204ZM9.24802 24.5312H5.53824V25.5289H9.24802V24.5312ZM9.16235 23.7058H9.65817C9.88461 23.7058 10.0683 23.8905 10.0683 24.1185V25.5289H13.325V24.1185C13.325 23.8905 13.5085 23.7058 13.7352 23.7058H14.2308V14.6752H13.7352C13.5085 14.6752 13.325 14.4904 13.325 14.2625V12.8522H10.0683V14.2625C10.0683 14.4904 9.88461 14.6752 9.65817 14.6752H9.16235V23.7058ZM28.2737 27.3519V26.3542H3.72629V27.3519H28.2737ZM2.82031 28.1772V29.1749H29.1797V28.1772H2.82031ZM17 8.00008C17 8.55141 16.5515 9 16 9C15.4486 9 15 8.55141 15 8.00008C15 7.44859 15.4486 7 16 7C16.5514 7 17 7.44859 17 8.00008ZM16.3767 8.00008C16.3767 7.79234 16.2078 7.62322 16 7.62322C15.7922 7.62322 15.6233 7.79234 15.6233 8.00008C15.6233 8.20782 15.7922 8.37678 16 8.37678C16.2078 8.37678 16.3767 8.20766 16.3767 8.00008Z" fill="#1B365D"/>
</svg>
