<svg width="32" height="32" viewBox="0 0 32 32" fill="none" xmlns="http://www.w3.org/2000/svg">
<path d="M30 8.49988H9.5C9.22386 8.49988 9 8.72374 9 8.99988C9 9.27602 9.22386 9.49988 9.5 9.49988H12.5225C10.3035 10.9118 8.97145 13.3699 9 15.9999C8.97145 18.6298 10.3035 21.0879 12.5225 22.4999H2V9.49988H7C7.27614 9.49988 7.5 9.27602 7.5 8.99988C7.5 8.72374 7.27614 8.49988 7 8.49988H2C1.44772 8.49988 1 8.94759 1 9.49988V22.4999C1 23.0522 1.44772 23.4999 2 23.4999H30C30.5523 23.4999 31 23.0522 31 22.4999V9.49988C31 8.94759 30.5523 8.49988 30 8.49988ZM10 15.9999C10 12.4159 12.6915 9.49988 16 9.49988C19.3085 9.49988 22 12.4159 22 15.9999C22 19.5839 19.3085 22.4999 16 22.4999C12.6915 22.4999 10 19.5839 10 15.9999ZM30 22.4999H19.4775C21.6965 21.0879 23.0285 18.6298 23 15.9999C23.0285 13.3699 21.6965 10.9118 19.4775 9.49988H30V22.4999Z" fill="#1B365D"/>
<path d="M27.3682 3.10488C27.1315 2.98642 26.8575 2.96664 26.6062 3.04988L15.8362 6.65938C15.5738 6.74719 15.4324 7.03104 15.5202 7.29338C15.608 7.55571 15.8918 7.69719 16.1542 7.60938L26.9212 3.99988L28.0262 7.29438C28.0829 7.46408 28.2258 7.59063 28.4012 7.62637C28.5765 7.6621 28.7576 7.60158 28.8762 7.46762C28.9948 7.33365 29.0329 7.14658 28.9762 6.97688L27.8707 3.68438C27.7883 3.43128 27.6071 3.22226 27.3682 3.10488Z" fill="#1B365D"/>
<path d="M15.846 24.3909L5.07901 27.9999L3.97401 24.7054C3.88633 24.443 3.60259 24.3014 3.34026 24.3891C3.07792 24.4768 2.93633 24.7605 3.02401 25.0229L4.12751 28.3144C4.20929 28.567 4.38957 28.776 4.62751 28.8939C4.76594 28.9627 4.9184 28.9987 5.07301 28.9989C5.18049 28.999 5.28731 28.9821 5.38951 28.9489L16.1595 25.3394C16.4218 25.2516 16.5633 24.9677 16.4755 24.7054C16.3877 24.443 16.1038 24.3016 15.8415 24.3894L15.846 24.3909Z" fill="#1B365D"/>
<path d="M16.4951 16.8613H13V15.897H16.4631C16.746 15.897 16.9711 15.8571 17.1384 15.7775C17.3087 15.6978 17.4319 15.5879 17.508 15.4478C17.584 15.3049 17.6221 15.1429 17.6221 14.9615C17.6221 14.783 17.581 14.6195 17.4989 14.4712C17.4198 14.3201 17.2966 14.1992 17.1293 14.1085C16.965 14.0151 16.7551 13.9684 16.4996 13.9684H15.2905V19H13.9217V13H16.4951C17.0183 13 17.4654 13.0838 17.8365 13.2514C18.2106 13.419 18.4981 13.6497 18.6989 13.9437C18.8996 14.2376 19 14.5742 19 14.9533C19 15.3516 18.8966 15.6937 18.6897 15.9794C18.4859 16.2651 18.197 16.4835 17.8228 16.6346C17.4517 16.7857 17.0091 16.8613 16.4951 16.8613ZM16.746 17.1992V18.1635H13V17.1992H16.746Z" fill="#1B365D"/>
<path d="M26.5 21.4999H28.5C28.7761 21.4999 29 21.276 29 20.9999V18.9999C29 18.7237 28.7761 18.4999 28.5 18.4999C28.2239 18.4999 28 18.7237 28 18.9999V20.4999H26.5C26.2239 20.4999 26 20.7237 26 20.9999C26 21.276 26.2239 21.4999 26.5 21.4999Z" fill="#1B365D"/>
<path d="M3.5 18.4999C3.22386 18.4999 3 18.7237 3 18.9999V20.9999C3 21.276 3.22386 21.4999 3.5 21.4999H5.5C5.77614 21.4999 6 21.276 6 20.9999C6 20.7237 5.77614 20.4999 5.5 20.4999H4V18.9999C4 18.7237 3.77614 18.4999 3.5 18.4999Z" fill="#1B365D"/>
<path d="M5.5 10.4999H3.5C3.22386 10.4999 3 10.7237 3 10.9999V12.9999C3 13.276 3.22386 13.4999 3.5 13.4999C3.77614 13.4999 4 13.276 4 12.9999V11.4999H5.5C5.77614 11.4999 6 11.276 6 10.9999C6 10.7237 5.77614 10.4999 5.5 10.4999Z" fill="#1B365D"/>
<path d="M26.5 11.4999H28V12.9999C28 13.276 28.2239 13.4999 28.5 13.4999C28.7761 13.4999 29 13.276 29 12.9999V10.9999C29 10.7237 28.7761 10.4999 28.5 10.4999H26.5C26.2239 10.4999 26 10.7237 26 10.9999C26 11.276 26.2239 11.4999 26.5 11.4999Z" fill="#1B365D"/>
</svg>
