<svg width="32" height="32" viewBox="0 0 32 32" fill="none" xmlns="http://www.w3.org/2000/svg">
<path d="M21.3333 30H5.33333C4.4496 29.9989 3.60237 29.6474 2.97748 29.0225C2.35259 28.3976 2.00106 27.5504 2 26.6667V5.33333C2.00106 4.4496 2.35259 3.60237 2.97748 2.97748C3.60237 2.35259 4.4496 2.00106 5.33333 2H15.64C16.0839 2.0003 16.5234 2.08886 16.9328 2.26053C17.3421 2.43221 17.7133 2.68357 18.0247 3L23.7167 8.826C24.3272 9.44928 24.6684 10.2875 24.6667 11.16V16.1267C24.6667 16.3035 24.5964 16.473 24.4714 16.5981C24.3464 16.7231 24.1768 16.7933 24 16.7933C23.8232 16.7933 23.6536 16.7231 23.5286 16.5981C23.4036 16.473 23.3333 16.3035 23.3333 16.1267V11.16C23.3336 10.6366 23.1287 10.134 22.7627 9.76L17.07 3.93333C16.8835 3.74334 16.6609 3.59242 16.4154 3.4894C16.1699 3.38639 15.9063 3.33333 15.64 3.33333H5.33333C4.8029 3.33333 4.29419 3.54405 3.91912 3.91912C3.54405 4.29419 3.33333 4.8029 3.33333 5.33333V26.6667C3.33333 27.1971 3.54405 27.7058 3.91912 28.0809C4.29419 28.456 4.8029 28.6667 5.33333 28.6667H21.3333C21.5848 28.6677 21.834 28.6189 22.0667 28.5233C22.2302 28.4561 22.4138 28.4565 22.577 28.5246C22.7402 28.5927 22.8697 28.7228 22.937 28.8863C23.0043 29.0499 23.0038 29.2335 22.9358 29.3967C22.8677 29.5599 22.7376 29.6894 22.574 29.7567C22.1804 29.9183 21.7588 30.001 21.3333 30Z" fill="#1B365D"/>
<path d="M23.7267 10.6667H19.3333C18.4496 10.6656 17.6024 10.3141 16.9775 9.68919C16.3526 9.06429 16.0011 8.21706 16 7.33333V2.87333C16 2.69652 16.0702 2.52695 16.1953 2.40193C16.3203 2.2769 16.4899 2.20667 16.6667 2.20667C16.8435 2.20667 17.013 2.2769 17.1381 2.40193C17.2631 2.52695 17.3333 2.69652 17.3333 2.87333V7.33333C17.3333 7.86377 17.544 8.37247 17.9191 8.74755C18.2942 9.12262 18.8029 9.33333 19.3333 9.33333H23.7267C23.9035 9.33333 24.073 9.40357 24.1981 9.52859C24.3231 9.65362 24.3933 9.82319 24.3933 10C24.3933 10.1768 24.3231 10.3464 24.1981 10.4714C24.073 10.5964 23.9035 10.6667 23.7267 10.6667Z" fill="#1B365D"/>
<path d="M22.6668 29.9026C22.4039 29.9029 22.1469 29.8252 21.9282 29.6793L19.7868 28.2513C18.416 27.3398 17.2919 26.1032 16.5149 24.6519C15.7379 23.2006 15.332 21.5795 15.3335 19.9333V18.7919C15.3348 18.492 15.4368 18.2012 15.623 17.966C15.8093 17.7309 16.0691 17.5652 16.3608 17.4953C18.3408 16.948 20.2243 16.0982 21.9448 14.9759C22.1601 14.8373 22.4108 14.7635 22.6668 14.7635C22.9229 14.7635 23.1736 14.8373 23.3888 14.9759C25.1093 16.0984 26.9928 16.9482 28.9728 17.4953C29.2645 17.5652 29.5244 17.7309 29.7106 17.966C29.8969 18.2012 29.9989 18.492 30.0002 18.7919V19.9333C30.0021 21.58 29.5965 23.2016 28.8194 24.6534C28.0424 26.1052 26.9181 27.3422 25.5468 28.254L23.4062 29.6813C23.187 29.8266 22.9297 29.9036 22.6668 29.9026ZM22.6668 16.0959C20.8236 17.2984 18.8049 18.2074 16.6828 18.7906L16.6668 19.9333C16.6652 21.3604 17.0168 22.7657 17.6902 24.024C18.3636 25.2823 19.3378 26.3543 20.5262 27.1446L22.6668 28.5693L24.8075 27.142C25.9954 26.3519 26.9695 25.2803 27.6429 24.0225C28.3162 22.7648 28.668 21.3599 28.6668 19.9333V18.7919C26.5395 18.2091 24.5155 17.2998 22.6668 16.0966V16.0959Z" fill="#1B365D"/>
<path d="M22.0001 24C21.8233 23.9999 21.6538 23.9297 21.5288 23.8047L20.1954 22.4713C20.074 22.3456 20.0068 22.1772 20.0083 22.0024C20.0098 21.8276 20.08 21.6604 20.2036 21.5368C20.3272 21.4132 20.4944 21.3431 20.6692 21.3415C20.844 21.34 21.0124 21.4072 21.1381 21.5287L22.0001 22.3907L24.1954 20.1953C24.3212 20.0739 24.4896 20.0067 24.6644 20.0082C24.8392 20.0097 25.0064 20.0798 25.13 20.2034C25.2536 20.327 25.3237 20.4943 25.3252 20.6691C25.3267 20.8439 25.2595 21.0123 25.1381 21.138L22.4714 23.8047C22.3464 23.9297 22.1769 23.9999 22.0001 24Z" fill="#1B365D"/>
<path d="M12 8.66671H6.66667C6.48986 8.66671 6.32029 8.59647 6.19526 8.47145C6.07024 8.34642 6 8.17685 6 8.00004C6 7.82323 6.07024 7.65366 6.19526 7.52864C6.32029 7.40361 6.48986 7.33337 6.66667 7.33337H12C12.1768 7.33337 12.3464 7.40361 12.4714 7.52864C12.5964 7.65366 12.6667 7.82323 12.6667 8.00004C12.6667 8.17685 12.5964 8.34642 12.4714 8.47145C12.3464 8.59647 12.1768 8.66671 12 8.66671Z" fill="#1B365D"/>
<path d="M16 12.6667H6.66667C6.48986 12.6667 6.32029 12.5965 6.19526 12.4714C6.07024 12.3464 6 12.1769 6 12C6 11.8232 6.07024 11.6537 6.19526 11.5286C6.32029 11.4036 6.48986 11.3334 6.66667 11.3334H16C16.1768 11.3334 16.3464 11.4036 16.4714 11.5286C16.5964 11.6537 16.6667 11.8232 16.6667 12C16.6667 12.1769 16.5964 12.3464 16.4714 12.4714C16.3464 12.5965 16.1768 12.6667 16 12.6667Z" fill="#1B365D"/>
<path d="M17.3333 16.6667H6.66667C6.48986 16.6667 6.32029 16.5965 6.19526 16.4714C6.07024 16.3464 6 16.1769 6 16C6 15.8232 6.07024 15.6537 6.19526 15.5286C6.32029 15.4036 6.48986 15.3334 6.66667 15.3334H17.3333C17.5101 15.3334 17.6797 15.4036 17.8047 15.5286C17.9298 15.6537 18 15.8232 18 16C18 16.1769 17.9298 16.3464 17.8047 16.4714C17.6797 16.5965 17.5101 16.6667 17.3333 16.6667Z" fill="#1B365D"/>
<path d="M13.3333 20.6667H6.66667C6.48986 20.6667 6.32029 20.5965 6.19526 20.4714C6.07024 20.3464 6 20.1769 6 20C6 19.8232 6.07024 19.6537 6.19526 19.5286C6.32029 19.4036 6.48986 19.3334 6.66667 19.3334H13.3333C13.5101 19.3334 13.6797 19.4036 13.8047 19.5286C13.9298 19.6537 14 19.8232 14 20C14 20.1769 13.9298 20.3464 13.8047 20.4714C13.6797 20.5965 13.5101 20.6667 13.3333 20.6667Z" fill="#1B365D"/>
<path d="M13.3333 24.6667H6.66667C6.48986 24.6667 6.32029 24.5965 6.19526 24.4714C6.07024 24.3464 6 24.1769 6 24C6 23.8232 6.07024 23.6537 6.19526 23.5286C6.32029 23.4036 6.48986 23.3334 6.66667 23.3334H13.3333C13.5101 23.3334 13.6797 23.4036 13.8047 23.5286C13.9298 23.6537 14 23.8232 14 24C14 24.1769 13.9298 24.3464 13.8047 24.4714C13.6797 24.5965 13.5101 24.6667 13.3333 24.6667Z" fill="#1B365D"/>
</svg>
