<svg width="32" height="32" viewBox="0 0 32 32" fill="none" xmlns="http://www.w3.org/2000/svg">
<path fill-rule="evenodd" clip-rule="evenodd" d="M24.5446 10.4375L29.9217 15.0294C30.1856 15.2556 30.217 15.6513 29.9971 15.9151C29.771 16.179 29.3752 16.2104 29.1114 15.9842L23.3134 11.0468L20.4175 8.58441L15.5744 4.45735L2.04363 15.978L2.03107 15.9905C1.76096 16.2104 1.36521 16.179 1.14535 15.9089C0.925493 15.6387 0.956902 15.243 1.22701 15.0231L15.1661 3.15076C15.4048 2.94975 15.7503 2.94975 15.9827 3.15076L20.2856 6.81926V4.33172C20.2856 3.97994 20.5683 3.67214 20.9138 3.67214H23.9164C24.2745 3.6847 24.5572 3.97366 24.5635 4.33172V10.337C24.5572 10.3746 24.5509 10.406 24.5446 10.4374L24.5446 10.4375ZM21.542 7.89343L23.3008 9.37591V4.93476H21.542V7.89343ZM25.3864 14.7907L27.1516 16.2983C27.4154 16.5182 27.4531 16.9139 27.2207 17.184C27.1013 17.3222 26.9254 17.4039 26.7433 17.4039C26.5925 17.4039 26.4543 17.3474 26.3412 17.2531L25.556 16.5747V28.3529C25.5497 28.7109 25.2608 28.9936 24.909 28.9999H6.23357C5.8818 28.9936 5.59284 28.7046 5.58656 28.3529V16.5747L4.80135 17.2531L4.79506 17.2594C4.53752 17.4793 4.14805 17.4479 3.92819 17.184C3.70205 16.9202 3.73346 16.5245 3.99729 16.2983L5.76244 14.7907L15.1661 6.75645C15.4048 6.55544 15.7503 6.55544 15.9827 6.75645L25.3864 14.7907ZM13.0618 20.953V27.7373H18.0871V20.953H13.0618ZM19.3434 20.3437V27.7373H24.306V15.5006L15.5744 8.06304L6.84289 15.5006V27.7373H11.8054V20.3437C11.8054 19.9982 12.063 19.6967 12.4085 19.6967H18.7404C19.0859 19.6967 19.3434 19.9982 19.3434 20.3437Z" fill="#1B365D"/>
</svg>
