<svg width="32" height="32" viewBox="0 0 32 32" fill="none" xmlns="http://www.w3.org/2000/svg">
<path fill-rule="evenodd" clip-rule="evenodd" d="M9.4338 9.53239C10.0913 9.53239 10.734 9.33741 11.2807 8.97211C11.8274 8.60681 12.2534 8.0876 12.505 7.48014C12.7566 6.87268 12.8224 6.20426 12.694 5.55941C12.5657 4.91456 12.249 4.32225 11.7841 3.85739C11.3191 3.39253 10.7267 3.07599 10.0818 2.94781C9.43696 2.81964 8.76855 2.88558 8.16115 3.1373C7.55375 3.38901 7.03464 3.8152 6.66947 4.36196C6.3043 4.90872 6.10947 5.55149 6.10962 6.20899C6.11065 7.09023 6.46123 7.93507 7.08443 8.55812C7.70764 9.18118 8.55256 9.53157 9.4338 9.53239ZM9.42837 2.91741C10.0794 2.91741 10.7158 3.11046 11.2571 3.47214C11.7984 3.83382 12.2203 4.3479 12.4694 4.94935C12.7185 5.55081 12.7837 6.21264 12.6567 6.85114C12.5297 7.48965 12.2162 8.07615 11.7559 8.53648C11.2955 8.99682 10.709 9.31031 10.0705 9.43732C9.43202 9.56432 8.77019 9.49914 8.16873 9.25001C7.56728 9.00088 7.0532 8.57899 6.69152 8.03769C6.32983 7.49639 6.13679 6.86 6.13679 6.20899C6.13761 5.33626 6.48466 4.49951 7.10178 3.8824C7.71889 3.26528 8.55564 2.91823 9.42837 2.91741ZM9.05737 22.261H2.94223C2.70097 22.2608 2.46964 22.1649 2.29897 21.9944C2.12831 21.8238 2.03223 21.5926 2.03182 21.3513V16.5874C2.03326 15.3642 2.51987 14.1915 3.3849 13.3266C4.24992 12.4617 5.42271 11.9753 6.64593 11.9741H12.1394C13.0422 11.9668 13.925 12.2402 14.6657 12.7564C14.6719 12.7611 14.6742 12.7611 14.675 12.7611H14.6828L14.6882 12.7533C14.6896 12.7496 14.6898 12.7456 14.6887 12.7418C14.6876 12.738 14.6852 12.7347 14.682 12.7324C13.9358 12.2139 13.048 11.9378 12.1394 11.9415H6.64593C5.41419 11.9429 4.23332 12.4329 3.36235 13.3039C2.49138 14.1748 2.00144 15.3557 2 16.5874V21.3513C2.00021 21.6012 2.09954 21.8407 2.2762 22.0174C2.45286 22.194 2.69239 22.2934 2.94223 22.2936H9.05737C9.06148 22.2929 9.06527 22.291 9.06821 22.2881C9.07114 22.2852 9.07306 22.2814 9.07367 22.2773C9.07318 22.2731 9.0713 22.2692 9.06835 22.2663C9.06539 22.2633 9.06153 22.2615 9.05737 22.261ZM25.1033 13.7183C24.61 14.0472 24.0304 14.2224 23.4376 14.2218C22.6436 14.2201 21.8827 13.9038 21.3215 13.3421C20.7604 12.7804 20.4448 12.0191 20.444 11.2251C20.444 10.6323 20.6198 10.0528 20.9493 9.55996C21.2787 9.0671 21.7469 8.68301 22.2946 8.4563C22.8424 8.22958 23.445 8.17042 24.0264 8.28629C24.6078 8.40217 25.1417 8.68788 25.5607 9.10728C25.9797 9.52668 26.2648 10.0609 26.3801 10.6424C26.4954 11.2239 26.4356 11.8265 26.2083 12.3741C25.981 12.9216 25.5965 13.3894 25.1033 13.7183ZM25.0845 8.76035C24.5971 8.43447 24.0239 8.26046 23.4376 8.26031C22.6514 8.26092 21.8975 8.57346 21.3415 9.12932C20.7855 9.68517 20.4728 10.4389 20.472 11.2251C20.472 11.8115 20.6458 12.3847 20.9716 12.8722C21.2973 13.3598 21.7603 13.7398 22.302 13.9642C22.8437 14.1886 23.4398 14.2474 24.0149 14.133C24.59 14.0187 25.1183 13.7364 25.533 13.3219C25.9476 12.9073 26.2301 12.3791 26.3445 11.804C26.459 11.2289 26.4004 10.6328 26.1761 10.0911C25.9519 9.54932 25.572 9.08622 25.0845 8.76035ZM28.8146 17.7741C28.4345 17.3849 27.98 17.0762 27.4781 16.8662C26.9762 16.6562 26.4373 16.5492 25.8932 16.5517H20.7956H20.6955C20.6242 16.5517 20.5529 16.5558 20.482 16.5641C20.4795 16.5658 20.4774 16.5681 20.476 16.5708C20.4747 16.5736 20.4741 16.5766 20.4743 16.5797C20.4748 16.5838 20.4767 16.5877 20.4796 16.5906C20.4826 16.5936 20.4864 16.5955 20.4906 16.596H20.5092C20.5961 16.5874 20.6869 16.5874 20.7925 16.5874H20.7925H25.8886C26.4282 16.5847 26.9628 16.6908 27.4605 16.8993C27.9582 17.1079 28.4087 17.4147 28.7851 17.8013C29.5498 18.5878 29.9744 19.6436 29.9672 20.7405V25.0403C29.9683 25.1477 29.948 25.2543 29.9074 25.3538C29.8668 25.4533 29.8068 25.5437 29.7308 25.6196C29.6548 25.6956 29.5644 25.7557 29.465 25.7962C29.3655 25.8368 29.2589 25.8571 29.1514 25.856H23.3825L23.3803 25.8557C23.3786 25.8555 23.3769 25.8557 23.3752 25.856C23.3728 25.8566 23.3706 25.8577 23.3687 25.8592C23.3668 25.8607 23.3653 25.8627 23.3642 25.8649C23.3637 25.8659 23.3633 25.867 23.3631 25.8682C23.3628 25.8694 23.3626 25.8707 23.3626 25.8719C23.3626 25.8744 23.3632 25.8768 23.3642 25.879C23.3653 25.8812 23.3668 25.8831 23.3687 25.8846C23.3706 25.8862 23.3728 25.8872 23.3752 25.8878C23.3776 25.8883 23.3801 25.8884 23.3825 25.8878H29.1514C29.3762 25.8876 29.5918 25.7983 29.7508 25.6394C29.9098 25.4805 29.9993 25.2651 29.9998 25.0403V20.7343C30.0116 19.6297 29.5855 18.5654 28.8146 17.7741ZM13.9015 18.5635C13.638 18.169 13.4975 17.7052 13.4976 17.2308C13.4985 16.5952 13.7513 15.9859 14.2007 15.5365C14.6502 15.087 15.2595 14.8342 15.8951 14.8334C16.3695 14.8332 16.8333 14.9738 17.2278 15.2372C17.6223 15.5007 17.9298 15.8752 18.1114 16.3135C18.293 16.7517 18.3406 17.234 18.2481 17.6993C18.1556 18.1646 17.9271 18.592 17.5917 18.9274C17.2562 19.2629 16.8289 19.4913 16.3636 19.5838C15.8983 19.6763 15.416 19.6288 14.9777 19.4472C14.5395 19.2656 14.1649 18.958 13.9015 18.5635ZM17.2097 15.2643C16.8205 15.0044 16.3631 14.8658 15.8951 14.866C15.2682 14.867 14.6673 15.1165 14.224 15.5598C13.7807 16.003 13.5313 16.604 13.5302 17.2308C13.5301 17.6988 13.6687 18.1563 13.9286 18.5454C14.1885 18.9346 14.5579 19.2379 14.9902 19.417C15.4225 19.5962 15.8982 19.6431 16.3572 19.5519C16.8162 19.4606 17.2378 19.2353 17.5686 18.9044C17.8995 18.5735 18.1249 18.1519 18.2161 17.6929C18.3074 17.234 18.2605 16.7583 18.0813 16.326C17.9022 15.8937 17.5988 15.5242 17.2097 15.2643ZM11.208 29.2601H20.444C20.5125 29.2603 20.5807 29.2496 20.6458 29.2283H11.0039C11.0699 29.2493 11.1388 29.26 11.208 29.2601ZM13.8733 21.7805H17.8316C18.2679 21.7785 18.7002 21.8646 19.1024 22.0337C19.5046 22.2028 19.8686 22.4514 20.1724 22.7647C20.4789 23.076 20.7206 23.4451 20.8834 23.8505C21.0462 24.2559 21.1269 24.6896 21.1208 25.1264V28.5709C21.1209 28.6306 21.1133 28.6901 21.0983 28.7479V25.1342C21.1022 24.2605 20.7643 23.4198 20.1568 22.7918C19.8562 22.4804 19.4956 22.2331 19.0967 22.0649C18.6979 21.8967 18.2691 21.811 17.8362 21.8131H13.8779C12.9974 21.814 12.1531 22.1641 11.5305 22.7868C10.9078 23.4094 10.5577 24.2537 10.5569 25.1342V28.7944C10.5315 28.7227 10.5186 28.6471 10.5188 28.5709V25.1342C10.5201 24.245 10.8739 23.3926 11.5027 22.7639C12.1316 22.1352 12.9841 21.7816 13.8733 21.7805Z" fill="#1B365D"/>
<path d="M11.2807 8.97211L11.5863 9.42941L11.2807 8.97211ZM9.4338 9.53239L9.43329 10.0824H9.4338V9.53239ZM12.505 7.48014L13.0132 7.69058V7.69058L12.505 7.48014ZM12.694 5.55941L12.1546 5.66676L12.1546 5.66676L12.694 5.55941ZM11.7841 3.85739L11.3952 4.24634V4.24634L11.7841 3.85739ZM8.16115 3.1373L7.95059 2.6292L8.16115 3.1373ZM6.66947 4.36196L6.2121 4.05649V4.05649L6.66947 4.36196ZM6.10962 6.20899L5.55962 6.20912L5.55962 6.20963L6.10962 6.20899ZM7.08443 8.55812L7.4733 8.16917H7.4733L7.08443 8.55812ZM11.2571 3.47214L10.9515 3.92945L10.9515 3.92945L11.2571 3.47214ZM9.42837 2.91741V2.36741L9.42785 2.36741L9.42837 2.91741ZM12.4694 4.94935L12.9775 4.73888V4.73888L12.4694 4.94935ZM12.6567 6.85114L13.1961 6.95844V6.95844L12.6567 6.85114ZM11.7559 8.53648L11.367 8.14758L11.367 8.14758L11.7559 8.53648ZM10.0705 9.43732L9.96322 8.89789H9.96322L10.0705 9.43732ZM8.16873 9.25001L7.95826 9.75814L8.16873 9.25001ZM6.13679 6.20899L5.58679 6.20847V6.20899H6.13679ZM7.10178 3.8824L6.71287 3.49349L7.10178 3.8824ZM2.94223 22.261L2.94176 22.811H2.94223V22.261ZM9.05737 22.261L9.12211 21.7148L9.08985 21.711H9.05737V22.261ZM2.29897 21.9944L1.91023 22.3834L1.91023 22.3834L2.29897 21.9944ZM2.03182 21.3513H1.48182L1.48182 21.3523L2.03182 21.3513ZM2.03182 16.5874L1.48182 16.5868V16.5874H2.03182ZM3.3849 13.3266L3.77377 13.7156H3.77377L3.3849 13.3266ZM6.64593 11.9741V11.4241H6.64538L6.64593 11.9741ZM12.1394 11.9741V12.5241L12.1438 12.5241L12.1394 11.9741ZM14.6657 12.7564L14.9957 12.3164L14.988 12.3107L14.9802 12.3052L14.6657 12.7564ZM14.6828 12.7611V13.3111H14.9692L15.1334 13.0765L14.6828 12.7611ZM14.6882 12.7533L15.1388 13.0687L15.1768 13.0144L15.2009 12.9526L14.6882 12.7533ZM14.6887 12.7418L14.1613 12.898L14.1614 12.8981L14.6887 12.7418ZM14.682 12.7324L15.0033 12.2859L14.9958 12.2807L14.682 12.7324ZM12.1394 11.9415V12.4915L12.1417 12.4915L12.1394 11.9415ZM6.64593 11.9415V11.3915L6.64529 11.3915L6.64593 11.9415ZM3.36235 13.3039L2.97344 12.9149L2.97344 12.9149L3.36235 13.3039ZM2 16.5874L1.45 16.5868V16.5874H2ZM2 21.3513H1.45L1.45 21.3518L2 21.3513ZM2.94223 22.2936L2.94177 22.8436H2.94223V22.2936ZM9.05737 22.2936V22.8436H9.09857L9.1393 22.8374L9.05737 22.2936ZM9.06821 22.2881L9.45699 22.6771L9.45712 22.677L9.06821 22.2881ZM9.07367 22.2773L9.61754 22.3592L9.62857 22.2859L9.61984 22.2124L9.07367 22.2773ZM23.4376 14.2218L23.4364 14.7718L23.437 14.7718L23.4376 14.2218ZM25.1033 13.7183L24.7981 13.2607L25.1033 13.7183ZM21.3215 13.3421L21.7106 12.9534L21.3215 13.3421ZM20.444 11.2251H19.894L19.894 11.2257L20.444 11.2251ZM20.9493 9.55996L20.492 9.25434L20.492 9.25434L20.9493 9.55996ZM22.2946 8.4563L22.505 8.96448L22.505 8.96448L22.2946 8.4563ZM24.0264 8.28629L24.1339 7.7469L24.0264 8.28629ZM25.5607 9.10728L25.1716 9.49599L25.1716 9.49599L25.5607 9.10728ZM26.3801 10.6424L26.9196 10.5355V10.5355L26.3801 10.6424ZM26.2083 12.3741L25.7003 12.1632V12.1632L26.2083 12.3741ZM23.4376 8.26031L23.4377 7.71031L23.4371 7.71031L23.4376 8.26031ZM25.0845 8.76035L25.3902 8.30311L25.0845 8.76035ZM21.3415 9.12932L21.7304 9.51828L21.7304 9.51828L21.3415 9.12932ZM20.472 11.2251L19.922 11.2246V11.2251H20.472ZM20.9716 12.8722L21.4289 12.5667L20.9716 12.8722ZM24.0149 14.133L24.1222 14.6725L24.0149 14.133ZM25.533 13.3219L25.1441 12.9329L25.1441 12.9329L25.533 13.3219ZM26.3445 11.804L26.884 11.9114L26.884 11.9114L26.3445 11.804ZM26.1761 10.0911L26.6843 9.8807V9.8807L26.1761 10.0911ZM28.8146 17.7741L29.2086 17.3903L29.2081 17.3898L28.8146 17.7741ZM25.8932 16.5517V17.1017L25.8958 17.1017L25.8932 16.5517ZM20.6955 16.5517L20.6949 17.1017H20.6955V16.5517ZM20.482 16.5641L20.4177 16.0179L20.2908 16.0329L20.1834 16.1023L20.482 16.5641ZM20.476 16.5708L19.9842 16.3247L19.984 16.3251L20.476 16.5708ZM20.4743 16.5797L19.9256 16.6178L19.9265 16.6311L19.9281 16.6444L20.4743 16.5797ZM20.4906 16.596L20.4257 17.1421L20.458 17.146H20.4906V16.596ZM20.5092 16.596V17.146H20.5362L20.563 17.1433L20.5092 16.596ZM25.8886 16.5874V17.1374L25.8914 17.1374L25.8886 16.5874ZM28.7851 17.8013L29.1795 17.4179L29.1792 17.4176L28.7851 17.8013ZM29.9672 20.7405L29.4172 20.7369V20.7405H29.9672ZM29.9672 25.0403H29.4171L29.4172 25.0461L29.9672 25.0403ZM29.465 25.7962L29.2572 25.287L29.2572 25.287L29.465 25.7962ZM29.1514 25.856L29.1573 25.306H29.1514V25.856ZM23.3825 25.856L23.2989 26.3996L23.3404 26.406H23.3825V25.856ZM23.3803 25.8557L23.4639 25.3121L23.4458 25.3093L23.4276 25.3077L23.3803 25.8557ZM23.3752 25.856L23.4999 26.3917L23.5003 26.3916L23.3752 25.856ZM23.3687 25.8592L23.0247 25.4301L23.0245 25.4303L23.3687 25.8592ZM23.3642 25.8649L23.86 26.103L23.8601 26.1027L23.3642 25.8649ZM23.3631 25.8682L22.8277 25.7422L22.8276 25.7425L23.3631 25.8682ZM23.3642 25.879L23.8601 25.6411L23.8601 25.6409L23.3642 25.879ZM23.3687 25.8846L23.0245 26.3136L23.0247 26.3137L23.3687 25.8846ZM23.3752 25.8878L23.2505 26.4235L23.2506 26.4235L23.3752 25.8878ZM23.3825 25.8878V25.3378H23.322L23.2631 25.3509L23.3825 25.8878ZM29.1514 25.8878V26.4378L29.1519 26.4378L29.1514 25.8878ZM29.7508 25.6394L30.1395 26.0285L29.7508 25.6394ZM29.9998 25.0403L30.5498 25.0413V25.0403H29.9998ZM29.9998 20.7343L29.4498 20.7284V20.7343H29.9998ZM13.4976 17.2308L12.9476 17.2301V17.2307L13.4976 17.2308ZM13.9015 18.5635L14.3589 18.2581V18.2581L13.9015 18.5635ZM14.2007 15.5365L13.8118 15.1476V15.1476L14.2007 15.5365ZM15.8951 14.8334L15.8949 14.2834L15.8944 14.2834L15.8951 14.8334ZM17.5917 18.9274L17.9806 19.3163L17.5917 18.9274ZM16.3636 19.5838L16.4708 20.1233L16.3636 19.5838ZM14.9777 19.4472L14.7672 19.9553L14.9777 19.4472ZM15.8951 14.866L15.8949 14.316L15.8942 14.316L15.8951 14.866ZM17.2097 15.2643L17.5151 14.8069L17.2097 15.2643ZM14.224 15.5598L13.8351 15.1708V15.1709L14.224 15.5598ZM13.5302 17.2308L12.9802 17.2299V17.2307L13.5302 17.2308ZM14.9902 19.417L14.7797 19.9251L14.7797 19.9251L14.9902 19.417ZM16.3572 19.5519L16.4645 20.0913H16.4645L16.3572 19.5519ZM17.5686 18.9044L17.1797 18.5155L17.1797 18.5155L17.5686 18.9044ZM18.2161 17.6929L17.6767 17.5857L18.2161 17.6929ZM18.0813 16.326L17.5732 16.5365L17.5732 16.5365L18.0813 16.326ZM20.444 29.2601L20.4458 28.7101H20.444V29.2601ZM11.208 29.2601L11.2073 29.8101H11.208V29.2601ZM20.6458 29.2283L20.8167 29.7511L20.6458 28.6783V29.2283ZM11.0039 29.2283V28.6783L10.8372 29.7524L11.0039 29.2283ZM17.8316 21.7805V22.3305L17.8342 22.3305L17.8316 21.7805ZM13.8733 21.7805V21.2305L13.8726 21.2305L13.8733 21.7805ZM19.1024 22.0337L18.8892 22.5407H18.8892L19.1024 22.0337ZM20.1724 22.7647L19.7775 23.1476L19.7805 23.1505L20.1724 22.7647ZM21.1208 25.1264L20.5708 25.1188V25.1264H21.1208ZM21.1208 28.5709H20.5708L20.5708 28.5718L21.1208 28.5709ZM21.0983 28.7479H20.5483L21.6306 28.8864L21.0983 28.7479ZM21.0983 25.1342L20.5483 25.1317V25.1342H21.0983ZM20.1568 22.7918L19.7611 23.1738L19.7615 23.1742L20.1568 22.7918ZM19.0967 22.0649L18.883 22.5717L19.0967 22.0649ZM17.8362 21.8131V22.3631L17.8389 22.3631L17.8362 21.8131ZM13.8779 21.8131V21.2631L13.8774 21.2631L13.8779 21.8131ZM11.5305 22.7868L11.1416 22.3979H11.1416L11.5305 22.7868ZM10.5569 25.1342L10.0069 25.1337V25.1342H10.5569ZM10.5569 28.7944L10.0383 28.9777L11.1069 28.7944H10.5569ZM10.5188 28.5709L11.0688 28.5723V28.5709H10.5188ZM10.5188 25.1342L9.96883 25.1334V25.1342H10.5188ZM11.5027 22.7639L11.1139 22.3749L11.5027 22.7639ZM10.9751 8.51481C10.5189 8.81967 9.98251 8.98239 9.4338 8.98239V10.0824C10.2001 10.0824 10.9491 9.85515 11.5863 9.42941L10.9751 8.51481ZM11.9969 7.26969C11.7869 7.77664 11.4313 8.20995 10.9751 8.51481L11.5863 9.42941C12.2234 9.00367 12.72 8.39855 13.0132 7.69058L11.9969 7.26969ZM12.1546 5.66676C12.2617 6.20491 12.2068 6.76274 11.9969 7.26969L13.0132 7.69058C13.3064 6.98262 13.383 6.20361 13.2335 5.45206L12.1546 5.66676ZM11.3952 4.24634C11.7832 4.63429 12.0475 5.1286 12.1546 5.66676L13.2335 5.45206C13.0839 4.70052 12.7148 4.01021 12.1729 3.46843L11.3952 4.24634ZM9.97462 3.48726C10.5128 3.59423 11.0072 3.85839 11.3952 4.24634L12.1729 3.46843C11.631 2.92666 10.9406 2.55775 10.1891 2.40837L9.97462 3.48726ZM8.37172 3.64539C8.87862 3.43532 9.43644 3.38029 9.97462 3.48726L10.1891 2.40837C9.43748 2.25898 8.65849 2.33583 7.95059 2.6292L8.37172 3.64539ZM7.12684 4.66743C7.43159 4.21114 7.86482 3.85546 8.37172 3.64539L7.95059 2.6292C7.24269 2.92256 6.63769 3.41927 6.2121 4.05649L7.12684 4.66743ZM6.65962 6.20886C6.65949 5.66015 6.82209 5.12373 7.12684 4.66743L6.2121 4.05649C5.78651 4.69372 5.55944 5.44284 5.55962 6.20912L6.65962 6.20886ZM7.4733 8.16917C6.95311 7.6491 6.66048 6.94392 6.65962 6.20835L5.55962 6.20963C5.56082 7.23654 5.96935 8.22103 6.69557 8.94708L7.4733 8.16917ZM9.43431 8.98239C8.69874 8.9817 7.99348 8.68924 7.4733 8.16917L6.69557 8.94708C7.42179 9.67313 8.40638 10.0814 9.43329 10.0824L9.43431 8.98239ZM11.5626 3.01483C10.9309 2.59271 10.1882 2.36741 9.42837 2.36741V3.46741C9.9706 3.46741 10.5007 3.6282 10.9515 3.92945L11.5626 3.01483ZM12.9775 4.73888C12.6868 4.03692 12.1944 3.43695 11.5626 3.01483L10.9515 3.92945C11.4024 4.2307 11.7537 4.65887 11.9613 5.15983L12.9775 4.73888ZM13.1961 6.95844C13.3444 6.21325 13.2683 5.44083 12.9775 4.73888L11.9613 5.15983C12.1688 5.66079 12.223 6.21203 12.1173 6.74384L13.1961 6.95844ZM12.1448 8.92539C12.682 8.38814 13.0479 7.70363 13.1961 6.95844L12.1173 6.74384C12.0115 7.27566 11.7504 7.76416 11.367 8.14758L12.1448 8.92539ZM10.1778 9.97675C10.923 9.82852 11.6075 9.46265 12.1448 8.92539L11.367 8.14758C10.9835 8.53099 10.495 8.7921 9.96322 8.89789L10.1778 9.97675ZM7.95826 9.75814C8.66021 10.0489 9.43263 10.125 10.1778 9.97675L9.96322 8.89789C9.43141 9.00367 8.88017 8.94938 8.37921 8.74187L7.95826 9.75814ZM6.23421 8.34325C6.65633 8.975 7.2563 9.46738 7.95826 9.75814L8.37921 8.74187C7.87825 8.53437 7.45007 8.18298 7.14883 7.73213L6.23421 8.34325ZM5.58679 6.20899C5.58679 6.96878 5.81209 7.71151 6.23421 8.34325L7.14883 7.73213C6.84758 7.28128 6.68679 6.75122 6.68679 6.20899H5.58679ZM6.71287 3.49349C5.99274 4.21362 5.58775 5.19005 5.58679 6.20847L6.68679 6.20951C6.68747 5.48247 6.97659 4.7854 7.49068 4.27131L6.71287 3.49349ZM9.42785 2.36741C8.40943 2.36837 7.433 2.77336 6.71287 3.49349L7.49068 4.27131C8.00478 3.75721 8.70184 3.46809 9.42888 3.46741L9.42785 2.36741ZM2.94223 22.811H9.05737V21.711H2.94223V22.811ZM1.91023 22.3834C2.18391 22.6569 2.55487 22.8106 2.94176 22.811L2.94269 21.711C2.84706 21.7109 2.75537 21.6729 2.68772 21.6053L1.91023 22.3834ZM1.48182 21.3523C1.48248 21.7392 1.63655 22.11 1.91023 22.3834L2.68772 21.6053C2.62007 21.5377 2.58198 21.446 2.58182 21.3504L1.48182 21.3523ZM1.48182 16.5874V21.3513H2.58182V16.5874H1.48182ZM2.99602 12.9377C2.02799 13.9056 1.48343 15.2179 1.48182 16.5868L2.58182 16.5881C2.58309 15.5105 3.01176 14.4775 3.77377 13.7156L2.99602 12.9377ZM6.64538 11.4241C5.27649 11.4255 3.96405 11.9698 2.99602 12.9377L3.77377 13.7156C4.53579 12.9537 5.56892 12.5252 6.64648 12.5241L6.64538 11.4241ZM12.1394 11.4241H6.64593V12.5241H12.1394V11.4241ZM14.9802 12.3052C14.146 11.7238 13.1518 11.4159 12.1349 11.4241L12.1438 12.5241C12.9327 12.5177 13.704 12.7566 14.3512 13.2077L14.9802 12.3052ZM14.675 12.2111C14.6748 12.2111 14.6794 12.2111 14.6851 12.2112C14.6913 12.2113 14.6991 12.2116 14.708 12.2121C14.7264 12.2132 14.7462 12.2154 14.7672 12.219C14.8091 12.2261 14.8458 12.2375 14.8767 12.2499C14.9348 12.2731 14.9754 12.3012 14.9957 12.3164L14.3357 13.1964C14.3623 13.2163 14.4071 13.2467 14.4681 13.2711C14.5479 13.3031 14.6206 13.3111 14.675 13.3111V12.2111ZM14.6828 12.2111H14.675V13.3111H14.6828V12.2111ZM14.2376 12.438L14.2322 12.4457L15.1334 13.0765L15.1388 13.0687L14.2376 12.438ZM14.1614 12.8981C14.1278 12.785 14.1329 12.664 14.1756 12.5541L15.2009 12.9526C15.2464 12.8353 15.2518 12.7062 15.216 12.5855L14.1614 12.8981ZM14.3607 13.1788C14.2649 13.1098 14.1948 13.011 14.1613 12.898L15.216 12.5856C15.1803 12.465 15.1055 12.3596 15.0033 12.286L14.3607 13.1788ZM12.1417 12.4915C12.9373 12.4882 13.7147 12.73 14.3682 13.1841L14.9958 12.2807C14.1569 11.6978 13.1587 11.3873 12.1371 11.3915L12.1417 12.4915ZM6.64593 12.4915H12.1394V11.3915H6.64593V12.4915ZM3.75126 13.6928C4.51924 12.9248 5.56048 12.4928 6.64657 12.4915L6.64529 11.3915C5.26791 11.3931 3.9474 11.941 2.97344 12.9149L3.75126 13.6928ZM2.55 16.5881C2.55127 15.502 2.98328 14.4607 3.75126 13.6928L2.97344 12.9149C1.99948 13.8889 1.45161 15.2094 1.45 16.5868L2.55 16.5881ZM2.55 21.3513V16.5874H1.45V21.3513H2.55ZM2.66511 21.6285C2.59148 21.5548 2.55009 21.455 2.55 21.3509L1.45 21.3518C1.45033 21.7473 1.6076 22.1266 1.88729 22.4063L2.66511 21.6285ZM2.94268 21.7436C2.83856 21.7435 2.73873 21.7021 2.66511 21.6285L1.88729 22.4063C2.16698 22.686 2.54623 22.8432 2.94177 22.8436L2.94268 21.7436ZM9.05737 21.7436H2.94223V22.8436H9.05737V21.7436ZM8.67942 21.8991C8.75956 21.819 8.86328 21.7666 8.97544 21.7497L9.1393 22.8374C9.25967 22.8193 9.37098 22.7631 9.45699 22.6771L8.67942 21.8991ZM8.5298 22.1954C8.54668 22.0833 8.59903 21.9795 8.6793 21.8992L9.45712 22.677C9.54325 22.5909 9.59943 22.4794 9.61754 22.3592L8.5298 22.1954ZM8.67944 22.6552C8.5951 22.5709 8.54158 22.4606 8.52751 22.3421L9.61984 22.2124C9.60478 22.0856 9.54751 21.9676 9.45726 21.8774L8.67944 22.6552ZM8.99264 22.8071C8.87416 22.7931 8.76383 22.7396 8.67944 22.6552L9.45726 21.8774C9.36695 21.7871 9.24889 21.7298 9.12211 21.7148L8.99264 22.8071ZM23.437 14.7718C24.1386 14.7725 24.8247 14.5651 25.4084 14.1758L24.7981 13.2607C24.3954 13.5292 23.9221 13.6723 23.4381 13.6718L23.437 14.7718ZM20.9324 13.7308C21.5964 14.3955 22.4969 14.7698 23.4364 14.7718L23.4387 13.6718C22.7903 13.6704 22.1689 13.4121 21.7106 12.9534L20.9324 13.7308ZM19.894 11.2257C19.895 12.1652 20.2684 13.0661 20.9324 13.7308L21.7106 12.9534C21.2524 12.4946 20.9947 11.873 20.994 11.2246L19.894 11.2257ZM20.492 9.25434C20.1021 9.83766 19.894 10.5235 19.894 11.2251H20.994C20.994 10.7411 21.1376 10.268 21.4065 9.86558L20.492 9.25434ZM22.0843 7.94811C21.436 8.21644 20.8819 8.67102 20.492 9.25434L21.4065 9.86559C21.6755 9.46318 22.0577 9.14959 22.505 8.96448L22.0843 7.94811ZM24.1339 7.7469C23.4459 7.60976 22.7325 7.67978 22.0843 7.94811L22.505 8.96448C22.9522 8.77938 23.4442 8.73107 23.9189 8.82568L24.1339 7.7469ZM25.9498 8.71858C25.454 8.2222 24.822 7.88405 24.1339 7.7469L23.9189 8.82568C24.3936 8.92029 24.8295 9.15357 25.1716 9.49599L25.9498 8.71858ZM26.9196 10.5355C26.7832 9.84725 26.4457 9.21495 25.9498 8.71857L25.1716 9.49599C25.5137 9.83841 25.7465 10.2746 25.8406 10.7494L26.9196 10.5355ZM26.7163 12.5849C26.9853 11.9369 27.056 11.2237 26.9196 10.5355L25.8406 10.7494C25.9347 11.2241 25.8859 11.7162 25.7003 12.1632L26.7163 12.5849ZM25.4084 14.1758C25.9921 13.7866 26.4473 13.2329 26.7163 12.5849L25.7003 12.1632C25.5148 12.6102 25.2008 12.9921 24.7981 13.2607L25.4084 14.1758ZM23.4374 8.81031C23.915 8.81043 24.3818 8.95216 24.7789 9.21758L25.3902 8.30311C24.8123 7.91678 24.1328 7.71049 23.4377 7.71031L23.4374 8.81031ZM21.7304 9.51828C22.1833 9.06543 22.7975 8.81081 23.438 8.81031L23.4371 7.71031C22.5052 7.71104 21.6117 8.08149 20.9527 8.74036L21.7304 9.51828ZM21.022 11.2257C21.0226 10.5852 21.2774 9.97113 21.7304 9.51828L20.9527 8.74036C20.2936 9.39922 19.9229 10.2927 19.922 11.2246L21.022 11.2257ZM21.4289 12.5667C21.1636 12.1696 21.022 11.7027 21.022 11.2251H19.922C19.922 11.9203 20.1281 12.5998 20.5142 13.1778L21.4289 12.5667ZM22.5125 13.4561C22.0713 13.2733 21.6942 12.9638 21.4289 12.5667L20.5142 13.1778C20.9004 13.7558 21.4493 14.2063 22.0915 14.4723L22.5125 13.4561ZM23.9077 13.5936C23.4392 13.6867 22.9537 13.6389 22.5125 13.4561L22.0915 14.4723C22.7337 14.7384 23.4404 14.808 24.1222 14.6725L23.9077 13.5936ZM25.1441 12.9329C24.8064 13.2706 24.3761 13.5005 23.9077 13.5936L24.1222 14.6725C24.8039 14.5369 25.4302 14.2023 25.9218 13.7108L25.1441 12.9329ZM25.8051 11.6966C25.7119 12.165 25.4818 12.5952 25.1441 12.9329L25.9218 13.7108C26.4134 13.2193 26.7482 12.5932 26.884 11.9114L25.8051 11.6966ZM25.668 10.3015C25.8506 10.7427 25.8984 11.2282 25.8051 11.6966L26.884 11.9114C27.0197 11.2297 26.9502 10.523 26.6843 9.8807L25.668 10.3015ZM24.7789 9.21758C25.1759 9.483 25.4853 9.86019 25.668 10.3015L26.6843 9.8807C26.4184 9.23844 25.9681 8.68943 25.3902 8.30311L24.7789 9.21758ZM27.2658 17.3735C27.6996 17.5551 28.0925 17.822 28.4211 18.1584L29.2081 17.3898C28.7764 16.9479 28.2603 16.5973 27.6904 16.3588L27.2658 17.3735ZM25.8958 17.1017C26.366 17.0996 26.832 17.192 27.2658 17.3735L27.6904 16.3588C27.1205 16.1203 26.5085 15.9989 25.8907 16.0017L25.8958 17.1017ZM20.7956 17.1017H25.8932V16.0017H20.7956V17.1017ZM20.6955 17.1017H20.7956V16.0017H20.6955V17.1017ZM20.5464 17.1104C20.5957 17.1046 20.6453 17.1017 20.6949 17.1017L20.696 16.0017C20.603 16.0016 20.5101 16.007 20.4177 16.0179L20.5464 17.1104ZM20.9679 16.817C20.9254 16.9019 20.8608 16.9742 20.7807 17.026L20.1834 16.1023C20.0981 16.1574 20.0294 16.2343 19.9842 16.3247L20.9679 16.817ZM21.023 16.5415C21.0296 16.6363 21.0107 16.7313 20.9681 16.8166L19.984 16.3251C19.9387 16.4158 19.9186 16.5169 19.9256 16.6178L21.023 16.5415ZM20.8685 16.2017C20.9529 16.2861 21.0064 16.3965 21.0205 16.5149L19.9281 16.6444C19.9431 16.7712 20.0004 16.8892 20.0907 16.9796L20.8685 16.2017ZM20.5554 16.0498C20.6738 16.0639 20.7841 16.1173 20.8685 16.2017L20.0907 16.9796C20.181 17.0699 20.2991 17.1271 20.4257 17.1421L20.5554 16.0498ZM20.5092 16.046H20.4906V17.146H20.5092V16.046ZM20.7925 16.0374C20.6933 16.0374 20.5742 16.0369 20.4555 16.0486L20.563 17.1433C20.618 17.1379 20.6806 17.1374 20.7925 17.1374V16.0374ZM20.7925 16.0374H20.7925V17.1374H20.7925V16.0374ZM25.8886 16.0374H20.7925V17.1374H25.8886V16.0374ZM27.6731 16.3921C27.1072 16.1549 26.4993 16.0343 25.8858 16.0374L25.8914 17.1374C26.3571 17.1351 26.8184 17.2266 27.2479 17.4066L27.6731 16.3921ZM29.1792 17.4176C28.7512 16.978 28.2389 16.6292 27.6731 16.3921L27.2479 17.4066C27.6774 17.5866 28.0662 17.8513 28.391 18.185L29.1792 17.4176ZM30.5172 20.7441C30.5253 19.5028 30.0448 18.308 29.1795 17.4179L28.3908 18.1847C29.0547 18.8677 29.4234 19.7844 29.4172 20.7369L30.5172 20.7441ZM30.5172 25.0403V20.7405H29.4172V25.0403H30.5172ZM30.4166 25.5616C30.4849 25.3943 30.5191 25.2151 30.5171 25.0344L29.4172 25.0461C29.4176 25.0804 29.4111 25.1143 29.3982 25.146L30.4166 25.5616ZM30.1197 26.0085C30.2474 25.8808 30.3484 25.7288 30.4166 25.5616L29.3982 25.146C29.3852 25.1777 29.3661 25.2065 29.3419 25.2307L30.1197 26.0085ZM29.6727 26.3055C29.84 26.2372 29.992 26.1363 30.1197 26.0085L29.3419 25.2307C29.3177 25.2549 29.2889 25.2741 29.2572 25.287L29.6727 26.3055ZM29.1456 26.406C29.3262 26.4079 29.5055 26.3737 29.6727 26.3055L29.2572 25.287C29.2255 25.2999 29.1915 25.3064 29.1573 25.306L29.1456 26.406ZM23.3825 26.406H29.1514V25.306H23.3825V26.406ZM23.2968 26.3993L23.2989 26.3996L23.466 25.3124L23.4639 25.3121L23.2968 26.3993ZM23.5003 26.3916C23.4454 26.4044 23.389 26.4085 23.3331 26.4036L23.4276 25.3077C23.3683 25.3026 23.3084 25.3069 23.2502 25.3204L23.5003 26.3916ZM23.7128 26.2883C23.6503 26.3384 23.5775 26.3737 23.4999 26.3917L23.2505 25.3204C23.1682 25.3395 23.091 25.3769 23.0247 25.4301L23.7128 26.2883ZM23.8601 26.1027C23.8256 26.1747 23.7754 26.2381 23.713 26.2881L23.0245 25.4303C22.9583 25.4834 22.9049 25.5507 22.8683 25.627L23.8601 26.1027ZM23.8984 25.9942C23.8896 26.0317 23.8767 26.0682 23.86 26.103L22.8684 25.6267C22.8507 25.6637 22.8371 25.7024 22.8277 25.7422L23.8984 25.9942ZM23.9126 25.8719C23.9126 25.9128 23.9079 25.9538 23.8985 25.9939L22.8276 25.7425C22.8176 25.785 22.8126 25.8285 22.8126 25.8719H23.9126ZM23.8601 25.6409C23.8947 25.7131 23.9126 25.792 23.9126 25.8719H22.8126C22.8126 25.9567 22.8317 26.0405 22.8684 26.117L23.8601 25.6409ZM23.713 25.4557C23.7754 25.5058 23.8256 25.5692 23.8601 25.6411L22.8683 26.1168C22.9049 26.1932 22.9583 26.2604 23.0245 26.3136L23.713 25.4557ZM23.4999 25.3521C23.578 25.3703 23.6507 25.4058 23.7128 25.4555L23.0247 26.3137C23.0906 26.3666 23.1677 26.4042 23.2505 26.4235L23.4999 25.3521ZM23.2631 25.3509C23.341 25.3336 23.4219 25.334 23.4998 25.3521L23.2506 26.4235C23.3333 26.4427 23.4192 26.4431 23.5019 26.4247L23.2631 25.3509ZM29.1514 25.3378H23.3825V26.4378H29.1514V25.3378ZM29.3621 25.2503C29.306 25.3063 29.2301 25.3378 29.1509 25.3378L29.1519 26.4378C29.5223 26.4375 29.8775 26.2903 30.1395 26.0285L29.3621 25.2503ZM29.4498 25.0393C29.4496 25.1185 29.4181 25.1944 29.3621 25.2503L30.1395 26.0285C30.4016 25.7667 30.5491 25.4117 30.5498 25.0413L29.4498 25.0393ZM29.4498 20.7343V25.0403H30.5498V20.7343H29.4498ZM28.4207 18.1579C29.09 18.845 29.4601 19.7692 29.4498 20.7284L30.5497 20.7402C30.5631 19.4902 30.0809 18.2857 29.2086 17.3903L28.4207 18.1579ZM12.9476 17.2307C12.9474 17.8139 13.1202 18.384 13.4441 18.869L14.3589 18.2581C14.1558 17.954 14.0475 17.5966 14.0476 17.231L12.9476 17.2307ZM13.8118 15.1476C13.2594 15.7 12.9486 16.4489 12.9476 17.2301L14.0476 17.2316C14.0483 16.7416 14.2432 16.2719 14.5896 15.9254L13.8118 15.1476ZM15.8944 14.2834C15.1132 14.2844 14.3642 14.5952 13.8118 15.1476L14.5896 15.9254C14.9361 15.5789 15.4058 15.384 15.8958 15.3834L15.8944 14.2834ZM17.5332 14.7798C17.0483 14.456 16.4781 14.2832 15.8949 14.2834L15.8953 15.3834C16.2609 15.3833 16.6183 15.4916 16.9223 15.6946L17.5332 14.7798ZM18.6195 16.1029C18.3963 15.5642 18.0182 15.1037 17.5332 14.7798L16.9223 15.6946C17.2264 15.8977 17.4634 16.1863 17.6033 16.5241L18.6195 16.1029ZM18.7875 17.8066C18.9013 17.2346 18.8428 16.6417 18.6195 16.1029L17.6033 16.5241C17.7433 16.8618 17.7799 17.2335 17.7086 17.5921L18.7875 17.8066ZM17.9806 19.3163C18.393 18.904 18.6738 18.3786 18.7875 17.8066L17.7086 17.5921C17.6373 17.9506 17.4613 18.28 17.2028 18.5385L17.9806 19.3163ZM16.4708 20.1233C17.0428 20.0095 17.5682 19.7287 17.9806 19.3163L17.2028 18.5385C16.9443 18.7971 16.6149 18.9731 16.2563 19.0444L16.4708 20.1233ZM14.7672 19.9553C15.306 20.1785 15.8988 20.237 16.4708 20.1233L16.2563 19.0444C15.8977 19.1157 15.5261 19.079 15.1883 18.9391L14.7672 19.9553ZM13.4441 18.869C13.768 19.354 14.2284 19.732 14.7672 19.9553L15.1883 18.9391C14.8506 18.7991 14.5619 18.5621 14.3589 18.2581L13.4441 18.869ZM15.8953 15.416C16.2544 15.4158 16.6056 15.5223 16.9042 15.7217L17.5151 14.8069C17.0355 14.4866 16.4717 14.3158 15.8949 14.316L15.8953 15.416ZM14.6129 15.9487C14.9533 15.6083 15.4147 15.4168 15.896 15.416L15.8942 14.316C15.1218 14.3172 14.3813 14.6247 13.8351 15.1708L14.6129 15.9487ZM14.0802 17.2317C14.081 16.7504 14.2726 16.289 14.6129 15.9487L13.8351 15.1709C13.2889 15.7171 12.9815 16.4575 12.9802 17.2299L14.0802 17.2317ZM14.386 18.24C14.1865 17.9413 14.0801 17.5902 14.0802 17.231L12.9802 17.2307C12.98 17.8074 13.1509 18.3713 13.4712 18.8509L14.386 18.24ZM15.2008 18.909C14.869 18.7715 14.5854 18.5386 14.386 18.24L13.4712 18.8509C13.7915 19.3305 14.2469 19.7044 14.7797 19.9251L15.2008 18.909ZM16.25 19.0124C15.8977 19.0825 15.5326 19.0464 15.2008 18.9089L14.7797 19.9251C15.3125 20.1459 15.8988 20.2038 16.4645 20.0913L16.25 19.0124ZM17.1797 18.5155C16.9258 18.7694 16.6022 18.9424 16.2499 19.0124L16.4645 20.0913C17.0301 19.9788 17.5497 19.7011 17.9576 19.2933L17.1797 18.5155ZM17.6767 17.5857C17.6066 17.9379 17.4337 18.2615 17.1797 18.5155L17.9576 19.2933C18.3654 18.8855 18.6431 18.3659 18.7556 17.8002L17.6767 17.5857ZM17.5732 16.5365C17.7107 16.8683 17.7467 17.2334 17.6767 17.5857L18.7556 17.8002C18.868 17.2345 18.8102 16.6482 18.5894 16.1154L17.5732 16.5365ZM16.9042 15.7217C17.2029 15.9212 17.4357 16.2047 17.5732 16.5365L18.5894 16.1154C18.3686 15.5826 17.9948 15.1273 17.5151 14.8069L16.9042 15.7217ZM20.444 28.7101H11.208V29.8101H20.444V28.7101ZM20.4749 28.7055C20.4655 28.7086 20.4557 28.7102 20.4458 28.7101L20.4422 29.8101C20.5694 29.8105 20.6959 29.7906 20.8167 29.7511L20.4749 28.7055ZM11.0039 29.7783H20.6458V28.6783H11.0039V29.7783ZM11.2088 28.7101C11.1958 28.7101 11.1829 28.7081 11.1706 28.7042L10.8372 29.7524C10.9569 29.7905 11.0817 29.8099 11.2073 29.8101L11.2088 28.7101ZM17.8316 21.2305H13.8733V22.3305H17.8316V21.2305ZM19.3156 21.5267C18.845 21.3289 18.3394 21.2281 17.829 21.2305L17.8342 22.3305C18.1964 22.3288 18.5553 22.4003 18.8892 22.5407L19.3156 21.5267ZM20.5672 22.3818C20.2118 22.0154 19.7861 21.7245 19.3156 21.5267L18.8892 22.5407C19.2232 22.6811 19.5253 22.8875 19.7776 23.1476L20.5672 22.3818ZM21.3937 23.6455C21.2038 23.1725 20.9219 22.742 20.5643 22.3788L19.7805 23.1505C20.0359 23.41 20.2373 23.7176 20.373 24.0554L21.3937 23.6455ZM21.6708 25.1341C21.6778 24.6245 21.5837 24.1185 21.3937 23.6455L20.373 24.0554C20.5087 24.3933 20.5759 24.7547 20.5709 25.1188L21.6708 25.1341ZM21.6708 28.5709V25.1264H20.5708V28.5709H21.6708ZM21.6306 28.8864C21.6574 28.7831 21.671 28.6768 21.6708 28.5701L20.5708 28.5718C20.5708 28.5845 20.5692 28.5971 20.566 28.6094L21.6306 28.8864ZM20.5483 25.1342V28.7479H21.6483V25.1342H20.5483ZM19.7615 23.1742C20.2692 23.6991 20.5516 24.4016 20.5483 25.1317L21.6483 25.1367C21.6528 24.1194 21.2595 23.1406 20.5522 22.4094L19.7615 23.1742ZM18.883 22.5717C19.2134 22.711 19.5121 22.9158 19.7611 23.1738L20.5526 22.4099C20.2003 22.0449 19.7778 21.7552 19.3105 21.5581L18.883 22.5717ZM17.8389 22.3631C18.1974 22.3614 18.5526 22.4323 18.883 22.5717L19.3105 21.5581C18.8431 21.361 18.3407 21.2607 17.8335 21.2631L17.8389 22.3631ZM13.8779 22.3631H17.8362V21.2631H13.8779V22.3631ZM11.9194 23.1757C12.439 22.656 13.1436 22.3638 13.8784 22.3631L13.8774 21.2631C12.8512 21.2641 11.8672 21.6722 11.1416 22.3979L11.9194 23.1757ZM11.1069 25.1347C11.1075 24.3999 11.3998 23.6953 11.9194 23.1757L11.1416 22.3979C10.4159 23.1235 10.0078 24.1074 10.0069 25.1337L11.1069 25.1347ZM11.1069 28.7944V25.1342H10.0069V28.7944H11.1069ZM9.96883 28.5695C9.96848 28.7085 9.99197 28.8466 10.0383 28.9777L11.0754 28.6112C11.071 28.5987 11.0688 28.5856 11.0688 28.5723L9.96883 28.5695ZM9.96883 25.1342V28.5709H11.0688V25.1342H9.96883ZM11.1139 22.3749C10.382 23.1066 9.97027 24.0986 9.96883 25.1334L11.0688 25.135C11.0699 24.3914 11.3657 23.6786 11.8916 23.1528L11.1139 22.3749ZM13.8726 21.2305C12.8378 21.2317 11.8457 21.6433 11.1139 22.3749L11.8916 23.1528C12.4174 22.6271 13.1303 22.3314 13.8739 22.3305L13.8726 21.2305Z" fill="#1B365D"/>
</svg>
