<svg width="32" height="32" viewBox="0 0 32 32" fill="none" xmlns="http://www.w3.org/2000/svg">
<g clip-path="url(#clip0_350_3725)">
<path fill-rule="evenodd" clip-rule="evenodd" d="M29.6184 20.0403C30.8427 21.3563 31.5245 23.0864 31.5271 24.8839C31.5245 26.7704 30.774 28.579 29.44 29.9129C28.106 31.2469 26.2975 31.9975 24.411 32C24.2587 32 24.1084 31.9949 23.9593 31.9858C23.9022 31.995 23.8443 31.9997 23.7864 32H1.14129C0.839042 31.9997 0.54924 31.8796 0.335336 31.6661C0.121432 31.4525 0.000854556 31.1629 0 30.8607V1.14134C0.000342935 0.838758 0.120696 0.548665 0.334655 0.334706C0.548614 0.120746 0.838707 0.000393966 1.14129 5.24491e-05H20.28C20.4298 -0.000918899 20.5782 0.0282206 20.7166 0.0857404C20.8549 0.14326 20.9802 0.227988 21.0851 0.334891L24.591 3.8394C24.6978 3.94444 24.7825 4.06991 24.8399 4.20835C24.8973 4.34678 24.9263 4.49535 24.9251 4.64521V17.7871C26.7177 17.9194 28.3941 18.7242 29.6184 20.0403ZM23.1645 3.87102L21.0535 1.76199V3.87102H23.1645ZM1.03161 1.14263V30.8587V30.8607C1.03261 30.8892 1.04456 30.9163 1.06499 30.9362C1.08541 30.9562 1.11274 30.9675 1.14129 30.9678H20.7219C19.8431 30.4335 19.0895 29.7164 18.5122 28.8652H3.59741C3.46053 28.8652 3.32925 28.8108 3.23246 28.714C3.13567 28.6172 3.08129 28.486 3.08129 28.3491C3.08129 28.2122 3.13567 28.0809 3.23246 27.9841C3.32925 27.8873 3.46053 27.8329 3.59741 27.8329H17.9329C17.6864 27.2941 17.5087 26.7264 17.4039 26.1433H3.59741C3.46053 26.1433 3.32925 26.0889 3.23246 25.9921C3.13567 25.8953 3.08129 25.764 3.08129 25.6271C3.08129 25.4902 3.13567 25.359 3.23246 25.2622C3.32925 25.1654 3.46053 25.111 3.59741 25.111H17.2955C17.2929 25.0357 17.2916 24.9596 17.2916 24.8826C17.2914 24.3909 17.3422 23.9006 17.4432 23.4194H3.59741C3.46053 23.4194 3.32925 23.365 3.23246 23.2682C3.13567 23.1714 3.08129 23.0401 3.08129 22.9033C3.08129 22.7664 3.13567 22.6351 3.23246 22.5383C3.32925 22.4415 3.46053 22.3871 3.59741 22.3871H17.7432C17.9694 21.7863 18.2761 21.219 18.6548 20.7007H3.59677C3.45989 20.7007 3.32861 20.6463 3.23181 20.5495C3.13502 20.4527 3.08064 20.3214 3.08064 20.1846C3.08064 20.0477 3.13502 19.9164 3.23181 19.8196C3.32861 19.7228 3.45989 19.6684 3.59677 19.6684H19.571C20.7547 18.5658 22.28 17.9013 23.8935 17.7852V4.90328H20.8503C20.6308 4.9031 20.4203 4.81586 20.265 4.66069C20.1097 4.50551 20.0223 4.29507 20.0219 4.07553V1.03231H1.14129C1.11225 1.03281 1.08454 1.04462 1.06406 1.06522C1.04358 1.08582 1.03194 1.11359 1.03161 1.14263ZM20.1076 29.183C21.2485 30.324 22.7954 30.9659 24.409 30.9678C26.0227 30.9659 27.5697 30.324 28.7107 29.183C29.8517 28.042 30.4936 26.495 30.4955 24.8813C30.4936 23.2677 29.8517 21.7207 28.7107 20.5796C27.5697 19.4386 26.0227 18.7968 24.409 18.7949C22.7954 18.7968 21.2485 19.4386 20.1076 20.5797C18.9666 21.7207 18.3249 23.2677 18.3232 24.8813C18.3249 26.4949 18.9666 28.0419 20.1076 29.183ZM9.39419 8.69489C9.2992 8.78122 9.17545 8.82907 9.04709 8.82908C8.97892 8.8293 8.91138 8.81602 8.84837 8.79C8.78537 8.76397 8.72814 8.72573 8.67999 8.67747L7.78903 7.78134C7.6925 7.68458 7.6383 7.55349 7.6383 7.41682C7.6383 7.28015 7.6925 7.14906 7.78903 7.05231C7.88581 6.95559 8.01704 6.90125 8.15386 6.90125C8.29069 6.90125 8.42192 6.95559 8.5187 7.05231L9.06709 7.60069L10.8768 5.95618C10.9781 5.86421 11.1119 5.81628 11.2486 5.82294C11.3853 5.82959 11.5138 5.89028 11.6058 5.99166C11.6976 6.09301 11.7454 6.22663 11.7387 6.36319C11.7321 6.49975 11.6715 6.6281 11.5703 6.72005L9.39419 8.69489ZM9.68773 11.0162C10.6662 11.015 11.6043 10.6257 12.2961 9.93375C12.9879 9.24181 13.377 8.30369 13.3781 7.32521C13.3769 6.34684 12.9877 5.40889 12.2959 4.71708C11.6041 4.02527 10.6661 3.63608 9.68773 3.63489C8.70926 3.63591 7.77114 4.02502 7.07919 4.71685C6.38724 5.40868 5.99797 6.34673 5.99677 7.32521C5.9978 8.3038 6.38699 9.24202 7.07896 9.93398C7.77093 10.626 8.70914 11.0151 9.68773 11.0162ZM9.68773 4.6665C10.3926 4.66735 11.0684 4.94774 11.5668 5.44616C12.0652 5.94458 12.3456 6.62034 12.3464 7.32521C12.3458 8.03019 12.0654 8.70611 11.567 9.20467C11.0686 9.70323 10.3927 9.98371 9.68773 9.98456C8.98269 9.98371 8.30677 9.70325 7.80823 9.20471C7.30969 8.70617 7.02924 8.03025 7.02838 7.32521C7.02924 6.62023 7.30971 5.94437 7.80827 5.44593C8.30683 4.9475 8.98275 4.66718 9.68773 4.6665ZM21.3251 17.9762H3.59741C3.46053 17.9762 3.32925 17.9218 3.23246 17.825C3.13567 17.7282 3.08129 17.5969 3.08129 17.46C3.08129 17.3232 3.13567 17.1919 3.23246 17.0951C3.32925 16.9983 3.46053 16.9439 3.59741 16.9439H21.3251C21.462 16.9439 21.5933 16.9983 21.6901 17.0951C21.7869 17.1919 21.8413 17.3232 21.8413 17.46C21.8413 17.5969 21.7869 17.7282 21.6901 17.825C21.5933 17.9218 21.462 17.9762 21.3251 17.9762ZM4.10126 7.70935L4.10134 7.70951L4.12387 7.7536C4.29742 8.09166 4.38193 8.26134 4.40645 8.38843C4.43096 8.51553 4.40645 8.71876 4.35742 9.08585C4.35251 9.12724 4.34715 9.17058 4.34153 9.21607L4.34153 9.21609C4.33382 9.27838 4.32562 9.34469 4.31742 9.41553C4.27296 9.76967 4.34539 10.1286 4.52369 10.4378C4.70198 10.747 4.97639 10.9895 5.30516 11.1284L5.53999 11.2278L4.15161 14.211C4.11181 14.2965 4.09619 14.3912 4.10642 14.4849C4.11666 14.5786 4.15237 14.6678 4.20967 14.7426C4.26718 14.8174 4.34408 14.8749 4.432 14.909C4.51992 14.9432 4.61551 14.9526 4.70838 14.9362L6.20838 14.6723L6.9729 15.9904C7.0181 16.0687 7.08307 16.1337 7.16131 16.179C7.23954 16.2243 7.3283 16.2482 7.4187 16.2484H7.44193C7.53619 16.2441 7.62747 16.2141 7.70584 16.1615C7.78421 16.109 7.84668 16.0359 7.88645 15.9504L9.3058 12.8975C9.42824 12.8547 9.55579 12.8282 9.68515 12.8188C9.81371 12.8188 9.99669 12.8751 10.3585 12.9865L10.3585 12.9865L10.3626 12.9878L10.431 13.0084L11.4445 15.3549C11.4818 15.4414 11.5422 15.5161 11.6189 15.5708C11.6957 15.6255 11.786 15.6582 11.88 15.6652H11.9187C12.0064 15.6651 12.0927 15.6427 12.1693 15.6C12.246 15.5574 12.3105 15.4959 12.3568 15.4213L13.16 14.1291L14.651 14.4349C14.7433 14.4539 14.8391 14.4472 14.9279 14.4156C15.0168 14.3839 15.0952 14.3286 15.1548 14.2555C15.2143 14.1824 15.2526 14.0943 15.2655 14.001C15.2785 13.9076 15.2657 13.8124 15.2284 13.7258L14.1026 11.1097C14.4221 10.9662 14.6871 10.724 14.8589 10.4187C15.0306 10.1135 15.0999 9.76118 15.0568 9.41359C15.0466 9.32849 15.0368 9.24972 15.0277 9.17666L15.0276 9.17643L15.0155 9.07876L15.0144 9.07054C14.968 8.69858 14.9447 8.51138 14.9671 8.38521C14.9893 8.26035 15.0799 8.08319 15.2428 7.76503L15.2516 7.74779C15.2974 7.6594 15.3477 7.56134 15.4032 7.45101C15.566 7.13329 15.6205 6.7711 15.5586 6.41953C15.4966 6.06796 15.3215 5.74623 15.06 5.50327C14.9927 5.43979 14.9303 5.38195 14.8726 5.32845L14.8725 5.32831L14.8135 5.2736L14.8043 5.265L14.8042 5.265C14.5317 5.01265 14.3941 4.88524 14.3297 4.7736C14.2672 4.6653 14.2237 4.47807 14.1462 4.1447L14.1462 4.14469L14.1361 4.10134C14.1142 4.00457 14.0897 3.89747 14.0619 3.77876C13.9827 3.43129 13.7923 3.11914 13.5196 2.88965C13.2469 2.66017 12.9069 2.52588 12.551 2.50715L12.2174 2.49037L12.1999 2.48949C11.8419 2.47135 11.6432 2.46128 11.5232 2.41747C11.4043 2.37406 11.2572 2.26378 10.9682 2.04715L10.9682 2.04714L10.9458 2.03037L10.68 1.8265C10.3953 1.61065 10.0479 1.49381 9.69064 1.49381C9.33339 1.49381 8.98594 1.61065 8.70128 1.8265L8.43483 2.02779L8.43344 2.02885L8.43344 2.02885C8.1305 2.25847 7.97852 2.37366 7.85741 2.41489C7.73612 2.45618 7.53483 2.46908 7.16322 2.48779L6.82838 2.50457C6.47203 2.52275 6.13136 2.6568 5.85817 2.88632C5.58497 3.11585 5.39419 3.4283 5.31483 3.77618L5.25712 4.02699L5.24064 4.09876C5.15806 4.4594 5.11161 4.65876 5.04709 4.77102C4.98437 4.88015 4.8497 5.00514 4.58616 5.24973L4.56322 5.27102L4.50429 5.32572C4.44656 5.37925 4.38414 5.43714 4.31677 5.50069C4.05359 5.74323 3.87719 6.06538 3.81462 6.41777C3.75204 6.77015 3.80673 7.13333 3.97032 7.45166C4.01792 7.54632 4.06144 7.63146 4.10126 7.70935ZM7.36903 14.6181L6.91741 13.8439C6.86435 13.7526 6.78456 13.6798 6.68881 13.6352C6.59305 13.5907 6.48594 13.5766 6.38193 13.5949L5.50129 13.7497L6.42193 11.78C6.48322 11.8684 6.55677 11.982 6.65225 12.1304L6.69533 12.1969C6.73729 12.2618 6.7828 12.3321 6.8329 12.4084C6.96716 12.6159 7.14668 12.7903 7.35798 12.9184C7.56928 13.0466 7.80686 13.1252 8.0529 13.1484L7.36903 14.6181ZM13.0148 13.0471C12.9115 13.026 12.8041 13.0371 12.7072 13.0788C12.6103 13.1206 12.5285 13.191 12.4729 13.2807L12.0006 14.0413L11.5948 13.0994C11.9847 12.9934 12.3219 12.7474 12.5419 12.4084L12.7226 12.1297L12.7279 12.1215C12.9252 11.8157 13.0344 11.6464 13.1329 11.5639C13.1426 11.5555 13.1529 11.5478 13.1639 11.54L13.891 13.2258L13.0148 13.0471ZM5.02064 6.25811L5.02493 6.2541L5.02501 6.25403C5.11292 6.17181 5.19149 6.09832 5.26258 6.03295C5.97225 5.37489 6.02709 5.28005 6.24322 4.33295C6.26244 4.24795 6.28428 4.15401 6.30874 4.04877L6.31677 4.01424C6.34533 3.88351 6.41642 3.76594 6.51891 3.6799C6.6214 3.59387 6.74952 3.54423 6.88322 3.53876C7.00516 3.53166 7.11354 3.5265 7.21096 3.52199C8.1787 3.47424 8.28257 3.43618 9.05483 2.85102L9.08417 2.82876C9.15396 2.77581 9.23091 2.71743 9.31677 2.6536C9.42308 2.57135 9.55333 2.52605 9.68773 2.52457C9.82214 2.52605 9.95239 2.57135 10.0587 2.6536L10.3206 2.85102C11.0948 3.43682 11.1955 3.47424 12.1645 3.52199C12.2619 3.5265 12.3703 3.53166 12.491 3.53876C12.625 3.54413 12.7535 3.59387 12.8563 3.68016C12.959 3.76645 13.0302 3.88441 13.0587 4.01553C13.0754 4.08663 13.0907 4.15305 13.105 4.21521L13.1051 4.21552L13.1322 4.33295C13.3477 5.28005 13.4032 5.37489 14.1129 6.03295L14.3574 6.25811C14.4566 6.34847 14.5231 6.46915 14.5464 6.60128C14.5697 6.73341 14.5487 6.86956 14.4864 6.98843L14.3381 7.28005C13.8948 8.14263 13.8755 8.25101 13.9955 9.20972C14.0077 9.30779 14.0213 9.41682 14.0361 9.5394C14.0546 9.67286 14.0282 9.80869 13.9611 9.92549C13.8939 10.0423 13.7898 10.1334 13.6651 10.1846L13.3632 10.3136C12.4703 10.6897 12.3864 10.76 11.86 11.5762L11.6826 11.8497C11.6106 11.9632 11.503 12.0496 11.3767 12.0953C11.2504 12.1411 11.1124 12.1437 10.9845 12.1026L10.6716 12.0071C9.7458 11.722 9.63612 11.722 8.70967 12.0071L8.61999 12.0348L8.61993 12.0349C8.55201 12.056 8.47881 12.0787 8.39677 12.1026C8.26892 12.1436 8.13109 12.141 8.00488 12.0953C7.87866 12.0495 7.77121 11.9631 7.69935 11.8497C7.63483 11.7484 7.57483 11.6562 7.52193 11.5768C6.99548 10.7607 6.91096 10.6897 6.01677 10.3136L5.71483 10.1846C5.59042 10.1332 5.48658 10.042 5.41967 9.9252C5.35275 9.80841 5.32654 9.6727 5.34516 9.5394L5.35571 9.45331L5.35572 9.45326C5.36627 9.36708 5.3759 9.28845 5.38516 9.21682C5.50516 8.25424 5.48645 8.14585 5.0458 7.2865L4.89483 6.98972C4.83146 6.87115 4.80943 6.73484 4.83221 6.60233C4.85499 6.46983 4.9213 6.34871 5.02064 6.25811ZM23.4187 26.7097L27.3697 22.7587C27.4296 22.6988 27.5007 22.6512 27.5791 22.6187C27.6574 22.5862 27.7413 22.5695 27.8261 22.5695C27.9109 22.5695 27.9948 22.5862 28.0732 22.6187C28.1515 22.6512 28.2226 22.6988 28.2826 22.7587C28.4035 22.8797 28.4715 23.0438 28.4715 23.2149C28.4715 23.3859 28.4035 23.55 28.2826 23.671L23.9864 27.9671C23.9119 28.0417 23.8234 28.1008 23.7259 28.1411C23.6285 28.1814 23.5241 28.2021 23.4187 28.202C23.3133 28.2022 23.209 28.1816 23.1117 28.1412C23.0143 28.1009 22.9259 28.0418 22.8516 27.9671L20.9232 26.0387C20.8023 25.9178 20.7343 25.7537 20.7343 25.5826C20.7343 25.4115 20.8023 25.2475 20.9232 25.1265C21.0442 25.0055 21.2083 24.9376 21.3793 24.9376C21.5504 24.9376 21.7145 25.0055 21.8355 25.1265L23.4187 26.7097Z" fill="#1B365D"/>
</g>
<defs>
<clipPath id="clip0_350_3725">
<rect width="32" height="32" fill="white"/>
</clipPath>
</defs>
</svg>
