<svg width="32" height="32" viewBox="0 0 32 32" fill="none" xmlns="http://www.w3.org/2000/svg">
<path fill-rule="evenodd" clip-rule="evenodd" d="M8.85669 0.002426L27.3217 1.23749C27.9171 1.2773 28.3799 1.80636 28.34 2.40186L26.5654 28.9341C26.5264 29.5179 25.9825 29.9907 25.4011 29.9524L21.7585 29.7087C21.7357 29.7072 21.7136 29.7036 21.6919 29.6989L19.5583 31.8231C19.4714 31.9096 19.3501 31.9597 19.2276 31.9597H5.09375C4.49069 31.9597 4 31.469 4 30.8659V4.2743C4 3.67124 4.49069 3.18055 5.09375 3.18055H7.54794L7.69237 1.02074C7.73269 0.418988 8.25475 -0.037449 8.85669 0.002426ZM19.6963 27.1001V30.3564L23.0963 26.9439H19.8526C19.7664 26.9439 19.6963 27.014 19.6963 27.1001ZM25.4638 29.017C25.5593 29.0144 25.6147 28.9659 25.63 28.8716L27.4046 2.33924C27.402 2.24361 27.3535 2.18818 27.2591 2.17293L8.79406 0.937926C8.69844 0.940489 8.643 0.988926 8.62775 1.08336L8.4875 3.18061H16.2292C16.8353 3.18061 16.8353 4.11811 16.2292 4.11811H5.09375C5.00762 4.11811 4.9375 4.18824 4.9375 4.27436V30.8659C4.9375 30.9521 5.00762 31.0222 5.09375 31.0222H18.7588V27.1001C18.7588 26.4971 19.2495 26.0064 19.8526 26.0064H23.7563V4.27436C23.7563 4.18824 23.6863 4.11811 23.6001 4.11811H18.7255C18.1194 4.11811 18.1194 3.18061 18.7255 3.18061H23.6001C24.2031 3.18061 24.6938 3.6713 24.6938 4.27436V26.5156C24.6938 26.6403 24.6441 26.7599 24.5557 26.8478L22.5713 28.8235L25.4638 29.017ZM7.95459 14.7953H20.7392C20.9981 14.7953 21.2079 15.0052 21.2079 15.264C21.2079 15.5229 20.9981 15.7328 20.7392 15.7328H7.95459C7.69571 15.7328 7.48584 15.5229 7.48584 15.264C7.48584 15.0052 7.69571 14.7953 7.95459 14.7953ZM20.7392 18.0631H7.95459C7.69571 18.0631 7.48584 18.273 7.48584 18.5319C7.48584 18.7907 7.69571 19.0006 7.95459 19.0006H20.7392C20.9981 19.0006 21.2079 18.7907 21.2079 18.5319C21.2079 18.273 20.9981 18.0631 20.7392 18.0631ZM7.95459 12.465C7.69571 12.465 7.48584 12.2551 7.48584 11.9962C7.48584 11.7373 7.69571 11.5275 7.95459 11.5275H20.7392C20.9981 11.5275 21.2079 11.7373 21.2079 11.9962C21.2079 12.2551 20.9981 12.465 20.7392 12.465H7.95459ZM9.73792 8.72839C9.73792 8.98727 9.94779 9.19714 10.2067 9.19714H18.4871C18.746 9.19714 18.9559 8.98727 18.9559 8.72839C18.9559 8.46952 18.746 8.25964 18.4871 8.25964H10.2067C9.94779 8.25964 9.73792 8.46952 9.73792 8.72839ZM13.643 27.4094C14.4861 27.4081 15.3291 27.4063 16.1722 27.4041C16.7765 27.4025 16.7754 28.34 16.1723 28.3416C15.1956 28.3441 14.219 28.3463 13.2423 28.3475C13.1965 28.3476 13.1505 28.3478 13.1044 28.3481C12.4596 28.3516 11.7904 28.3552 11.3308 27.8241C11.1863 27.9829 11.0218 28.1191 10.8456 28.2149C9.89852 28.7298 9.2339 27.8561 8.91265 27.0836C8.73977 27.6741 8.50752 28.2464 8.27558 28.8157C8.05077 29.3674 7.1434 29.1265 7.37158 28.5664L7.37483 28.5585C7.63551 27.9187 7.89775 27.275 8.07296 26.6054C8.24352 25.9538 8.30627 25.2925 8.3249 24.6206C8.33902 24.1103 9.1494 23.9601 9.24565 24.4959C9.27224 24.644 9.2966 24.7937 9.32105 24.9438C9.417 25.5332 9.51434 26.1311 9.75327 26.6772C10.0538 27.364 10.5903 27.7641 10.9146 26.743C11.0459 26.3297 11.7214 26.2655 11.8186 26.743C11.9336 27.3078 12.2796 27.4108 12.793 27.4104C13.0763 27.4103 13.3596 27.4099 13.643 27.4094Z" fill="#1B365D"/>
</svg>
