<svg width="32" height="32" viewBox="0 0 32 32" fill="none" xmlns="http://www.w3.org/2000/svg">
<path d="M27.7718 7.23479C27.6307 6.32825 26.8621 5.63098 25.9454 5.57744C23.9058 5.45754 18.8515 4.88636 15.9832 2.18045C15.8491 2.05392 15.6762 1.99463 15.5049 2.00038C15.3337 1.99463 15.1607 2.05348 15.0262 2.18001C12.1584 4.88636 7.10405 5.45754 5.064 5.57744C4.14728 5.63142 3.37922 6.32825 3.23808 7.23479C2.69433 10.7234 1.94795 22.6407 15.1758 29.5152C15.3567 29.6094 15.6332 29.62 15.8341 29.5152C29.0615 22.6407 28.3155 10.7234 27.7718 7.23479ZM15.5049 28.1821C3.36373 21.6939 4.04419 10.6813 4.54945 7.43919C4.59546 7.14542 4.84455 6.92022 5.14186 6.90252C7.23191 6.77953 12.2823 6.19817 15.5049 3.51792C18.7276 6.19817 23.778 6.77953 25.868 6.90252C26.1658 6.92022 26.4144 7.14542 26.4604 7.43919C26.9657 10.6813 27.6466 21.6939 15.5049 28.1821Z" fill="#1B365D"/>
<path d="M20.038 9.12265C18.4165 8.64836 16.6057 9.23989 15.5049 10.5163C14.3639 9.19299 12.6605 8.62801 10.9717 9.12265C9.40377 9.58145 8.39591 10.695 8.13399 12.2586C7.92251 13.5195 8.12293 14.7517 8.74587 16.0259C9.19627 16.9475 9.85859 17.685 10.4979 18.3619C11.6566 19.5879 12.6353 20.4192 13.5812 21.2236C14.0497 21.6213 14.5338 22.0328 15.0293 22.485C15.2784 22.7124 15.7301 22.7124 15.9796 22.485C16.4752 22.0332 16.9596 21.6218 17.4277 21.2236C18.3741 20.4197 19.3523 19.5884 20.511 18.3619C21.1229 17.7151 21.8126 16.9479 22.2635 16.0259C22.886 14.7517 23.086 13.5191 22.8754 12.259C22.6139 10.695 21.606 9.58145 20.038 9.12265ZM21.0716 15.4432C20.703 16.1971 20.1164 16.8479 19.5474 17.4505C18.4382 18.6234 17.5299 19.3955 16.5694 20.2122C16.2247 20.5051 15.8681 20.8126 15.5053 21.1324C15.1425 20.8126 14.7859 20.5051 14.4413 20.2122C13.4799 19.395 12.572 18.6234 11.4628 17.4505C10.8939 16.8484 10.3072 16.1971 9.93867 15.4432C9.44138 14.4265 9.27945 13.4563 9.44359 12.478C9.62189 11.414 10.2612 10.7136 11.3443 10.3968C12.4919 10.0615 13.4794 10.334 14.3634 11.2299C14.4975 11.3658 14.6276 11.5308 14.7652 11.7056C15.247 12.3161 15.7288 12.3617 16.2451 11.7056C16.3827 11.5308 16.5123 11.3658 16.6468 11.2299C17.5308 10.3336 18.5183 10.061 19.6655 10.3968C20.7486 10.7136 21.3888 11.4136 21.5667 12.478C21.7303 13.4558 21.5684 14.4256 21.0716 15.4432Z" fill="#1B365D"/>
<path d="M17.0467 15.1308H16.1684V14.2521C16.1684 13.8854 15.8716 13.5885 15.5048 13.5885C15.138 13.5885 14.8411 13.8854 14.8411 14.2521V15.1308H13.9625C13.5957 15.1308 13.2988 15.4277 13.2988 15.7945C13.2988 16.1612 13.5957 16.4581 13.9625 16.4581H14.8411V17.3363C14.8411 17.7027 15.138 18 15.5048 18C15.8716 18 16.1684 17.7027 16.1684 17.3363V16.4581H17.0467C17.413 16.4581 17.7103 16.1612 17.7103 15.7945C17.7103 15.4281 17.413 15.1308 17.0467 15.1308Z" fill="#1B365D"/>
</svg>
