<svg width="32" height="32" viewBox="0 0 32 32" fill="none" xmlns="http://www.w3.org/2000/svg">
<path fill-rule="evenodd" clip-rule="evenodd" d="M16 2.99997C15.5793 2.99997 15.2383 3.34102 15.2383 3.76169V6.85936C15.2383 7.28003 15.5793 7.62108 16 7.62108C16.4207 7.62108 16.7617 7.28003 16.7617 6.85936V3.76169C16.7617 3.34102 16.4207 2.99997 16 2.99997ZM10.0752 8.99798L7.92066 6.84353C7.62324 6.54606 7.14091 6.54606 6.84344 6.84353C6.54596 7.14101 6.54596 7.62328 6.84344 7.92076L8.99794 10.0752C9.29536 10.3727 9.77774 10.3727 10.0752 10.0752C10.3726 9.77773 10.3726 9.29546 10.0752 8.99798ZM14.3607 9.33543C11.9218 9.90408 9.95859 11.8382 9.35906 14.2628C8.75766 16.6952 9.44595 19.1745 11.2003 20.8949C11.8209 21.5035 12.1914 22.479 12.1914 23.5043V23.668C12.1914 24.3431 12.486 24.9507 12.9532 25.3694V26.7148C12.9532 27.9749 13.9783 29 15.2383 29H16.7618C18.0218 29 19.0469 27.9749 19.0469 26.7148V25.3694C19.5141 24.9507 19.8086 24.3432 19.8086 23.668V23.5013C19.8086 22.4916 20.199 21.4976 20.8529 20.8423C22.1443 19.5481 22.8555 17.8284 22.8555 16C22.8555 11.6288 18.8048 8.29959 14.3607 9.33543ZM17.5235 26.7148C17.5235 27.1349 17.1818 27.4766 16.7618 27.4766H15.2383C14.8183 27.4766 14.4766 27.1349 14.4766 26.7148V25.9531H17.5235V26.7148ZM19.7744 19.7662C18.828 20.7147 18.2852 22.076 18.2852 23.5013V23.668C18.2852 24.088 17.9435 24.4297 17.5235 24.4297H14.4766C14.0566 24.4297 13.7149 24.088 13.7149 23.668V23.5043C13.7149 22.0571 13.1871 20.7095 12.267 19.8072C10.9014 18.4681 10.3673 16.5322 10.8379 14.6285C11.3013 12.7543 12.8199 11.259 14.7066 10.8191C18.1939 10.0059 21.3321 12.6092 21.3321 16C21.3321 17.4221 20.7789 18.7596 19.7744 19.7662ZM3.7617 15.2383H6.85936C7.28003 15.2383 7.62108 15.5793 7.62108 16C7.62108 16.4207 7.28003 16.7617 6.85936 16.7617H3.7617C3.34102 16.7617 2.99998 16.4207 2.99998 16C2.99998 15.5793 3.34102 15.2383 3.7617 15.2383ZM28.2383 15.2383H25.1406C24.72 15.2383 24.3789 15.5793 24.3789 16C24.3789 16.4207 24.72 16.7617 25.1406 16.7617H28.2383C28.659 16.7617 29 16.4207 29 16C29 15.5793 28.659 15.2383 28.2383 15.2383ZM24.0793 6.84353C24.3768 6.54606 24.8591 6.54606 25.1565 6.84353C25.454 7.14101 25.454 7.62333 25.1565 7.92076L23.002 10.0752C22.7045 10.3727 22.2222 10.3727 21.9248 10.0752C21.6273 9.77773 21.6273 9.29541 21.9248 8.99798L24.0793 6.84353ZM15.0525 12.3028C15.3679 12.2289 15.6868 12.1914 16 12.1914C16.4206 12.1914 16.7617 12.5324 16.7617 12.9531C16.7617 13.3738 16.4206 13.7148 16 13.7148C15.8037 13.7148 15.6016 13.7389 15.3994 13.7862C14.6404 13.9634 13.9809 14.6105 13.795 15.3599C13.6938 15.7681 13.2807 16.0171 12.8723 15.9159C12.4641 15.8145 12.2152 15.4015 12.3164 14.9932C12.6395 13.6906 13.739 12.6094 15.0525 12.3028Z" fill="#1B365D"/>
</svg>
