<svg width="32" height="32" viewBox="0 0 32 32" fill="none" xmlns="http://www.w3.org/2000/svg">
<path d="M28.6 7.33333H22.5333V5.40741C22.5317 4.0784 21.4881 3.00165 20.2 3H11.8C10.5119 3.00165 9.46826 4.0784 9.46667 5.40741V7.33333H3.4C2.62686 7.33333 2 7.98009 2 8.77778V19.4954C2.00296 20.1062 2.37598 20.6495 2.93333 20.8548V27.5556C2.93333 28.3532 3.56019 29 4.33333 29H27.6667C28.4398 29 29.0667 28.3532 29.0667 27.5556V20.8553C29.624 20.6498 29.9973 20.1062 30 19.4954V8.77778C30 7.98009 29.3731 7.33333 28.6 7.33333ZM10.4 5.40741C10.4 4.60972 11.0269 3.96296 11.8 3.96296H20.2C20.9731 3.96296 21.6 4.60972 21.6 5.40741V7.33333H20.6667V5.40741C20.6667 5.14151 20.4577 4.92593 20.2 4.92593H11.8C11.5423 4.92593 11.3333 5.14151 11.3333 5.40741V7.33333H10.4V5.40741ZM19.7333 7.33333H12.2667V5.88889H19.7333V7.33333ZM28.1333 27.5556C28.1333 27.8215 27.9244 28.037 27.6667 28.037H4.33333C4.07562 28.037 3.86667 27.8215 3.86667 27.5556V21.0203L14.1333 22.4812V23.7037C14.1333 24.5014 14.7602 25.1481 15.5333 25.1481H16.4667C17.2398 25.1481 17.8667 24.5014 17.8667 23.7037V22.4812L28.1333 21.0203V27.5556ZM16.9333 23.7037C16.9333 23.9696 16.7244 24.1852 16.4667 24.1852H15.5333C15.2756 24.1852 15.0667 23.9696 15.0667 23.7037V20.8148C15.0667 20.5489 15.2756 20.3333 15.5333 20.3333H16.4667C16.7244 20.3333 16.9333 20.5489 16.9333 20.8148V23.7037ZM29.0667 19.4954C29.0669 19.7355 28.8958 19.9391 28.6654 19.9727L28.536 19.991L17.8667 21.5091V20.8148C17.8667 20.0171 17.2398 19.3704 16.4667 19.3704H15.5333C14.7602 19.3704 14.1333 20.0171 14.1333 20.8148V21.5091L3.33506 19.9727C3.10469 19.9393 2.93311 19.7357 2.93333 19.4954V8.77778C2.93333 8.51188 3.14229 8.2963 3.4 8.2963H28.6C28.8577 8.2963 29.0667 8.51188 29.0667 8.77778V19.4954Z" fill="#1B365D"/>
</svg>
