<svg width="32" height="32" viewBox="0 0 32 32" fill="none" xmlns="http://www.w3.org/2000/svg">
<path d="M31 27.4963V12.6564C31 12.215 30.8269 11.7916 30.5187 11.4792C30.2106 11.1667 29.7925 10.9908 29.3562 10.99H13.9062C14.2976 10.1529 14.5287 9.24839 14.5875 8.32428C14.5875 6.64698 13.929 5.03837 12.7569 3.85234C11.5848 2.66631 9.9951 2 8.3375 2C6.6799 2 5.09018 2.66631 3.91808 3.85234C2.74598 5.03837 2.0875 6.64698 2.0875 8.32428C2.14641 9.248 2.37645 10.1523 2.76562 10.99H2.64062C2.20493 10.9916 1.78765 11.168 1.48015 11.4803C1.17265 11.7926 0.999997 12.2155 1 12.6564V15.9356V29.3336C1 29.7755 1.17351 30.1994 1.48236 30.5119C1.79121 30.8244 2.2101 31 2.64688 31H29.3531C29.7899 31 30.2088 30.8244 30.5176 30.5119C30.8265 30.1994 31 29.7755 31 29.3336V27.4963ZM30.375 26.7343L23.1875 19.4613L30.375 19.9831V26.7343ZM30.375 12.6564V19.3507L22.5875 18.7783C22.5606 18.7735 22.5331 18.7735 22.5062 18.7783L18.375 14.6075L22.8156 11.6224H29.3531C29.6241 11.6224 29.8841 11.7313 30.0757 11.9253C30.2673 12.1192 30.375 12.3822 30.375 12.6564ZM9.91875 23.8947L12.3625 18.6518L17.8438 14.9648L22.1125 19.2779L16.3469 30.1652L9.91875 23.8947ZM15.6563 30.3676H6.90625L9.6375 24.4986L15.6563 30.3676ZM17.9219 14.1521L15.4219 11.6224H21.6875L17.9219 14.1521ZM8.34062 2.64191C9.07931 2.64191 9.81076 2.78914 10.4932 3.07518C11.1757 3.36122 11.7958 3.78048 12.3181 4.30902C12.8404 4.83756 13.2548 5.46502 13.5374 6.15559C13.8201 6.84616 13.9656 7.5863 13.9656 8.33377C13.9656 9.01995 13.6906 9.97808 13.1469 11.1797C12.9219 11.692 12.6437 12.2453 12.3 12.8809C11.1049 15.0251 9.78382 17.0947 8.34375 19.0787C6.90275 17.096 5.58259 15.0263 4.39063 12.8809L4.14687 12.4224C3.9125 11.9797 3.7125 11.5686 3.54063 11.1797C3 9.96543 2.72812 9.00731 2.72812 8.33377C2.72812 6.82638 3.31904 5.38055 4.37123 4.31349C5.42342 3.24642 6.85095 2.64526 8.34062 2.64191ZM2.65 11.6224H3.05C3.07188 11.6698 3.09688 11.7173 3.11563 11.7615C3.13438 11.8058 3.15937 11.8564 3.18437 11.9038C3.20937 11.9513 3.27188 12.0872 3.31875 12.1789L3.38125 12.3086L3.55313 12.6438L3.6 12.7291C3.675 12.8778 3.75625 13.0264 3.84063 13.1813C5.11767 15.4751 6.53718 17.6846 8.09063 19.7965C8.11979 19.8352 8.15738 19.8666 8.20047 19.8881C8.24356 19.9097 8.29099 19.9209 8.33906 19.9209C8.38714 19.9209 8.43457 19.9097 8.47766 19.8881C8.52075 19.8666 8.55834 19.8352 8.5875 19.7965C10.1417 17.6838 11.5632 15.4744 12.8438 13.1813C12.9281 13.0295 13.0062 12.8651 13.0812 12.7355C13.1094 12.688 13.1313 12.6406 13.1563 12.5932C13.2063 12.4983 13.2531 12.4034 13.3 12.3086L13.375 12.16L13.5 11.9007L13.5656 11.7615L13.6312 11.6224H14.5344L17.3906 14.5094L11.9375 18.1712C11.8891 18.2024 11.851 18.2475 11.8281 18.3008L9.4375 23.433L1.625 15.8059V12.6438C1.62829 12.3712 1.73784 12.1109 1.92979 11.9197C2.12175 11.7284 2.38059 11.6215 2.65 11.6224ZM1.625 29.3336V16.685L9.1625 24.037L6.21563 30.3612H2.65C2.37952 30.3621 2.11974 30.2544 1.92761 30.0617C1.73547 29.8691 1.62665 29.6072 1.625 29.3336ZM29.35 30.3676H16.9375L22.5625 19.7459L30.375 27.6292V29.3336C30.375 29.6078 30.2673 29.8708 30.0757 30.0647C29.8841 30.2586 29.6241 30.3676 29.3531 30.3676H29.35ZM8.33125 11.0437C8.86168 11.0456 9.38074 10.8882 9.82277 10.5915C10.2648 10.2948 10.6099 9.87214 10.8145 9.37692C11.019 8.8817 11.0738 8.33621 10.9719 7.80947C10.87 7.28272 10.616 6.7984 10.2421 6.41776C9.86809 6.03713 9.39094 5.77729 8.87099 5.67112C8.35104 5.56494 7.81164 5.61721 7.32106 5.82131C6.83047 6.02541 6.41073 6.37216 6.11494 6.8177C5.81916 7.26324 5.66061 7.78755 5.65937 8.32428C5.661 9.04229 5.94253 9.73064 6.4428 10.2398C6.94308 10.749 7.6217 11.0379 8.33125 11.0437ZM8.33125 6.25308C8.73873 6.2512 9.13757 6.37188 9.47715 6.59978C9.81674 6.82769 10.0817 7.15255 10.2385 7.53313C10.3953 7.91371 10.4368 8.33285 10.3578 8.73735C10.2788 9.14184 10.0827 9.51346 9.79459 9.80502C9.50646 10.0966 9.13921 10.2949 8.73946 10.3749C8.33972 10.4549 7.9255 10.4129 7.54939 10.2542C7.17328 10.0956 6.85224 9.82742 6.62701 9.48381C6.40178 9.14019 6.28252 8.73661 6.28437 8.32428C6.28765 7.77599 6.50436 7.2511 6.88751 6.86339C7.27067 6.47568 7.7894 6.2564 8.33125 6.25308Z" fill="#1B365D" stroke="#1B365D" stroke-width="0.3"/>
</svg>
