<svg width="16" height="16" viewBox="0 0 16 16" fill="none" xmlns="http://www.w3.org/2000/svg">
<path d="M13.7887 4.30175L9.57956 0.092625C9.52025 0.0333125 9.43984 0 9.35593 0H3.4249C2.70462 0 2.11865 0.585969 2.11865 1.30625V14.6938C2.11865 15.414 2.70462 16 3.4249 16H12.575C13.2953 16 13.8813 15.414 13.8813 14.6938V4.52534C13.8813 4.4415 13.848 4.36103 13.7887 4.30175ZM9.67218 1.07966L12.8017 4.20906H10.346C9.97443 4.20906 9.67221 3.90681 9.67221 3.53525V1.07966H9.67218ZM13.2488 14.6938C13.2488 15.0653 12.9466 15.3676 12.575 15.3676H3.4249C3.05337 15.3676 2.75109 15.0653 2.75109 14.6938V1.30625C2.75109 0.934719 3.05337 0.632438 3.4249 0.632438H9.03971V3.53531C9.03971 4.25559 9.62565 4.84156 10.3459 4.84156H13.2488V14.6938Z" fill="#232222"/>
<path d="M10.5298 8.03174H5.47052C5.29589 8.03174 5.1543 8.17333 5.1543 8.34796C5.1543 8.52258 5.29589 8.66418 5.47052 8.66418H10.5298C10.7045 8.66418 10.846 8.52258 10.846 8.34796C10.846 8.17333 10.7045 8.03174 10.5298 8.03174Z" fill="#232222"/>
<path d="M10.5298 9.44409H5.47052C5.29589 9.44409 5.1543 9.58569 5.1543 9.76031C5.1543 9.93494 5.29589 10.0765 5.47052 10.0765H10.5298C10.7045 10.0765 10.846 9.93494 10.846 9.76031C10.846 9.58569 10.7045 9.44409 10.5298 9.44409Z" fill="#232222"/>
<path d="M10.5298 10.8564H5.47052C5.29589 10.8564 5.1543 10.998 5.1543 11.1727C5.1543 11.3473 5.29589 11.4889 5.47052 11.4889H10.5298C10.7045 11.4889 10.846 11.3473 10.846 11.1727C10.846 10.998 10.7045 10.8564 10.5298 10.8564Z" fill="#232222"/>
<path d="M8.88555 12.2688H5.47052C5.29589 12.2688 5.1543 12.4104 5.1543 12.585C5.1543 12.7596 5.29589 12.9012 5.47052 12.9012H8.88555C9.06023 12.9012 9.20177 12.7596 9.20177 12.585C9.20177 12.4104 9.06023 12.2688 8.88555 12.2688Z" fill="#232222"/>
</svg>
