<svg width="32" height="32" viewBox="0 0 32 32" fill="none" xmlns="http://www.w3.org/2000/svg">
<g clip-path="url(#clip0_466_3528)">
<path d="M27.3206 4.6833C21.0815 -1.55589 10.9263 -1.55589 4.68711 4.6833C1.66483 7.70676 0 11.7257 0 16C0 20.2743 1.66483 24.2933 4.68711 27.3156C7.80733 30.4358 11.9056 31.9952 16.0038 31.9952C20.1021 31.9952 24.2004 30.4358 27.3206 27.3156C33.5598 21.0764 33.5598 10.9237 27.3206 4.6833ZM25.5677 25.5627C20.2943 30.8362 11.7134 30.8362 6.43994 25.5627C3.88629 23.009 2.47927 19.6124 2.47927 16C2.47927 12.3877 3.88629 8.99102 6.43994 6.43613C11.7134 1.16264 20.2943 1.16389 25.5677 6.43613C30.84 11.7096 30.84 20.2904 25.5677 25.5627Z" fill="#595959"/>
<path d="M21.3453 19.4268L17.8358 15.9223L21.3453 12.4178C21.8287 11.9344 21.8287 11.1497 21.3466 10.6649C20.8619 10.179 20.0772 10.1802 19.5925 10.6637L16.0806 14.1706L12.5687 10.6637C12.084 10.1802 11.2993 10.179 10.8146 10.6649C10.3311 11.1496 10.3311 11.9343 10.8158 12.4178L14.3253 15.9223L10.8158 19.4268C10.3311 19.9102 10.3311 20.6949 10.8146 21.1797C11.0563 21.4226 11.3749 21.5428 11.6923 21.5428C12.0096 21.5428 12.327 21.4213 12.5687 21.1808L16.0806 17.6739L19.5925 21.1808C19.8343 21.4226 20.1516 21.5428 20.469 21.5428C20.7864 21.5428 21.1049 21.4213 21.3467 21.1797C21.83 20.6949 21.83 19.9102 21.3453 19.4268Z" fill="#595959"/>
</g>
<defs>
<clipPath id="clip0_466_3528">
<rect width="32" height="32" fill="white"/>
</clipPath>
</defs>
</svg>
