<svg width="48" height="48" viewBox="0 0 48 48" fill="none" xmlns="http://www.w3.org/2000/svg">
<path fill-rule="evenodd" clip-rule="evenodd" d="M36.8169 15.6563L44.8826 22.5441C45.2783 22.8833 45.3255 23.477 44.9957 23.8727C44.6565 24.2684 44.0628 24.3156 43.6671 23.9764L34.9701 16.5702L30.6263 12.8766L23.3616 6.68602L3.06545 23.9669L3.0466 23.9858C2.64144 24.3156 2.04782 24.2684 1.71803 23.8633C1.38824 23.4581 1.43535 22.8645 1.84052 22.5347L22.7491 4.72614C23.1072 4.42462 23.6254 4.42462 23.974 4.72614L30.4285 10.2289V6.49757C30.4285 5.96991 30.8525 5.50821 31.3707 5.50821H35.8747C36.4118 5.52705 36.8358 5.96049 36.8452 6.49757V15.5055C36.8358 15.562 36.8263 15.6092 36.8169 15.6563ZM32.313 11.8401L34.9513 14.0639V7.40214H32.313V11.8401ZM38.0796 22.1861L40.7274 24.4475C41.1231 24.7773 41.1796 25.3709 40.831 25.7761C40.652 25.9834 40.3881 26.1059 40.1149 26.1059C39.8887 26.1059 39.6814 26.021 39.5118 25.8797L38.334 24.8621V42.5293C38.3246 43.0664 37.8912 43.4904 37.3635 43.4998H9.35036C8.82269 43.4904 8.38926 43.057 8.37984 42.5293V24.8621L7.20202 25.8797L7.1926 25.8891C6.80627 26.2189 6.22208 26.1718 5.89229 25.7761C5.55308 25.3803 5.60019 24.7867 5.99594 24.4475L8.64367 22.1861L22.7492 10.1347C23.1072 9.83316 23.6255 9.83316 23.9741 10.1347L38.0796 22.1861ZM19.5926 31.4296V41.6059H27.1307V31.4296H19.5926ZM29.0152 30.5156V41.6059H36.459V23.2508L23.3616 12.0946L10.2643 23.2508V41.6059H17.7081V30.5156C17.7081 29.9974 18.0945 29.5451 18.6127 29.5451H28.1106C28.6288 29.5451 29.0152 29.9974 29.0152 30.5156Z" fill="#595959"/>
</svg>
