<svg width="148" height="60" viewBox="0 0 148 60" fill="none" xmlns="http://www.w3.org/2000/svg">
<path d="M25.5617 60L25.2136 59.8472C24.3031 59.4422 23.3829 58.9911 22.4797 58.5061C21.5765 58.0211 20.6393 57.4778 19.7483 56.9127L19.3539 56.6702V40.3776H21.058V55.7365C21.7883 56.1876 22.5357 56.6169 23.2855 57.017C24.0353 57.4172 24.8022 57.8003 25.5617 58.1471C26.3213 57.8003 27.0833 57.4196 27.8355 57.0194C28.5877 56.6193 29.3351 56.1876 30.0655 55.7365V40.3776H31.7696V56.6702L31.3752 56.9127C30.4842 57.4778 29.564 58.0138 28.6413 58.5061C27.7186 58.9984 26.8203 59.4422 25.9098 59.8472L25.5617 60ZM35.4212 54.0534V35.8837H26.4138V53.6969H24.7097V35.8837H15.7022V54.0534L14.2829 52.7947C8.8222 47.9492 4.7038 41.7864 2.32323 34.8982C-0.0573444 28.0099 -0.620122 20.6276 0.68895 13.4602L0.871534 12.4513L1.83314 12.8224C5.66899 14.2959 9.84058 14.6777 13.8817 13.9252C17.9229 13.1727 21.6744 11.3156 24.717 8.5613V6.92914C23.8806 6.72189 23.1492 6.21696 22.6607 5.50957C22.1723 4.80218 21.9605 3.9412 22.0653 3.08898C22.1701 2.23675 22.5842 1.45215 23.2296 0.883135C23.8751 0.31412 24.7072 0 25.569 0C26.4309 0 27.263 0.31412 27.9084 0.883135C28.5538 1.45215 28.968 2.23675 29.0728 3.08898C29.1776 3.9412 28.9658 4.80218 28.4773 5.50957C27.9888 6.21696 27.2575 6.72189 26.4211 6.92914V8.57101C29.4637 11.3253 33.2152 13.1824 37.2563 13.9349C41.2975 14.6874 45.4691 14.3056 49.3049 12.8321L50.2665 12.4611L50.4491 13.4699C51.7582 20.6373 51.1954 28.0196 48.8148 34.9079C46.4343 41.7961 42.3158 47.9589 36.8551 52.8044L35.4212 54.0534ZM37.1254 35.8837V50.2094C41.7833 45.6628 45.2842 40.0739 47.337 33.9077C49.3898 27.7415 49.9351 21.1762 48.9276 14.7577C45.1414 16.0253 41.0966 16.3265 37.1634 15.6337C33.2301 14.941 29.5342 13.2765 26.4138 10.7925V15.512H33.5954C34.2936 15.512 34.976 15.7182 35.5565 16.1046C36.137 16.491 36.5895 17.0402 36.8567 17.6828C37.1238 18.3253 37.1937 19.0324 37.0575 19.7145C36.9213 20.3967 36.5851 21.0233 36.0915 21.5151C35.5978 22.0069 34.9688 22.3418 34.2841 22.4775C33.5993 22.6132 32.8896 22.5435 32.2446 22.2774C31.5995 22.0112 31.0482 21.5605 30.6604 20.9822C30.2725 20.4039 30.0655 19.724 30.0655 19.0285H31.7696C31.7696 19.3883 31.8767 19.7399 32.0773 20.039C32.2779 20.3382 32.5631 20.5713 32.8967 20.709C33.2303 20.8466 33.5974 20.8826 33.9516 20.8125C34.3058 20.7423 34.6311 20.5691 34.8865 20.3147C35.1418 20.0603 35.3157 19.7362 35.3862 19.3834C35.4566 19.0305 35.4204 18.6648 35.2823 18.3325C35.1441 18.0001 34.91 17.716 34.6098 17.5161C34.3095 17.3163 33.9565 17.2096 33.5954 17.2096H26.4138V31.5183H30.9175V33.216H20.2059V31.5183H24.7097V17.2096H17.528C17.1669 17.2096 16.8139 17.3163 16.5137 17.5161C16.2134 17.716 15.9794 18.0001 15.8412 18.3325C15.703 18.6648 15.6668 19.0305 15.7373 19.3834C15.8077 19.7362 15.9816 20.0603 16.237 20.3147C16.4923 20.5691 16.8176 20.7423 17.1718 20.8125C17.526 20.8826 17.8931 20.8466 18.2268 20.709C18.5604 20.5713 18.8455 20.3382 19.0462 20.039C19.2468 19.7399 19.3539 19.3883 19.3539 19.0285H21.058C21.0581 19.7189 20.8541 20.394 20.4717 20.9697C20.0892 21.5454 19.5451 21.9962 18.9072 22.2659C18.2693 22.5356 17.5658 22.6123 16.8844 22.4865C16.203 22.3606 15.5739 22.0377 15.0755 21.5581C14.5771 21.0784 14.2314 20.4632 14.0816 19.7892C13.9318 19.1152 13.9844 18.4121 14.2329 17.7677C14.4814 17.1232 14.9149 16.5659 15.4792 16.1652C16.0435 15.7646 16.7137 15.5382 17.4063 15.5144H24.7097V10.7949C21.5893 13.2789 17.8933 14.9434 13.9601 15.6362C10.0268 16.3289 5.98202 16.0277 2.19588 14.7602C1.18874 21.1782 1.73424 27.7431 3.78702 33.9088C5.8398 40.0746 9.34052 45.663 13.9981 50.2094V35.8837H12.1722V34.1861H38.9512V35.8837H37.1254ZM25.5617 1.68826C25.2006 1.68826 24.8476 1.79492 24.5473 1.99479C24.2471 2.19465 24.0131 2.47874 23.8749 2.81111C23.7367 3.14347 23.7005 3.50918 23.771 3.86201C23.8414 4.21484 24.0153 4.53896 24.2707 4.79334C24.526 5.04772 24.8513 5.22093 25.2055 5.29111C25.5597 5.3613 25.9268 5.32529 26.2604 5.18762C26.5941 5.04995 26.8792 4.81681 27.0798 4.51769C27.2805 4.21858 27.3876 3.86692 27.3876 3.50717C27.3876 3.02477 27.1952 2.56211 26.8528 2.221C26.5104 1.87989 26.046 1.68826 25.5617 1.68826Z" fill="url(#paint0_linear_1002_3624)"/>
<path d="M61.0462 47.3986H60.625V44.1464H61.0462V45.5118H61.5963C61.6562 45.1025 61.8639 44.7291 62.1806 44.4617C62.4857 44.1984 62.8773 44.0559 63.281 44.0615C63.5085 44.056 63.7345 44.0985 63.9443 44.1863C64.1541 44.2741 64.3429 44.4051 64.4982 44.5708C64.6564 44.7304 64.7809 44.9199 64.8645 45.1281C64.9481 45.3364 64.9891 45.5592 64.9851 45.7834C64.9888 46.0054 64.9476 46.2259 64.864 46.4318C64.7803 46.6376 64.6559 46.8246 64.4982 46.9815C64.3423 47.146 64.1533 47.276 63.9436 47.3629C63.7338 47.4498 63.5081 47.4917 63.281 47.4859C62.8629 47.4907 62.4581 47.3393 62.1465 47.0615C61.9839 46.9179 61.8513 46.7438 61.7564 46.549C61.6616 46.3542 61.6064 46.1427 61.5939 45.9265H61.0437L61.0462 47.3986ZM64.5566 45.7907C64.559 45.6183 64.5269 45.4471 64.4621 45.2872C64.3973 45.1273 64.3012 44.9819 64.1793 44.8594C64.0653 44.7356 63.9266 44.6367 63.7722 44.569C63.6178 44.5013 63.4509 44.4664 63.2822 44.4664C63.1135 44.4664 62.9466 44.5013 62.7922 44.569C62.6378 44.6367 62.4991 44.7356 62.3851 44.8594C62.1444 45.1062 62.0083 45.4359 62.0051 45.78C62.002 46.1241 62.1319 46.4563 62.3681 46.7074C62.61 46.9481 62.9379 47.0833 63.2798 47.0833C63.6216 47.0833 63.9495 46.9481 64.1915 46.7074C64.3105 46.5865 64.4041 46.4431 64.4668 46.2857C64.5295 46.1283 64.56 45.96 64.5566 45.7907Z" fill="#232222"/>
<path d="M65.7666 44.583L66.1829 44.1464V44.7431C66.3332 44.5315 66.5296 44.3566 66.7574 44.2313C66.9833 44.1162 67.234 44.0579 67.4877 44.0616C67.71 44.0585 67.9305 44.1014 68.1354 44.1874C68.3403 44.2733 68.5251 44.4006 68.6782 44.5612C68.8381 44.7195 68.9637 44.9088 69.0475 45.1173C69.1312 45.3259 69.1712 45.5493 69.1651 45.7738C69.1697 45.9981 69.1289 46.221 69.0453 46.4293C68.9616 46.6377 68.8368 46.8271 68.6782 46.9864C68.5269 47.1475 68.3436 47.2754 68.1398 47.3619C67.9361 47.4483 67.7165 47.4914 67.495 47.4884C67.2422 47.4921 66.992 47.4364 66.7647 47.3259C66.5354 47.2076 66.3338 47.0423 66.1731 46.8408V48.5919L65.7568 49.0284L65.7666 44.583ZM67.4463 44.4666C67.2754 44.463 67.1056 44.4948 66.9477 44.5599C66.7897 44.625 66.647 44.7221 66.5286 44.8449C66.4049 44.969 66.3079 45.1168 66.2434 45.2794C66.179 45.442 66.1484 45.616 66.1537 45.7907C66.1503 46.0238 66.2082 46.2538 66.3216 46.4577C66.4347 46.6576 66.6039 46.8203 66.8085 46.9258C67.0076 47.0403 67.2335 47.1005 67.4634 47.1004C67.688 47.1008 67.9084 47.0405 68.1012 46.9258C68.2999 46.809 68.4638 46.6416 68.5759 46.4407C68.6915 46.2408 68.7523 46.0141 68.7523 45.7835C68.7523 45.5528 68.6915 45.3261 68.5759 45.1262C68.4667 44.9255 68.3043 44.7583 68.1065 44.6429C67.9087 44.5275 67.6829 44.4682 67.4537 44.4714L67.4463 44.4666Z" fill="#232222"/>
<path d="M70.3728 44.1464V46.5522L72.7708 44.1464H72.8048V47.3986H72.3837V45.0049L70.0052 47.3889H69.9541V44.1367L70.3728 44.1464Z" fill="#232222"/>
<path d="M73.7665 47.0421L75.0251 44.1464H75.2442L76.5003 47.0421H76.8923V47.8133H76.4857V47.3986H73.7859V47.8327H73.3721V47.0421H73.7665ZM75.1297 44.7915L74.1754 47.0421H76.0451L75.1297 44.7915Z" fill="#232222"/>
<path d="M77.8782 44.1464V46.5522L80.2761 44.1464H80.3102V47.3986H79.889V45.0049L77.5106 47.3889H77.4595V44.1367L77.8782 44.1464Z" fill="#232222"/>
<path d="M82.7055 45.9315H81.9751C81.8402 45.9424 81.7045 45.9252 81.5767 45.8809C81.4488 45.8366 81.3316 45.7663 81.2326 45.6744C81.0585 45.4733 80.971 45.2118 80.9892 44.9468V44.1344H81.4006V44.7213C81.4006 45.102 81.4541 45.3349 81.5637 45.427C81.7199 45.5312 81.9071 45.5791 82.0944 45.5629H82.7103V44.1344H83.1364V47.3866H82.7176L82.7055 45.9315Z" fill="#232222"/>
<path d="M86.7711 46.4891L87.163 46.5036C87.0645 46.7104 86.9283 46.897 86.7613 47.0541C86.613 47.193 86.4384 47.3011 86.2477 47.3718C86.0414 47.4484 85.8226 47.4862 85.6025 47.4834C85.3686 47.4954 85.1349 47.4545 84.919 47.3638C84.7032 47.273 84.5107 47.1349 84.3561 46.9596C84.0785 46.6473 83.9195 46.2481 83.9066 45.8312C83.8937 45.4143 84.0278 45.0061 84.2855 44.6774C84.4364 44.4793 84.6327 44.32 84.858 44.2129C85.0833 44.1057 85.3311 44.0538 85.5806 44.0614C85.8369 44.0536 86.0914 44.1067 86.3229 44.2164C86.5545 44.326 86.7565 44.4891 86.9123 44.692C87.1551 45.0118 87.2821 45.4042 87.2726 45.8052H84.3366C84.3314 46.1508 84.4615 46.4848 84.6993 46.7364C84.8105 46.8544 84.9453 46.9477 85.0951 47.0103C85.2448 47.073 85.4061 47.1036 85.5684 47.1002C85.7347 47.1005 85.8996 47.0709 86.0553 47.0129C86.202 46.9567 86.3372 46.8745 86.4546 46.7704C86.5617 46.6879 86.6688 46.5885 86.7711 46.4891ZM86.81 45.4438C86.7671 45.2503 86.6842 45.0677 86.5666 44.9078C86.4507 44.7697 86.3051 44.6595 86.1405 44.5853C85.9671 44.5033 85.7775 44.461 85.5855 44.4616C85.2812 44.4565 84.9863 44.5666 84.7602 44.7696C84.572 44.9543 84.4396 45.1879 84.378 45.4438H86.81Z" fill="#232222"/>
<path d="M91.2236 44.8208H90.8609C90.541 44.5523 90.1293 44.4176 89.7119 44.4449C89.5294 44.4394 89.3476 44.4705 89.1774 44.5363C89.0072 44.6021 88.852 44.7014 88.721 44.8281C88.5933 44.9466 88.492 45.0905 88.4236 45.2505C88.3553 45.4105 88.3214 45.583 88.3242 45.7569C88.3236 45.9923 88.3867 46.2236 88.5068 46.4263C88.6205 46.6301 88.7892 46.7981 88.9937 46.9113C89.2108 47.0294 89.4548 47.0896 89.7021 47.0859C90.1003 47.1135 90.4937 46.9867 90.8001 46.7319H91.2115C91.0549 46.9658 90.8379 47.1535 90.5834 47.2751C90.303 47.4079 89.9955 47.4743 89.6851 47.4691C89.4493 47.4772 89.2141 47.4385 88.9935 47.3552C88.7728 47.2719 88.571 47.1458 88.3997 46.9841C88.2354 46.832 88.1052 46.6471 88.0176 46.4415C87.9299 46.2359 87.8867 46.0142 87.8909 45.7909C87.8907 45.4824 87.9749 45.1798 88.1343 44.9154C88.289 44.6476 88.5159 44.4283 88.7892 44.2824C89.0752 44.128 89.3963 44.0495 89.7216 44.0544C89.9342 44.0541 90.1454 44.0877 90.3473 44.1539C90.5317 44.2103 90.7054 44.2972 90.8609 44.4109C91.0078 44.5224 91.1311 44.6616 91.2236 44.8208Z" fill="#232222"/>
<path d="M92.0317 44.1464H92.4529V45.5166L93.9647 44.1464H94.549L92.8935 45.6354L94.6804 47.3986H94.0913L92.5892 45.895L92.4578 46.0114V47.3986H92.0366L92.0317 44.1464Z" fill="#232222"/>
<path d="M98.3687 44.0856V47.3985H97.9549V46.8383C97.7954 47.0408 97.5935 47.2063 97.3633 47.3233C97.0504 47.473 96.6981 47.5208 96.3564 47.4599C96.0147 47.3989 95.7009 47.2323 95.4596 46.9838C95.3013 46.8243 95.1767 46.6348 95.0931 46.4265C95.0095 46.2182 94.9685 45.9954 94.9727 45.7712C94.967 45.5467 95.0072 45.3234 95.0909 45.115C95.1746 44.9065 95.3001 44.7172 95.4596 44.5586C95.6133 44.3982 95.7986 44.271 96.0038 44.1851C96.2091 44.0991 96.4299 44.0562 96.6525 44.059C96.9203 44.059 97.3536 44.059 97.95 44.0832L98.3687 44.0856ZM96.689 44.4664C96.4602 44.4636 96.2349 44.5231 96.0375 44.6385C95.8402 44.7539 95.6782 44.9208 95.5691 45.1212C95.4538 45.3212 95.3934 45.5478 95.3939 45.7784C95.3943 46.0089 95.4547 46.2354 95.5691 46.4357C95.6856 46.6374 95.8536 46.8047 96.056 46.9207C96.2496 47.0357 96.4709 47.0961 96.6963 47.0953C96.9261 47.0952 97.152 47.035 97.3512 46.9207C97.5546 46.8137 97.7234 46.6514 97.8381 46.4526C97.95 46.2538 98.0036 45.5941 98.0036 44.4737L96.689 44.4664Z" fill="#232222"/>
<path d="M100.693 45.9437H100.394L99.4616 47.3988H99.0088L99.9826 45.9C99.7576 45.8796 99.5467 45.7819 99.3861 45.6236C99.3111 45.5481 99.2521 45.4582 99.2128 45.3595C99.1734 45.2607 99.1546 45.155 99.1573 45.0488C99.15 44.9253 99.1697 44.8016 99.2151 44.6865C99.2605 44.5713 99.3305 44.4674 99.4202 44.3819C99.6102 44.2161 99.8568 44.1293 100.109 44.1393H101.102V47.3915H100.684L100.693 45.9437ZM100.693 44.5079H100.421C100.239 44.4984 100.057 44.5155 99.8803 44.5589C99.7902 44.5919 99.7134 44.6532 99.6612 44.7335C99.603 44.8343 99.5752 44.9496 99.5809 45.0658C99.5759 45.1853 99.6129 45.3028 99.6856 45.398C99.7468 45.4766 99.8324 45.5329 99.929 45.5581C100.095 45.5829 100.263 45.5927 100.431 45.5872H100.708L100.693 44.5079Z" fill="#232222"/>
<path d="M63.1447 50.1829H62.558L61.0462 51.5531V50.1829H60.625V53.4375H61.0462V52.0503L61.1776 51.9339L62.6797 53.4375H63.2737L61.4868 51.6719L63.1447 50.1829Z" fill="#232222"/>
<path d="M65.2556 50.098C65.0193 50.0924 64.7847 50.1384 64.5681 50.2326C64.3515 50.3269 64.1582 50.4672 64.0018 50.6437C63.7072 50.9691 63.5464 51.393 63.5514 51.8312C63.5563 52.2693 63.7267 52.6895 64.0286 53.0082C64.1893 53.1696 64.3804 53.2976 64.591 53.385C64.8016 53.4723 65.0274 53.5173 65.2556 53.5173C65.4837 53.5173 65.7095 53.4723 65.9201 53.385C66.1307 53.2976 66.3219 53.1696 66.4825 53.0082C66.7832 52.6883 66.9525 52.2677 66.957 51.8294C66.9615 51.3912 66.8009 50.9672 66.5069 50.6412C66.3505 50.4655 66.1575 50.3259 65.9414 50.232C65.7253 50.1382 65.4912 50.0925 65.2556 50.098ZM66.3608 52.4844C66.2516 52.6804 66.0908 52.843 65.8958 52.9549C65.6994 53.063 65.4787 53.1196 65.2543 53.1196C65.03 53.1196 64.8093 53.063 64.6129 52.9549C64.4185 52.843 64.2586 52.6803 64.1503 52.4844C64.0362 52.2832 63.9766 52.0558 63.9775 51.8247C63.9745 51.6522 64.0064 51.4809 64.0713 51.321C64.1361 51.161 64.2325 51.0156 64.3548 50.8935C64.4706 50.7717 64.6101 50.6747 64.7647 50.6085C64.9194 50.5422 65.086 50.508 65.2543 50.508C65.4227 50.508 65.5893 50.5422 65.7439 50.6085C65.8986 50.6747 66.0381 50.7717 66.1539 50.8935C66.2766 51.0153 66.3734 51.1606 66.4382 51.3206C66.5031 51.4807 66.5347 51.6522 66.5312 51.8247C66.5333 52.0565 66.4746 52.2847 66.3608 52.4868V52.4844Z" fill="#232222"/>
<path d="M71.2805 50.1829L69.9708 52.7293L68.6561 50.1829H68.5417L67.4243 53.4375H67.8625L68.6708 51.0414L69.9294 53.4375H70.0073L71.2634 51.0438L72.0717 53.4375H72.5099L71.4022 50.1829H71.2805Z" fill="#232222"/>
<path d="M73.1382 53.4375H73.5569V50.5782H75.4558V53.4375H75.8769V50.1829H73.1382V53.4375Z" fill="#232222"/>
<path d="M78.3528 50.0979C78.1305 50.0949 77.91 50.1377 77.7051 50.2237C77.5003 50.3097 77.3155 50.437 77.1624 50.5975C77.0023 50.7557 76.8764 50.9449 76.7927 51.1535C76.7089 51.3621 76.669 51.5856 76.6755 51.8101C76.6723 52.0343 76.7136 52.2568 76.7972 52.4649C76.8808 52.6731 77.0049 52.8627 77.1624 53.0227C77.4041 53.2698 77.7174 53.4354 78.0583 53.4963C78.3993 53.5572 78.7508 53.5103 79.0637 53.3623C79.2941 53.2445 79.4966 53.0792 79.6577 52.8772V53.4374H80.0715V50.1246H79.6577C79.0539 50.0979 78.6206 50.0979 78.3528 50.0979ZM79.514 52.4916C79.3998 52.6912 79.2309 52.8544 79.0271 52.9621C78.8279 53.0759 78.602 53.1353 78.3723 53.1343C78.147 53.1347 77.9257 53.0744 77.732 52.9597C77.5281 52.8456 77.3596 52.6778 77.2451 52.4746C77.1296 52.2743 77.0688 52.0472 77.0688 51.8162C77.0688 51.5851 77.1296 51.3581 77.2451 51.1577C77.3554 50.9578 77.518 50.7914 77.7156 50.6761C77.9132 50.5608 78.1384 50.501 78.3674 50.5029H79.6601C79.6731 51.6347 79.6244 52.2984 79.514 52.494V52.4916Z" fill="#232222"/>
<path d="M83.3317 51.4755H81.4329V50.1829H81.0117V53.4375H81.4329V51.8708H83.3317V53.4375H83.7529V50.1829H83.3317V51.4755Z" fill="#232222"/>
<path d="M85.1082 52.5911V50.1829H84.687V53.4375H84.7381L87.119 51.0511V53.4375H87.5378V50.1829H87.5061L85.1082 52.5911Z" fill="#232222"/>
<path d="M89.2786 50.1828C89.0269 50.1721 88.7808 50.259 88.5921 50.4253C88.5022 50.5107 88.4322 50.6147 88.3867 50.7299C88.3413 50.845 88.3217 50.9687 88.3292 51.0922C88.3263 51.1985 88.3451 51.3042 88.3845 51.403C88.4238 51.5018 88.4828 51.5916 88.558 51.667C88.7173 51.8258 88.9275 51.9237 89.152 51.9435L88.1782 53.4423H88.631L89.5634 51.9871H89.8629V53.4423H90.284V50.1876L89.2786 50.1828ZM89.8531 51.6379H89.578C89.4102 51.6431 89.2424 51.6325 89.0766 51.6064C88.9789 51.5834 88.8927 51.5267 88.8331 51.4463C88.7616 51.3514 88.7246 51.2351 88.7284 51.1165C88.7222 51 88.7511 50.8843 88.8112 50.7842C88.8627 50.7028 88.9397 50.6405 89.0303 50.6072C89.2073 50.566 89.3892 50.5496 89.5708 50.5587H89.8458L89.8531 51.6379Z" fill="#232222"/>
<path d="M58.0613 53.5515H57.8179L57.8154 53.4302V43.9501H58.0589L58.0613 44.0713V53.5515Z" fill="#232222"/>
<path d="M58.0613 53.5515H57.8179L57.8154 53.4302V43.9501H58.0589L58.0613 44.0713V53.5515Z" fill="#232222"/>
<path d="M59.0963 32.0956H61.1242C61.418 30.2475 62.154 28.8789 63.3323 27.9897C64.4069 27.1377 65.7371 26.6689 67.1105 26.6582C67.9238 26.6381 68.7327 26.7825 69.4884 27.0826C70.2441 27.3828 70.9308 27.8324 71.5071 28.4044C72.3609 29.2518 72.9429 30.3326 73.1793 31.5099C73.4158 32.6872 73.296 33.9079 72.8353 35.0173C72.3746 36.1267 71.5936 37.0749 70.5913 37.7416C69.589 38.4083 68.4106 38.7636 67.2055 38.7625C65.705 38.7855 64.2496 38.2512 63.1229 37.2637C61.9641 36.2629 61.2979 34.8983 61.1242 33.1699H59.0963V38.7479H57.9399V26.6461H59.0963V32.0956ZM72.089 32.7067C72.1079 32.0466 71.9855 31.3901 71.7299 30.7808C71.4742 30.1715 71.0912 29.6235 70.6064 29.1732C69.6926 28.274 68.4582 27.7726 67.1738 27.7787C66.5251 27.7856 65.8841 27.9202 65.2878 28.1748C64.6915 28.4294 64.1516 28.7989 63.6991 29.262C63.2466 29.7252 62.8905 30.2729 62.6513 30.8736C62.412 31.4743 62.2943 32.1163 62.3049 32.7625C62.2889 33.4137 62.4107 34.061 62.6624 34.6623C62.9141 35.2636 63.2899 35.8053 63.7656 36.2524C64.4569 36.9334 65.3362 37.3938 66.2913 37.5748C67.2464 37.7559 68.234 37.6495 69.1281 37.269C70.0222 36.8886 70.7823 36.2514 71.3113 35.4389C71.8404 34.6263 72.1145 33.6751 72.0987 32.7067H72.089ZM74.6159 30.9387L75.709 29.794V31.5814C76.0998 31.0262 76.6138 30.5681 77.211 30.2427C77.7963 29.9394 78.4479 29.7853 79.1075 29.794C79.6902 29.786 80.2684 29.8982 80.8055 30.1236C81.3426 30.349 81.8271 30.6827 82.2285 31.1037C82.6482 31.514 82.9796 32.0051 83.2027 32.5471C83.4258 33.0891 83.5358 33.6707 83.526 34.2564C83.5379 34.8471 83.4302 35.4342 83.2093 35.9825C82.9885 36.5308 82.659 37.0292 82.2406 37.448C81.6085 38.0972 80.7877 38.5323 79.894 38.692C79.0004 38.8517 78.079 38.7279 77.2597 38.338C76.6587 38.0323 76.13 37.6023 75.709 37.0769V40.7802L74.6159 41.9249V30.9387ZM79.0198 30.8539C78.5709 30.844 78.1247 30.9274 77.7098 31.0985C77.2949 31.2697 76.9203 31.525 76.6097 31.8482C76.2885 32.1744 76.0367 32.5618 75.8694 32.9873C75.702 33.4128 75.6227 33.8675 75.636 34.3243C75.6269 34.9341 75.777 35.5359 76.0717 36.0705C76.3646 36.5893 76.7982 37.0155 77.323 37.3C77.8463 37.5986 78.4388 37.7557 79.0417 37.756C79.6299 37.757 80.2072 37.5986 80.7118 37.2976C81.2357 36.9907 81.6664 36.5482 81.9582 36.0171C82.2613 35.4926 82.4209 34.898 82.4209 34.2928C82.4209 33.6876 82.2613 33.093 81.9582 32.5685C81.6697 32.0448 81.2441 31.6089 80.7267 31.307C80.2093 31.0051 79.6194 30.8485 79.0198 30.8539ZM94.7537 33.2184H89.2884V32.0907H94.7074C94.6789 31.4803 94.5174 30.8835 94.234 30.3415C93.9507 29.7996 93.5523 29.3256 93.0666 28.9525C92.1342 28.198 90.9692 27.7869 89.7679 27.7884C88.0249 27.7884 86.6453 28.4521 85.6294 29.7795L84.7092 29.081C85.2498 28.3158 85.9803 27.7033 86.8296 27.3033C87.7503 26.8623 88.761 26.6398 89.7826 26.6534C90.6019 26.6307 91.4175 26.7716 92.1813 27.0678C92.9452 27.3639 93.6418 27.8093 94.2303 28.3777C94.8142 28.9219 95.277 29.5821 95.5886 30.3157C95.9002 31.0493 96.0536 31.8399 96.0391 32.6364C96.0566 33.4362 95.915 34.2315 95.6225 34.9766C95.3301 35.7216 94.8925 36.4017 94.335 36.9775C93.1989 38.1626 91.6798 38.7552 89.7777 38.7552C87.6159 38.7552 85.9296 37.9904 84.7189 36.4609L85.6391 35.7698C86.1265 36.3722 86.7453 36.8561 87.4485 37.1847C88.1516 37.5134 88.9207 37.678 89.6973 37.6663C90.8911 37.6832 92.0561 37.3006 93.0058 36.5798C93.9682 35.8587 94.5541 34.7399 94.7634 33.2233L94.7537 33.2184ZM97.0713 29.794H98.1741V33.3858L102.137 29.794H103.671L99.3305 33.6962L103.956 38.7552H102.398L98.5246 34.3898L98.179 34.6954V38.7673H97.0762L97.0713 29.794ZM112.652 31.7851L111.7 31.8167C110.999 31.1586 109.995 30.8296 108.688 30.8296C108.21 30.8149 107.733 30.896 107.287 31.068C106.84 31.2401 106.433 31.4996 106.088 31.8312C105.757 32.1422 105.494 32.5183 105.316 32.9357C105.138 33.3532 105.049 33.8029 105.054 34.2564C105.055 34.8746 105.223 35.481 105.541 36.0123C105.847 36.5509 106.299 36.9929 106.846 37.2879C107.416 37.5959 108.057 37.7529 108.706 37.7439C109.965 37.7439 110.925 37.4359 111.585 36.8199H112.662C112.251 37.4329 111.681 37.9239 111.013 38.241C110.278 38.588 109.473 38.7606 108.659 38.7455C108.042 38.7689 107.426 38.6697 106.848 38.4536C106.269 38.2375 105.74 37.9088 105.29 37.4868C104.86 37.0875 104.519 36.6027 104.289 36.0638C104.058 35.5249 103.944 34.9439 103.953 34.3583C103.948 33.5495 104.165 32.7546 104.579 32.0592C104.987 31.359 105.582 30.7855 106.298 30.4028C107.045 30.0012 107.883 29.7958 108.732 29.8061C109.29 29.8051 109.844 29.8927 110.373 30.0657C110.854 30.2155 111.308 30.4433 111.715 30.7399C112.098 31.0247 112.421 31.3814 112.666 31.79L112.652 31.7851ZM113.961 29.794H121.143V38.7673H120.043V30.8417H115.064V38.7673H113.961V29.794ZM129.893 36.1578L130.925 36.1966C130.662 36.7351 130.305 37.2228 129.871 37.6372C129.48 37.9988 129.023 38.2821 128.524 38.4714C127.984 38.6701 127.411 38.7671 126.835 38.7576C125.439 38.7576 124.349 38.3025 123.563 37.3922C122.799 36.5426 122.378 35.4408 122.382 34.3001C122.372 33.2508 122.724 32.23 123.38 31.4092C123.774 30.889 124.288 30.4708 124.878 30.1897C125.468 29.9086 126.118 29.7729 126.772 29.794C127.444 29.7724 128.111 29.9113 128.719 30.199C129.326 30.4867 129.855 30.915 130.263 31.448C130.901 32.2827 131.234 33.3093 131.207 34.3583H123.514C123.501 35.2638 123.843 36.1389 124.466 36.798C124.757 37.107 125.109 37.3515 125.501 37.5157C125.893 37.6799 126.315 37.7601 126.74 37.7511C127.174 37.7519 127.604 37.6747 128.011 37.5232C128.395 37.3881 128.751 37.1834 129.06 36.9193C129.362 36.6792 129.634 36.4221 129.907 36.1626L129.893 36.1578ZM129.995 33.4149C129.884 32.9074 129.666 32.4295 129.355 32.0131C129.056 31.6478 128.674 31.3578 128.242 31.1667C127.785 30.9532 127.286 30.843 126.781 30.8441C125.984 30.8289 125.21 31.1178 124.62 31.6517C124.126 32.1335 123.78 32.7449 123.621 33.4149H129.995ZM132.471 30.9387L133.564 29.794V31.5814C133.954 31.0256 134.468 30.5674 135.066 30.2427C135.65 29.9395 136.301 29.7853 136.96 29.794C137.543 29.786 138.121 29.8981 138.659 30.1235C139.196 30.3489 139.681 30.6826 140.083 31.1037C140.502 31.5143 140.834 32.0055 141.057 32.5474C141.28 33.0894 141.39 33.6708 141.381 34.2564C141.393 34.8471 141.285 35.4342 141.064 35.9825C140.843 36.5308 140.514 37.0292 140.095 37.448C139.463 38.0974 138.642 38.5326 137.748 38.6923C136.853 38.852 135.932 38.7281 135.112 38.338C134.511 38.0328 133.983 37.6028 133.564 37.0769V40.7802L132.471 41.9225V30.9387ZM136.875 30.8539C136.426 30.844 135.979 30.9274 135.565 31.0985C135.15 31.2697 134.775 31.525 134.464 31.8482C134.143 32.1744 133.891 32.5618 133.724 32.9873C133.557 33.4128 133.477 33.8675 133.491 34.3243C133.481 34.9345 133.632 35.5365 133.929 36.0705C134.22 36.5895 134.653 37.0157 135.178 37.3C135.701 37.5982 136.293 37.7554 136.896 37.756C137.485 37.7571 138.063 37.5986 138.569 37.2976C139.092 36.99 139.523 36.5477 139.815 36.0171C140.117 35.492 140.275 34.8977 140.275 34.2928C140.275 33.6879 140.117 33.0935 139.815 32.5685C139.527 32.0448 139.101 31.6089 138.584 31.307C138.066 31.0051 137.477 30.8485 136.877 30.8539H136.875ZM142.369 29.794H148V30.7423H145.736V38.7455H144.633V30.7423H142.369V29.794Z" fill="#232222"/>
<path d="M59.0963 32.0956H61.1242C61.418 30.2475 62.154 28.8789 63.3323 27.9897C64.4069 27.1377 65.7371 26.6689 67.1105 26.6582C67.9238 26.6381 68.7327 26.7825 69.4884 27.0826C70.2441 27.3828 70.9308 27.8324 71.5071 28.4044C72.3609 29.2518 72.9429 30.3326 73.1793 31.5099C73.4158 32.6872 73.296 33.9079 72.8353 35.0173C72.3746 36.1267 71.5936 37.0749 70.5913 37.7416C69.589 38.4083 68.4106 38.7636 67.2055 38.7625C65.705 38.7855 64.2496 38.2512 63.1229 37.2637C61.9641 36.2629 61.2979 34.8983 61.1242 33.1699H59.0963V38.7479H57.9399V26.6461H59.0963V32.0956ZM72.089 32.7067C72.1079 32.0466 71.9855 31.3901 71.7299 30.7808C71.4742 30.1715 71.0912 29.6235 70.6064 29.1732C69.6926 28.274 68.4582 27.7726 67.1738 27.7787C66.5251 27.7856 65.8841 27.9202 65.2878 28.1748C64.6915 28.4294 64.1516 28.7989 63.6991 29.262C63.2466 29.7252 62.8905 30.2729 62.6513 30.8736C62.412 31.4743 62.2943 32.1163 62.3049 32.7625C62.2889 33.4137 62.4107 34.061 62.6624 34.6623C62.9141 35.2636 63.2899 35.8053 63.7656 36.2524C64.4569 36.9334 65.3362 37.3938 66.2913 37.5748C67.2464 37.7559 68.234 37.6495 69.1281 37.269C70.0222 36.8886 70.7823 36.2514 71.3113 35.4389C71.8404 34.6263 72.1145 33.6751 72.0987 32.7067H72.089ZM74.6159 30.9387L75.709 29.794V31.5814C76.0998 31.0262 76.6138 30.5681 77.211 30.2427C77.7963 29.9394 78.4479 29.7853 79.1075 29.794C79.6902 29.786 80.2684 29.8982 80.8055 30.1236C81.3426 30.349 81.8271 30.6827 82.2285 31.1037C82.6482 31.514 82.9796 32.0051 83.2027 32.5471C83.4258 33.0891 83.5358 33.6707 83.526 34.2564C83.5379 34.8471 83.4302 35.4342 83.2093 35.9825C82.9885 36.5308 82.659 37.0292 82.2406 37.448C81.6085 38.0972 80.7877 38.5323 79.894 38.692C79.0004 38.8517 78.079 38.7279 77.2597 38.338C76.6587 38.0323 76.13 37.6023 75.709 37.0769V40.7802L74.6159 41.9249V30.9387ZM79.0198 30.8539C78.5709 30.844 78.1247 30.9274 77.7098 31.0985C77.2949 31.2697 76.9203 31.525 76.6097 31.8482C76.2885 32.1744 76.0367 32.5618 75.8694 32.9873C75.702 33.4128 75.6227 33.8675 75.636 34.3243C75.6269 34.9341 75.777 35.5359 76.0717 36.0705C76.3646 36.5893 76.7982 37.0155 77.323 37.3C77.8463 37.5986 78.4388 37.7557 79.0417 37.756C79.6299 37.757 80.2072 37.5986 80.7118 37.2976C81.2357 36.9907 81.6664 36.5482 81.9582 36.0171C82.2613 35.4926 82.4209 34.898 82.4209 34.2928C82.4209 33.6876 82.2613 33.093 81.9582 32.5685C81.6697 32.0448 81.2441 31.6089 80.7267 31.307C80.2093 31.0051 79.6194 30.8485 79.0198 30.8539ZM94.7537 33.2184H89.2884V32.0907H94.7074C94.6789 31.4803 94.5174 30.8835 94.234 30.3415C93.9507 29.7996 93.5523 29.3256 93.0666 28.9525C92.1342 28.198 90.9692 27.7869 89.7679 27.7884C88.0249 27.7884 86.6453 28.4521 85.6294 29.7795L84.7092 29.081C85.2498 28.3158 85.9803 27.7033 86.8296 27.3033C87.7503 26.8623 88.761 26.6398 89.7826 26.6534C90.6019 26.6307 91.4175 26.7716 92.1813 27.0678C92.9452 27.3639 93.6418 27.8093 94.2303 28.3777C94.8142 28.9219 95.277 29.5821 95.5886 30.3157C95.9002 31.0493 96.0536 31.8399 96.0391 32.6364C96.0566 33.4362 95.915 34.2315 95.6225 34.9766C95.3301 35.7216 94.8925 36.4017 94.335 36.9775C93.1989 38.1626 91.6798 38.7552 89.7777 38.7552C87.6159 38.7552 85.9296 37.9904 84.7189 36.4609L85.6391 35.7698C86.1265 36.3722 86.7453 36.8561 87.4485 37.1847C88.1516 37.5134 88.9207 37.678 89.6973 37.6663C90.8911 37.6832 92.0561 37.3006 93.0058 36.5798C93.9682 35.8587 94.5541 34.7399 94.7634 33.2233L94.7537 33.2184ZM97.0713 29.794H98.1741V33.3858L102.137 29.794H103.671L99.3305 33.6962L103.956 38.7552H102.398L98.5246 34.3898L98.179 34.6954V38.7673H97.0762L97.0713 29.794ZM112.652 31.7851L111.7 31.8167C110.999 31.1586 109.995 30.8296 108.688 30.8296C108.21 30.8149 107.733 30.896 107.287 31.068C106.84 31.2401 106.433 31.4996 106.088 31.8312C105.757 32.1422 105.494 32.5183 105.316 32.9357C105.138 33.3532 105.049 33.8029 105.054 34.2564C105.055 34.8746 105.223 35.481 105.541 36.0123C105.847 36.5509 106.299 36.9929 106.846 37.2879C107.416 37.5959 108.057 37.7529 108.706 37.7439C109.965 37.7439 110.925 37.4359 111.585 36.8199H112.662C112.251 37.4329 111.681 37.9239 111.013 38.241C110.278 38.588 109.473 38.7606 108.659 38.7455C108.042 38.7689 107.426 38.6697 106.848 38.4536C106.269 38.2375 105.74 37.9088 105.29 37.4868C104.86 37.0875 104.519 36.6027 104.289 36.0638C104.058 35.5249 103.944 34.9439 103.953 34.3583C103.948 33.5495 104.165 32.7546 104.579 32.0592C104.987 31.359 105.582 30.7855 106.298 30.4028C107.045 30.0012 107.883 29.7958 108.732 29.8061C109.29 29.8051 109.844 29.8927 110.373 30.0657C110.854 30.2155 111.308 30.4433 111.715 30.7399C112.098 31.0247 112.421 31.3814 112.666 31.79L112.652 31.7851ZM113.961 29.794H121.143V38.7673H120.043V30.8417H115.064V38.7673H113.961V29.794ZM129.893 36.1578L130.925 36.1966C130.662 36.7351 130.305 37.2228 129.871 37.6372C129.48 37.9988 129.023 38.2821 128.524 38.4714C127.984 38.6701 127.411 38.7671 126.835 38.7576C125.439 38.7576 124.349 38.3025 123.563 37.3922C122.799 36.5426 122.378 35.4408 122.382 34.3001C122.372 33.2508 122.724 32.23 123.38 31.4092C123.774 30.889 124.288 30.4708 124.878 30.1897C125.468 29.9086 126.118 29.7729 126.772 29.794C127.444 29.7724 128.111 29.9113 128.719 30.199C129.326 30.4867 129.855 30.915 130.263 31.448C130.901 32.2827 131.234 33.3093 131.207 34.3583H123.514C123.501 35.2638 123.843 36.1389 124.466 36.798C124.757 37.107 125.109 37.3515 125.501 37.5157C125.893 37.6799 126.315 37.7601 126.74 37.7511C127.174 37.7519 127.604 37.6747 128.011 37.5232C128.395 37.3881 128.751 37.1834 129.06 36.9193C129.362 36.6792 129.634 36.4221 129.907 36.1626L129.893 36.1578ZM129.995 33.4149C129.884 32.9074 129.666 32.4295 129.355 32.0131C129.056 31.6478 128.674 31.3578 128.242 31.1667C127.785 30.9532 127.286 30.843 126.781 30.8441C125.984 30.8289 125.21 31.1178 124.62 31.6517C124.126 32.1335 123.78 32.7449 123.621 33.4149H129.995ZM132.471 30.9387L133.564 29.794V31.5814C133.954 31.0256 134.468 30.5674 135.066 30.2427C135.65 29.9395 136.301 29.7853 136.96 29.794C137.543 29.786 138.121 29.8981 138.659 30.1235C139.196 30.3489 139.681 30.6826 140.083 31.1037C140.502 31.5143 140.834 32.0055 141.057 32.5474C141.28 33.0894 141.39 33.6708 141.381 34.2564C141.393 34.8471 141.285 35.4342 141.064 35.9825C140.843 36.5308 140.514 37.0292 140.095 37.448C139.463 38.0974 138.642 38.5326 137.748 38.6923C136.853 38.852 135.932 38.7281 135.112 38.338C134.511 38.0328 133.983 37.6028 133.564 37.0769V40.7802L132.471 41.9225V30.9387ZM136.875 30.8539C136.426 30.844 135.979 30.9274 135.565 31.0985C135.15 31.2697 134.775 31.525 134.464 31.8482C134.143 32.1744 133.891 32.5618 133.724 32.9873C133.557 33.4128 133.477 33.8675 133.491 34.3243C133.481 34.9345 133.632 35.5365 133.929 36.0705C134.22 36.5895 134.653 37.0157 135.178 37.3C135.701 37.5982 136.293 37.7554 136.896 37.756C137.485 37.7571 138.063 37.5986 138.569 37.2976C139.092 36.99 139.523 36.5477 139.815 36.0171C140.117 35.492 140.275 34.8977 140.275 34.2928C140.275 33.6879 140.117 33.0935 139.815 32.5685C139.527 32.0448 139.101 31.6089 138.584 31.307C138.066 31.0051 137.477 30.8485 136.877 30.8539H136.875ZM142.369 29.794H148V30.7423H145.736V38.7455H144.633V30.7423H142.369V29.794Z" fill="#232222"/>
<defs>
<linearGradient id="paint0_linear_1002_3624" x1="1.89543e-06" y1="29.9953" x2="51.1234" y2="29.9953" gradientUnits="userSpaceOnUse">
<stop stop-color="#AB835F"/>
<stop offset="1" stop-color="#DEBD92"/>
</linearGradient>
</defs>
</svg>
