<svg width="48" height="56" viewBox="0 0 48 56" fill="none" xmlns="http://www.w3.org/2000/svg">
<path d="M23.7671 56L23.4434 55.8574C22.5968 55.4794 21.7412 55.0584 20.9014 54.6057C20.0617 54.153 19.1902 53.6459 18.3617 53.1185L17.9951 52.8922V37.6858H19.5795V52.0207C20.2586 52.4417 20.9535 52.8424 21.6507 53.2159C22.3478 53.5894 23.0608 53.947 23.7671 54.2707C24.4733 53.947 25.1818 53.5916 25.8812 53.2181C26.5806 52.8447 27.2755 52.4417 27.9546 52.0207V37.6858H29.5391V52.8922L29.1724 53.1185C28.3439 53.6459 27.4883 54.1462 26.6304 54.6057C25.7725 55.0652 24.9373 55.4794 24.0907 55.8574L23.7671 56ZM32.9343 50.4498V33.4915H24.5593V50.1171H22.9748V33.4915H14.5998V50.4498L13.2801 49.2751C8.2028 44.7526 4.37355 39.0007 2.16012 32.5716C-0.0533183 26.1426 -0.576584 19.2525 0.64058 12.5629L0.810345 11.6213L1.70444 11.9676C5.27098 13.3428 9.14968 13.6992 12.9071 12.9969C16.6645 12.2945 20.1526 10.5612 22.9816 7.99055V6.4672C22.204 6.27376 21.5239 5.80249 21.0697 5.14226C20.6156 4.48203 20.4186 3.67846 20.5161 2.88304C20.6135 2.08763 20.9986 1.35534 21.5987 0.82426C22.1988 0.293179 22.9725 0 23.7739 0C24.5752 0 25.3489 0.293179 25.949 0.82426C26.5491 1.35534 26.9342 2.08763 27.0316 2.88304C27.1291 3.67846 26.9321 4.48203 26.4779 5.14226C26.0238 5.80249 25.3438 6.27376 24.5661 6.4672V7.99961C27.3951 10.5703 30.8832 12.3036 34.6406 13.0059C38.398 13.7082 42.2767 13.3519 45.8433 11.9766L46.7373 11.6303L46.9071 12.5719C48.1243 19.2615 47.601 26.1516 45.3876 32.5807C43.1742 39.0097 39.3449 44.7617 34.2676 49.2841L32.9343 50.4498ZM34.5188 33.4915V46.8621C38.8497 42.6186 42.1049 37.4023 44.0135 31.6472C45.9222 25.8921 46.4292 19.7644 45.4924 13.7739C41.9721 14.9569 38.2112 15.238 34.5542 14.5915C30.8971 13.9449 27.4606 12.3914 24.5593 10.073V14.4778H31.2367C31.8858 14.4778 32.5204 14.6703 33.0602 15.031C33.5999 15.3916 34.0206 15.9042 34.269 16.5039C34.5174 17.1037 34.5824 17.7636 34.4558 18.4002C34.3291 19.0369 34.0165 19.6217 33.5575 20.0808C33.0985 20.5398 32.5137 20.8523 31.877 20.979C31.2403 21.1056 30.5804 21.0406 29.9807 20.7922C29.381 20.5438 28.8684 20.1231 28.5077 19.5834C28.1471 19.0437 27.9546 18.4091 27.9546 17.7599H29.5391C29.5391 18.0957 29.6386 18.4239 29.8252 18.7031C30.0117 18.9823 30.2768 19.1999 30.587 19.3284C30.8972 19.4569 31.2386 19.4905 31.5679 19.425C31.8972 19.3595 32.1997 19.1978 32.4371 18.9604C32.6745 18.723 32.8362 18.4204 32.9017 18.0911C32.9672 17.7618 32.9336 17.4205 32.8051 17.1103C32.6766 16.8001 32.459 16.5349 32.1799 16.3484C31.9007 16.1619 31.5725 16.0623 31.2367 16.0623H24.5593V29.4171H28.7468V31.0016H18.7873V29.4171H22.9748V16.0623H16.2974C15.9616 16.0623 15.6334 16.1619 15.3543 16.3484C15.0751 16.5349 14.8575 16.8001 14.729 17.1103C14.6005 17.4205 14.5669 17.7618 14.6324 18.0911C14.6979 18.4204 14.8596 18.723 15.097 18.9604C15.3344 19.1978 15.6369 19.3595 15.9662 19.425C16.2955 19.4905 16.6369 19.4569 16.9471 19.3284C17.2573 19.1999 17.5224 18.9823 17.709 18.7031C17.8955 18.4239 17.9951 18.0957 17.9951 17.7599H19.5795C19.5796 18.4043 19.39 19.0344 19.0344 19.5717C18.6788 20.109 18.1729 20.5298 17.5797 20.7815C16.9866 21.0332 16.3325 21.1048 15.699 20.9874C15.0654 20.8699 14.4805 20.5685 14.0171 20.1208C13.5537 19.6732 13.2323 19.099 13.0929 18.4699C12.9536 17.8408 13.0025 17.1846 13.2336 16.5832C13.4647 15.9817 13.8677 15.4615 14.3924 15.0876C14.9171 14.7136 15.5403 14.5023 16.1842 14.4801H22.9748V10.0752C20.0735 12.3936 16.637 13.9472 12.98 14.5937C9.32287 15.2403 5.56203 14.9592 2.04171 13.7761C1.10528 19.7663 1.61248 25.8935 3.52114 31.6482C5.42979 37.4029 8.68473 42.6188 13.0153 46.8621V33.4915H11.3176V31.907H36.2165V33.4915H34.5188ZM23.7671 1.57571C23.4313 1.57571 23.1031 1.67526 22.8239 1.8618C22.5447 2.04834 22.3271 2.31349 22.1986 2.6237C22.0701 2.9339 22.0365 3.27523 22.102 3.60454C22.1675 3.93385 22.3292 4.23637 22.5666 4.47379C22.8041 4.71121 23.1065 4.87287 23.4359 4.93837C23.7652 5.00388 24.1065 4.97027 24.4167 4.84178C24.7269 4.71328 24.9921 4.49569 25.1786 4.21651C25.3651 3.93734 25.4647 3.60912 25.4647 3.27336C25.4647 2.82311 25.2858 2.3913 24.9675 2.07293C24.6491 1.75456 24.2173 1.57571 23.7671 1.57571Z" fill="#AA8066"/>
</svg>
