<svg width="16" height="16" viewBox="0 0 16 16" fill="none" xmlns="http://www.w3.org/2000/svg">
<g clip-path="url(#clip0_1203_2166)">
<path d="M8 16C12.4183 16 16 12.4183 16 8C16 3.58172 12.4183 0 8 0C3.58172 0 0 3.58172 0 8C0 12.4183 3.58172 16 8 16Z" fill="#D98251"/>
<path d="M12.4482 3.20199C11.807 2.60377 11.0477 2.14642 10.219 1.85938L8.01004 9.30713L5.80099 1.85938C4.97234 2.14642 4.21301 2.60377 3.57178 3.20199C2.81112 3.88157 2.2242 4.7334 1.86017 5.68624C1.49613 6.63908 1.36556 7.66523 1.47931 8.67888C1.61611 10.7967 3.19686 12.6054 3.19686 12.6054H6.23676C6.23676 12.6054 3.61737 11.2223 2.98912 9.05887C2.69303 8.15386 2.66014 7.18337 2.89425 6.26039C3.12836 5.3374 3.61983 4.49992 4.31147 3.84544C4.67119 3.53132 5.20826 3.45532 5.41092 4.14436C6.08983 6.32296 8.01004 12.5497 8.01004 12.5497C8.01004 12.5497 9.93018 6.32296 10.6091 4.14436C10.8117 3.45532 11.3488 3.53132 11.7085 3.84544C12.4 4.50006 12.8918 5.3373 13.1268 6.26005C13.3617 7.18281 13.3302 8.15327 13.036 9.05887C12.4026 11.2324 9.78331 12.6054 9.78331 12.6054H12.8232C12.8232 12.6054 14.4039 10.7967 14.5407 8.67888C14.6545 7.66523 14.5239 6.63908 14.1598 5.68624C13.7958 4.7334 13.2089 3.88157 12.4482 3.20199Z" fill="#F5F5F5"/>
</g>
<defs>
<clipPath id="clip0_1203_2166">
<rect width="16" height="16" fill="white"/>
</clipPath>
</defs>
</svg>
