<svg width="16" height="16" viewBox="0 0 16 16" fill="none" xmlns="http://www.w3.org/2000/svg">
<g clip-path="url(#clip0_24_1737)">
<path d="M8 16C12.4183 16 16 12.4183 16 8C16 3.58172 12.4183 0 8 0C3.58172 0 0 3.58172 0 8C0 12.4183 3.58172 16 8 16Z" fill="#64237A"/>
<path d="M12.4484 3.20204C11.8071 2.60381 11.0478 2.14647 10.2191 1.85942L8.01016 9.30717L5.80111 1.85942C4.97246 2.14647 4.21314 2.60381 3.5719 3.20204C2.81124 3.88162 2.22432 4.73344 1.86029 5.68628C1.49625 6.63912 1.36568 7.66527 1.47943 8.67892C1.61623 10.7967 3.19699 12.6055 3.19699 12.6055H6.23688C6.23688 12.6055 3.61749 11.2223 2.98924 9.05891C2.69316 8.15391 2.66026 7.18341 2.89437 6.26043C3.12848 5.33745 3.61995 4.49996 4.31159 3.84549C4.67131 3.53136 5.20838 3.45537 5.41104 4.14441C6.08995 6.323 8.01016 12.5497 8.01016 12.5497C8.01016 12.5497 9.9303 6.323 10.6092 4.14441C10.8119 3.45537 11.3489 3.53136 11.7087 3.84549C12.4002 4.5001 12.8919 5.33734 13.1269 6.2601C13.3618 7.18286 13.3303 8.15331 13.0361 9.05891C12.4028 11.2324 9.78343 12.6055 9.78343 12.6055H12.8233C12.8233 12.6055 14.404 10.7967 14.5408 8.67892C14.6546 7.66527 14.524 6.63912 14.16 5.68628C13.7959 4.73344 13.209 3.88162 12.4484 3.20204Z" fill="#F5F5F5"/>
</g>
<defs>
<clipPath id="clip0_24_1737">
<rect width="16" height="16" fill="white"/>
</clipPath>
</defs>
</svg>
