<svg width="195" height="56" viewBox="0 0 195 56" fill="none" xmlns="http://www.w3.org/2000/svg">
<path d="M37.42 24.66C36.2867 24.66 35.3067 24.4933 34.48 24.16C33.6533 23.8267 33.0133 23.3533 32.56 22.74C32.1067 22.1133 31.88 21.38 31.88 20.54C31.88 19.7133 32.0933 19.0133 32.52 18.44C32.96 17.8533 33.5933 17.4133 34.42 17.12C35.2467 16.8133 36.2467 16.66 37.42 16.66C38.5933 16.66 39.5933 16.8133 40.42 17.12C41.26 17.4133 41.9 17.8533 42.34 18.44C42.78 19.0267 43 19.7267 43 20.54C43 21.38 42.7733 22.1133 42.32 22.74C41.8667 23.3533 41.22 23.8267 40.38 24.16C39.54 24.4933 38.5533 24.66 37.42 24.66ZM37.42 23.04C38.54 23.04 39.4133 22.8133 40.04 22.36C40.68 21.8933 41 21.2667 41 20.48C41 19.7067 40.68 19.1 40.04 18.66C39.4133 18.2067 38.54 17.98 37.42 17.98C36.3133 17.98 35.4467 18.2067 34.82 18.66C34.1933 19.1 33.88 19.7067 33.88 20.48C33.88 21.2667 34.1933 21.8933 34.82 22.36C35.4467 22.8133 36.3133 23.04 37.42 23.04ZM37.42 17.74C36.3533 17.74 35.4467 17.6 34.7 17.32C33.9533 17.0267 33.38 16.6133 32.98 16.08C32.58 15.5333 32.38 14.8867 32.38 14.14C32.38 13.3533 32.5867 12.68 33 12.12C33.4267 11.5467 34.02 11.1067 34.78 10.8C35.54 10.4933 36.42 10.34 37.42 10.34C38.4333 10.34 39.32 10.4933 40.08 10.8C40.84 11.1067 41.4333 11.5467 41.86 12.12C42.2867 12.68 42.5 13.3533 42.5 14.14C42.5 14.8867 42.3 15.5333 41.9 16.08C41.5 16.6133 40.92 17.0267 40.16 17.32C39.4 17.6 38.4867 17.74 37.42 17.74ZM37.42 16.46C38.3933 16.46 39.1533 16.26 39.7 15.86C40.26 15.46 40.54 14.9133 40.54 14.22C40.54 13.5133 40.2533 12.96 39.68 12.56C39.1067 12.16 38.3533 11.96 37.42 11.96C36.4867 11.96 35.74 12.16 35.18 12.56C34.6333 12.96 34.36 13.5133 34.36 14.22C34.36 14.9133 34.6267 15.46 35.16 15.86C35.7067 16.26 36.46 16.46 37.42 16.46ZM50.0022 21.06V19.66L57.1622 10.5H59.3222L52.2222 19.66L51.2022 19.34H62.3822V21.06H50.0022ZM57.7822 24.5V21.06L57.8422 19.34V16.3H59.7222V24.5H57.7822ZM67.9844 10.34C69.251 10.34 70.3177 10.6133 71.1844 11.16C72.0644 11.7067 72.731 12.5 73.1844 13.54C73.6377 14.5667 73.8644 15.8267 73.8644 17.32C73.8644 18.9067 73.5844 20.2467 73.0244 21.34C72.4644 22.4333 71.691 23.26 70.7044 23.82C69.7177 24.38 68.5644 24.66 67.2444 24.66C66.591 24.66 65.9577 24.5933 65.3444 24.46C64.7444 24.3267 64.2177 24.12 63.7644 23.84L64.5244 22.28C64.8977 22.52 65.311 22.6933 65.7644 22.8C66.231 22.8933 66.7177 22.94 67.2244 22.94C68.6377 22.94 69.7644 22.5 70.6044 21.62C71.4444 20.7267 71.8644 19.4067 71.8644 17.66C71.8644 17.38 71.851 17.0467 71.8244 16.66C71.7977 16.2733 71.7377 15.8933 71.6444 15.52L72.3044 16.2C72.1177 16.8133 71.8044 17.3333 71.3644 17.76C70.9377 18.1733 70.4177 18.4867 69.8044 18.7C69.2044 18.9 68.5444 19 67.8244 19C66.9044 19 66.0844 18.8267 65.3644 18.48C64.6444 18.1333 64.0777 17.6467 63.6644 17.02C63.251 16.38 63.0444 15.6267 63.0444 14.76C63.0444 13.8533 63.2577 13.0733 63.6844 12.42C64.1244 11.7533 64.7177 11.24 65.4644 10.88C66.2244 10.52 67.0644 10.34 67.9844 10.34ZM68.0644 11.96C67.4644 11.96 66.931 12.0733 66.4644 12.3C65.9977 12.5267 65.631 12.84 65.3644 13.24C65.111 13.64 64.9844 14.12 64.9844 14.68C64.9844 15.5067 65.271 16.1667 65.8444 16.66C66.4177 17.14 67.191 17.38 68.1644 17.38C68.8044 17.38 69.3644 17.26 69.8444 17.02C70.3377 16.78 70.7177 16.4533 70.9844 16.04C71.2644 15.6267 71.4044 15.1667 71.4044 14.66C71.4044 14.1667 71.2777 13.72 71.0244 13.32C70.771 12.92 70.3977 12.5933 69.9044 12.34C69.411 12.0867 68.7977 11.96 68.0644 11.96ZM80.3081 24.66C79.3215 24.66 78.3615 24.5067 77.4281 24.2C76.5081 23.8933 75.7548 23.48 75.1681 22.96L76.0881 21.38C76.5548 21.82 77.1615 22.18 77.9081 22.46C78.6548 22.74 79.4481 22.88 80.2881 22.88C81.3548 22.88 82.1748 22.6533 82.7481 22.2C83.3215 21.7467 83.6081 21.14 83.6081 20.38C83.6081 19.86 83.4815 19.4067 83.2281 19.02C82.9748 18.6333 82.5348 18.34 81.9081 18.14C81.2948 17.9267 80.4481 17.82 79.3681 17.82H76.1881L76.9281 10.5H84.8281V12.24H77.6681L78.7081 11.26L78.1281 17.04L77.0881 16.08H79.7881C81.1881 16.08 82.3148 16.26 83.1681 16.62C84.0215 16.98 84.6415 17.48 85.0281 18.12C85.4148 18.7467 85.6081 19.4733 85.6081 20.3C85.6081 21.1 85.4148 21.8333 85.0281 22.5C84.6415 23.1533 84.0548 23.68 83.2681 24.08C82.4948 24.4667 81.5081 24.66 80.3081 24.66ZM95.0036 24.5V11.3L95.8636 12.24H91.8436V10.5H96.9836V24.5H95.0036ZM99.8259 24.5V23.14L105.526 17.64C106.033 17.16 106.406 16.74 106.646 16.38C106.899 16.0067 107.066 15.6667 107.146 15.36C107.239 15.04 107.286 14.7333 107.286 14.44C107.286 13.72 107.033 13.1533 106.526 12.74C106.019 12.3267 105.279 12.12 104.306 12.12C103.559 12.12 102.886 12.2467 102.286 12.5C101.686 12.74 101.166 13.12 100.726 13.64L99.3659 12.46C99.8993 11.78 100.613 11.26 101.506 10.9C102.413 10.5267 103.406 10.34 104.486 10.34C105.459 10.34 106.306 10.5 107.026 10.82C107.746 11.1267 108.299 11.5733 108.686 12.16C109.086 12.7467 109.286 13.44 109.286 14.24C109.286 14.6933 109.226 15.14 109.106 15.58C108.986 16.02 108.759 16.4867 108.426 16.98C108.093 17.4733 107.613 18.0267 106.986 18.64L101.906 23.54L101.426 22.76H109.886V24.5H99.8259ZM116.05 24.66C115.064 24.66 114.104 24.5067 113.17 24.2C112.25 23.8933 111.497 23.48 110.91 22.96L111.83 21.38C112.297 21.82 112.904 22.18 113.65 22.46C114.397 22.74 115.19 22.88 116.03 22.88C117.097 22.88 117.917 22.6533 118.49 22.2C119.064 21.7467 119.35 21.14 119.35 20.38C119.35 19.86 119.224 19.4067 118.97 19.02C118.717 18.6333 118.277 18.34 117.65 18.14C117.037 17.9267 116.19 17.82 115.11 17.82H111.93L112.67 10.5H120.57V12.24H113.41L114.45 11.26L113.87 17.04L112.83 16.08H115.53C116.93 16.08 118.057 16.26 118.91 16.62C119.764 16.98 120.384 17.48 120.77 18.12C121.157 18.7467 121.35 19.4733 121.35 20.3C121.35 21.1 121.157 21.8333 120.77 22.5C120.384 23.1533 119.797 23.68 119.01 24.08C118.237 24.4667 117.25 24.66 116.05 24.66ZM123.195 19.84V18.18H128.575V19.84H123.195ZM132.679 24.5V11.3L133.539 12.24H129.519V10.5H134.659V24.5H132.679ZM142.002 24.66C141.015 24.66 140.055 24.5067 139.122 24.2C138.202 23.8933 137.448 23.48 136.862 22.96L137.782 21.38C138.248 21.82 138.855 22.18 139.602 22.46C140.348 22.74 141.148 22.88 142.002 22.88C143.042 22.88 143.848 22.66 144.422 22.22C145.008 21.7667 145.302 21.16 145.302 20.4C145.302 19.6667 145.022 19.08 144.462 18.64C143.915 18.1867 143.042 17.96 141.842 17.96H140.722V16.56L144.882 11.44L145.162 12.24H137.502V10.5H146.742V11.86L142.602 16.96L141.562 16.34H142.222C143.915 16.34 145.182 16.72 146.022 17.48C146.875 18.24 147.302 19.2067 147.302 20.38C147.302 21.1667 147.108 21.8867 146.722 22.54C146.335 23.1933 145.748 23.7133 144.962 24.1C144.188 24.4733 143.202 24.66 142.002 24.66ZM149.347 19.84V18.18H154.727V19.84H149.347ZM158.832 24.5V11.3L159.692 12.24H155.672V10.5H160.812V24.5H158.832ZM168.154 24.66C167.167 24.66 166.207 24.5067 165.274 24.2C164.354 23.8933 163.601 23.48 163.014 22.96L163.934 21.38C164.401 21.82 165.007 22.18 165.754 22.46C166.501 22.74 167.301 22.88 168.154 22.88C169.194 22.88 170.001 22.66 170.574 22.22C171.161 21.7667 171.454 21.16 171.454 20.4C171.454 19.6667 171.174 19.08 170.614 18.64C170.067 18.1867 169.194 17.96 167.994 17.96H166.874V16.56L171.034 11.44L171.314 12.24H163.654V10.5H172.894V11.86L168.754 16.96L167.714 16.34H168.374C170.067 16.34 171.334 16.72 172.174 17.48C173.027 18.24 173.454 19.2067 173.454 20.38C173.454 21.1667 173.261 21.8867 172.874 22.54C172.487 23.1933 171.901 23.7133 171.114 24.1C170.341 24.4733 169.354 24.66 168.154 24.66Z" fill="#1B365D"/>
<path d="M28.0073 38.192V45.5H27.3073V38.822H22.3233V45.5H21.6233V38.192H28.0073ZM33.9416 45.556C33.2509 45.556 32.6256 45.3973 32.0656 45.08C31.5149 44.7627 31.0809 44.324 30.7636 43.764C30.4462 43.1947 30.2876 42.5553 30.2876 41.846C30.2876 41.1367 30.4462 40.502 30.7636 39.942C31.0809 39.3727 31.5149 38.9293 32.0656 38.612C32.6256 38.2947 33.2509 38.136 33.9416 38.136C34.6322 38.136 35.2529 38.2947 35.8036 38.612C36.3636 38.9293 36.8022 39.3727 37.1196 39.942C37.4369 40.502 37.5956 41.1367 37.5956 41.846C37.5956 42.5553 37.4369 43.1947 37.1196 43.764C36.8022 44.324 36.3636 44.7627 35.8036 45.08C35.2529 45.3973 34.6322 45.556 33.9416 45.556ZM33.9416 44.926C34.5016 44.926 35.0009 44.7953 35.4396 44.534C35.8876 44.2727 36.2376 43.9087 36.4896 43.442C36.7509 42.9753 36.8816 42.4433 36.8816 41.846C36.8816 41.2487 36.7509 40.7167 36.4896 40.25C36.2376 39.7833 35.8876 39.4193 35.4396 39.158C35.0009 38.8967 34.5016 38.766 33.9416 38.766C33.3816 38.766 32.8776 38.8967 32.4296 39.158C31.9909 39.4193 31.6409 39.7833 31.3796 40.25C31.1276 40.7167 31.0016 41.2487 31.0016 41.846C31.0016 42.4433 31.1276 42.9753 31.3796 43.442C31.6409 43.9087 31.9909 44.2727 32.4296 44.534C32.8776 44.7953 33.3816 44.926 33.9416 44.926ZM47.237 35.7C48.469 35.7 49.435 35.994 50.135 36.582C50.835 37.1607 51.185 37.968 51.185 39.004C51.185 40.0307 50.835 40.838 50.135 41.426C49.435 42.0047 48.469 42.294 47.237 42.294H44.437V45.5H43.723V35.7H47.237ZM47.237 41.65C48.2823 41.65 49.0803 41.4213 49.631 40.964C50.1817 40.5067 50.457 39.8533 50.457 39.004C50.457 38.1547 50.1817 37.5013 49.631 37.044C49.0803 36.5773 48.2823 36.344 47.237 36.344H44.437V41.65H47.237ZM56.09 45.556C55.3993 45.556 54.774 45.3973 54.214 45.08C53.6633 44.7627 53.2293 44.324 52.912 43.764C52.5947 43.1947 52.436 42.5553 52.436 41.846C52.436 41.1367 52.5947 40.502 52.912 39.942C53.2293 39.3727 53.6633 38.9293 54.214 38.612C54.774 38.2947 55.3993 38.136 56.09 38.136C56.7807 38.136 57.4013 38.2947 57.952 38.612C58.512 38.9293 58.9507 39.3727 59.268 39.942C59.5853 40.502 59.744 41.1367 59.744 41.846C59.744 42.5553 59.5853 43.1947 59.268 43.764C58.9507 44.324 58.512 44.7627 57.952 45.08C57.4013 45.3973 56.7807 45.556 56.09 45.556ZM56.09 44.926C56.65 44.926 57.1493 44.7953 57.588 44.534C58.036 44.2727 58.386 43.9087 58.638 43.442C58.8993 42.9753 59.03 42.4433 59.03 41.846C59.03 41.2487 58.8993 40.7167 58.638 40.25C58.386 39.7833 58.036 39.4193 57.588 39.158C57.1493 38.8967 56.65 38.766 56.09 38.766C55.53 38.766 55.026 38.8967 54.578 39.158C54.1393 39.4193 53.7893 39.7833 53.528 40.25C53.276 40.7167 53.15 41.2487 53.15 41.846C53.15 42.4433 53.276 42.9753 53.528 43.442C53.7893 43.9087 54.1393 44.2727 54.578 44.534C55.026 44.7953 55.53 44.926 56.09 44.926ZM64.9777 45.556C64.2684 45.556 63.6337 45.3973 63.0737 45.08C62.5137 44.7627 62.0751 44.324 61.7577 43.764C61.4404 43.1947 61.2817 42.5553 61.2817 41.846C61.2817 41.1273 61.4404 40.488 61.7577 39.928C62.0751 39.3587 62.5137 38.92 63.0737 38.612C63.6337 38.2947 64.2684 38.136 64.9777 38.136C65.5657 38.136 66.0977 38.2527 66.5737 38.486C67.0591 38.71 67.4511 39.0413 67.7497 39.48L67.2317 39.858C66.9704 39.494 66.6437 39.2233 66.2517 39.046C65.8691 38.8593 65.4444 38.766 64.9777 38.766C64.4084 38.766 63.8951 38.8967 63.4377 39.158C62.9897 39.41 62.6351 39.7693 62.3737 40.236C62.1217 40.7027 61.9957 41.2393 61.9957 41.846C61.9957 42.4527 62.1217 42.9893 62.3737 43.456C62.6351 43.9227 62.9897 44.2867 63.4377 44.548C63.8951 44.8 64.4084 44.926 64.9777 44.926C65.4444 44.926 65.8691 44.8373 66.2517 44.66C66.6437 44.4733 66.9704 44.198 67.2317 43.834L67.7497 44.212C67.4511 44.6507 67.0591 44.9867 66.5737 45.22C66.0977 45.444 65.5657 45.556 64.9777 45.556ZM72.6476 45.556C71.9383 45.556 71.3036 45.3973 70.7436 45.08C70.1836 44.7627 69.745 44.324 69.4276 43.764C69.1103 43.1947 68.9516 42.5553 68.9516 41.846C68.9516 41.1273 69.1103 40.488 69.4276 39.928C69.745 39.3587 70.1836 38.92 70.7436 38.612C71.3036 38.2947 71.9383 38.136 72.6476 38.136C73.2356 38.136 73.7676 38.2527 74.2436 38.486C74.729 38.71 75.121 39.0413 75.4196 39.48L74.9016 39.858C74.6403 39.494 74.3136 39.2233 73.9216 39.046C73.539 38.8593 73.1143 38.766 72.6476 38.766C72.0783 38.766 71.565 38.8967 71.1076 39.158C70.6596 39.41 70.305 39.7693 70.0436 40.236C69.7916 40.7027 69.6656 41.2393 69.6656 41.846C69.6656 42.4527 69.7916 42.9893 70.0436 43.456C70.305 43.9227 70.6596 44.2867 71.1076 44.548C71.565 44.8 72.0783 44.926 72.6476 44.926C73.1143 44.926 73.539 44.8373 73.9216 44.66C74.3136 44.4733 74.6403 44.198 74.9016 43.834L75.4196 44.212C75.121 44.6507 74.729 44.9867 74.2436 45.22C73.7676 45.444 73.2356 45.556 72.6476 45.556ZM77.4866 38.192H78.1866V44.422L83.3946 38.192H84.0106V45.5H83.3106V39.27L78.1026 45.5H77.4866V38.192ZM87.0296 38.192H87.7296V44.422L92.9376 38.192H93.5536V45.5H92.8536V39.27L87.6456 45.5H87.0296V38.192ZM103.556 38.304C104.238 38.304 104.84 38.458 105.362 38.766C105.894 39.0647 106.31 39.4847 106.608 40.026C106.907 40.5673 107.056 41.1927 107.056 41.902C107.056 42.6113 106.902 43.246 106.594 43.806C106.296 44.3567 105.871 44.7907 105.32 45.108C104.779 45.416 104.158 45.57 103.458 45.57C102.656 45.57 101.97 45.374 101.4 44.982C100.84 44.59 100.411 44.0347 100.112 43.316C99.8229 42.5973 99.6783 41.7573 99.6783 40.796C99.6783 39.704 99.8089 38.7987 100.07 38.08C100.341 37.3613 100.742 36.7967 101.274 36.386C101.816 35.966 102.506 35.6533 103.346 35.448L106.58 34.664L106.692 35.322L103.612 36.05C102.856 36.2273 102.24 36.4887 101.764 36.834C101.298 37.17 100.948 37.632 100.714 38.22C100.481 38.808 100.36 39.5593 100.35 40.474C100.593 39.802 100.999 39.2747 101.568 38.892C102.138 38.5 102.8 38.304 103.556 38.304ZM103.472 44.968C104.023 44.968 104.518 44.8373 104.956 44.576C105.395 44.3147 105.736 43.9553 105.978 43.498C106.221 43.0313 106.342 42.504 106.342 41.916C106.342 41.328 106.221 40.81 105.978 40.362C105.736 39.9047 105.395 39.5547 104.956 39.312C104.527 39.06 104.032 38.934 103.472 38.934C102.912 38.934 102.413 39.06 101.974 39.312C101.536 39.5547 101.195 39.9047 100.952 40.362C100.71 40.81 100.588 41.328 100.588 41.916C100.588 42.504 100.71 43.0313 100.952 43.498C101.195 43.9553 101.536 44.3147 101.974 44.576C102.413 44.8373 102.912 44.968 103.472 44.968ZM115.586 42.014H109.3C109.318 42.5833 109.463 43.092 109.734 43.54C110.004 43.9787 110.368 44.3193 110.826 44.562C111.292 44.8047 111.815 44.926 112.394 44.926C112.87 44.926 113.308 44.842 113.71 44.674C114.12 44.4967 114.461 44.24 114.732 43.904L115.138 44.366C114.82 44.7487 114.419 45.0427 113.934 45.248C113.458 45.4533 112.94 45.556 112.38 45.556C111.652 45.556 111.003 45.3973 110.434 45.08C109.864 44.7627 109.416 44.324 109.09 43.764C108.772 43.204 108.614 42.5647 108.614 41.846C108.614 41.1367 108.763 40.502 109.062 39.942C109.37 39.3727 109.79 38.9293 110.322 38.612C110.854 38.2947 111.451 38.136 112.114 38.136C112.776 38.136 113.369 38.2947 113.892 38.612C114.424 38.92 114.839 39.354 115.138 39.914C115.446 40.474 115.6 41.1087 115.6 41.818L115.586 42.014ZM112.114 38.752C111.6 38.752 111.138 38.8687 110.728 39.102C110.317 39.326 109.986 39.648 109.734 40.068C109.491 40.4787 109.351 40.9453 109.314 41.468H114.914C114.886 40.9453 114.746 40.4787 114.494 40.068C114.242 39.6573 113.91 39.3353 113.5 39.102C113.089 38.8687 112.627 38.752 112.114 38.752ZM120.841 45.556C120.132 45.556 119.497 45.3973 118.937 45.08C118.377 44.7627 117.938 44.324 117.621 43.764C117.304 43.1947 117.145 42.5553 117.145 41.846C117.145 41.1273 117.304 40.488 117.621 39.928C117.938 39.3587 118.377 38.92 118.937 38.612C119.497 38.2947 120.132 38.136 120.841 38.136C121.429 38.136 121.961 38.2527 122.437 38.486C122.922 38.71 123.314 39.0413 123.613 39.48L123.095 39.858C122.834 39.494 122.507 39.2233 122.115 39.046C121.732 38.8593 121.308 38.766 120.841 38.766C120.272 38.766 119.758 38.8967 119.301 39.158C118.853 39.41 118.498 39.7693 118.237 40.236C117.985 40.7027 117.859 41.2393 117.859 41.846C117.859 42.4527 117.985 42.9893 118.237 43.456C118.498 43.9227 118.853 44.2867 119.301 44.548C119.758 44.8 120.272 44.926 120.841 44.926C121.308 44.926 121.732 44.8373 122.115 44.66C122.507 44.4733 122.834 44.198 123.095 43.834L123.613 44.212C123.314 44.6507 122.922 44.9867 122.437 45.22C121.961 45.444 121.429 45.556 120.841 45.556ZM132.064 38.192V45.5H131.364V38.822H126.38V45.5H125.68V38.192H132.064ZM140.798 38.192V45.5H140.098V38.822H136.29L136.192 40.768C136.136 41.776 136.052 42.6207 135.94 43.302C135.828 43.9833 135.637 44.534 135.366 44.954C135.096 45.374 134.722 45.584 134.246 45.584C134.106 45.584 133.906 45.5513 133.644 45.486L133.714 44.884C133.864 44.9213 133.976 44.94 134.05 44.94C134.442 44.94 134.741 44.7487 134.946 44.366C135.152 43.9833 135.292 43.5073 135.366 42.938C135.441 42.3687 135.502 41.6267 135.548 40.712L135.674 38.192H140.798ZM146.245 38.136C147.15 38.136 147.845 38.3693 148.331 38.836C148.816 39.2933 149.059 39.97 149.059 40.866V45.5H148.387V44.198C148.153 44.6273 147.813 44.9633 147.365 45.206C146.917 45.4393 146.38 45.556 145.755 45.556C144.943 45.556 144.299 45.3647 143.823 44.982C143.356 44.5993 143.123 44.0953 143.123 43.47C143.123 42.8633 143.337 42.3733 143.767 42C144.205 41.6173 144.901 41.426 145.853 41.426H148.359V40.838C148.359 40.1567 148.172 39.6387 147.799 39.284C147.435 38.9293 146.898 38.752 146.189 38.752C145.703 38.752 145.237 38.836 144.789 39.004C144.35 39.172 143.977 39.396 143.669 39.676L143.319 39.172C143.683 38.8453 144.121 38.5933 144.635 38.416C145.148 38.2293 145.685 38.136 146.245 38.136ZM145.853 44.982C146.459 44.982 146.973 44.842 147.393 44.562C147.822 44.282 148.144 43.876 148.359 43.344V41.972H145.867C145.148 41.972 144.625 42.1027 144.299 42.364C143.981 42.6253 143.823 42.9847 143.823 43.442C143.823 43.918 144 44.296 144.355 44.576C144.709 44.8467 145.209 44.982 145.853 44.982ZM156.789 38.822H153.933V45.5H153.233V38.822H150.377V38.192H156.789V38.822ZM158.287 38.192H158.987V41.524H163.943V38.192H164.643V45.5H163.943V42.14H158.987V45.5H158.287V38.192ZM170.578 45.556C169.888 45.556 169.262 45.3973 168.702 45.08C168.152 44.7627 167.718 44.324 167.4 43.764C167.083 43.1947 166.924 42.5553 166.924 41.846C166.924 41.1367 167.083 40.502 167.4 39.942C167.718 39.3727 168.152 38.9293 168.702 38.612C169.262 38.2947 169.888 38.136 170.578 38.136C171.269 38.136 171.89 38.2947 172.44 38.612C173 38.9293 173.439 39.3727 173.756 39.942C174.074 40.502 174.232 41.1367 174.232 41.846C174.232 42.5553 174.074 43.1947 173.756 43.764C173.439 44.324 173 44.7627 172.44 45.08C171.89 45.3973 171.269 45.556 170.578 45.556ZM170.578 44.926C171.138 44.926 171.638 44.7953 172.076 44.534C172.524 44.2727 172.874 43.9087 173.126 43.442C173.388 42.9753 173.518 42.4433 173.518 41.846C173.518 41.2487 173.388 40.7167 173.126 40.25C172.874 39.7833 172.524 39.4193 172.076 39.158C171.638 38.8967 171.138 38.766 170.578 38.766C170.018 38.766 169.514 38.8967 169.066 39.158C168.628 39.4193 168.278 39.7833 168.016 40.25C167.764 40.7167 167.638 41.2487 167.638 41.846C167.638 42.4433 167.764 42.9753 168.016 43.442C168.278 43.9087 168.628 44.2727 169.066 44.534C169.514 44.7953 170.018 44.926 170.578 44.926Z" fill="#1B365D"/>
<rect x="1" y="1" width="193" height="54" rx="7" stroke="#1B365D" stroke-width="2"/>
</svg>
