<svg width="16" height="17" viewBox="0 0 16 17" fill="none" xmlns="http://www.w3.org/2000/svg">
<path d="M15.12 11.4126C14.0267 11.4126 12.9689 11.2349 11.9822 10.9149C11.8277 10.8625 11.6614 10.8547 11.5027 10.8924C11.3439 10.9302 11.1989 11.0119 11.0844 11.1282L9.68889 12.8793C7.17333 11.6793 4.81778 9.41265 3.56444 6.8082L5.29778 5.33265C5.53778 5.08376 5.60889 4.73709 5.51111 4.42598C5.18222 3.43931 5.01333 2.38154 5.01333 1.2882C5.01333 0.808203 4.61333 0.408203 4.13333 0.408203H1.05778C0.577778 0.408203 0 0.621536 0 1.2882C0 9.54598 6.87111 16.4082 15.12 16.4082C15.7511 16.4082 16 15.8482 16 15.3593V12.2926C16 11.8126 15.6 11.4126 15.12 11.4126Z" fill="white"/>
</svg>
