<svg width="20" height="21" viewBox="0 0 20 21" fill="none" xmlns="http://www.w3.org/2000/svg">
<path fill-rule="evenodd" clip-rule="evenodd" d="M16.6324 3.74828C14.8783 1.99207 12.5454 1.02447 10.0601 1.02344C4.93885 1.02344 0.770912 5.19126 0.768852 10.3139C0.768166 11.9514 1.19595 13.5499 2.00905 14.9589L0.690918 19.7734L5.61634 18.4814C6.9735 19.2217 8.5014 19.6118 10.0563 19.6123H10.0602C15.1809 19.6123 19.3493 15.4441 19.3512 10.3213C19.3522 7.83862 18.3867 5.50437 16.6324 3.74828ZM10.0601 18.0432H10.0569C8.67123 18.0426 7.31224 17.6702 6.1264 16.9668L5.84454 16.7993L2.92171 17.5661L3.70186 14.7164L3.51818 14.4242C2.74513 13.1947 2.33692 11.7736 2.33761 10.3144C2.33921 6.05666 5.80357 2.59265 10.0632 2.59265C12.1259 2.59334 14.0648 3.39763 15.5228 4.85732C16.9808 6.31702 17.7832 8.25725 17.7826 10.3207C17.7807 14.5788 14.3166 18.0432 10.0601 18.0432ZM14.296 12.2595C14.0639 12.1432 12.9225 11.5818 12.7096 11.5042C12.497 11.4267 12.342 11.3881 12.1874 11.6204C12.0326 11.8528 11.5878 12.3757 11.4523 12.5306C11.3168 12.6855 11.1815 12.705 10.9493 12.5887C10.7171 12.4726 9.9691 12.2273 9.0823 11.4364C8.39222 10.8208 7.92633 10.0606 7.79083 9.82829C7.65556 9.59575 7.78969 9.48222 7.89268 9.35451C8.144 9.04243 8.39565 8.71524 8.47301 8.5604C8.55049 8.40545 8.5117 8.26984 8.45356 8.15368C8.39565 8.03752 7.93137 6.89483 7.73796 6.42986C7.54936 5.97736 7.35813 6.03847 7.21554 6.03137C7.08027 6.02462 6.92543 6.02325 6.77059 6.02325C6.61587 6.02325 6.36433 6.08127 6.15147 6.31381C5.93872 6.54624 5.33905 7.1078 5.33905 8.2505C5.33905 9.39319 6.17092 10.4971 6.28696 10.652C6.40301 10.807 7.92404 13.1519 10.2528 14.1574C10.8067 14.3968 11.2391 14.5395 11.5763 14.6465C12.1325 14.8232 12.6384 14.7982 13.0385 14.7385C13.4846 14.6718 14.4119 14.1768 14.6056 13.6346C14.799 13.0923 14.799 12.6275 14.7408 12.5306C14.6829 12.4338 14.5281 12.3757 14.296 12.2595Z" fill="white"/>
</svg>
