<svg width="229" height="101" viewBox="0 0 229 101" fill="none" xmlns="http://www.w3.org/2000/svg">
<rect x="0.972656" y="0.102051" width="227.718" height="100" rx="8" fill="white"/>
<path d="M18.6523 59.6814C19.8072 61.1531 20.8582 62.7033 21.7979 64.3208C22.6001 65.8421 22.9346 66.8736 23.521 68.7066C23.8805 69.7193 24.2055 70.0215 24.9041 70.0215C25.6656 70.0215 26.011 69.5073 26.2779 68.7121C26.8321 66.9812 27.267 65.66 27.9531 64.4119C29.2994 62.0019 30.9722 59.8604 32.616 57.8021C33.0611 57.2196 35.9382 53.826 37.2335 51.1484C37.2335 51.1484 38.8255 48.207 38.8255 44.099C38.8255 40.2564 37.2554 37.5913 37.2554 37.5913L32.7354 38.8018L29.9902 46.0317L29.3112 47.0287L29.1754 47.2092L28.9948 47.4353L28.6777 47.7964L28.2247 48.2493L25.7802 50.2409L19.6689 53.7695L18.6523 59.6814Z" fill="#34A853"/>
<path d="M12.3447 50.6534C13.8362 54.0603 16.7125 57.0551 18.6585 59.6833L28.9947 47.4395C28.9947 47.4395 27.5385 49.344 24.897 49.344C21.9548 49.344 19.5778 46.9944 19.5778 44.0318C19.5778 42.0002 20.8 40.6045 20.8 40.6045L13.7836 42.4846L12.3447 50.6534Z" fill="#FBBC04"/>
<path d="M29.1104 30.7319C32.5432 31.8388 35.4815 34.1624 37.2587 37.589L28.9981 47.433C28.9981 47.433 30.2204 46.0121 30.2204 43.9931C30.2204 40.9614 27.6675 38.6966 24.9098 38.6966C22.302 38.6966 20.8042 40.5979 20.8042 40.5979V34.3963L29.1104 30.7319Z" fill="#4285F4"/>
<path d="M14.2383 35.0814C16.2887 32.6282 19.8966 30.1021 24.8704 30.1021C27.2835 30.1021 29.1016 30.7356 29.1016 30.7356L20.7962 40.6031H14.9118L14.2383 35.0814Z" fill="#1A73E8"/>
<path d="M12.3448 50.6532C12.3448 50.6532 10.9727 47.9662 10.9727 44.0733C10.9727 40.394 12.4029 37.1778 14.2383 35.0811L20.8009 40.6036L12.3448 50.6532Z" fill="#EA4335"/>
<path d="M153.552 62.4794V41.4985H156.248L163.544 54.2745H163.662L170.959 41.4985H173.654V62.4794H170.959V50.0252L171.076 46.5084H170.959L164.396 58.0245H162.814L156.252 46.5084H156.134L156.252 50.0252V62.4786L153.552 62.4794ZM181.536 62.919C180.013 62.919 178.737 62.4794 177.713 61.6002C176.688 60.721 176.174 59.5591 176.174 58.1132C176.174 56.5431 176.779 55.3248 177.991 54.4354C179.203 53.546 180.696 53.1025 182.465 53.1025C184.048 53.1025 185.346 53.3953 186.363 53.9817V53.5711C186.363 52.5161 186.002 51.6714 185.28 51.0371C184.557 50.4028 183.668 50.0849 182.612 50.0849C181.831 50.0849 181.124 50.2702 180.489 50.6344C179.854 50.9986 179.419 51.5136 179.186 52.1573L176.724 51.103C177.056 50.2435 177.71 49.4545 178.686 48.7151C179.662 47.9756 180.952 47.616 182.554 47.616C184.391 47.616 185.914 48.1538 187.125 49.2277C188.336 50.3016 188.942 51.8166 188.942 53.7705V62.4519H186.364V60.458H186.246C185.17 62.1065 183.598 62.919 181.536 62.919ZM181.975 60.458C183.089 60.458 184.099 60.0419 185.008 59.213C185.917 58.384 186.371 57.4074 186.371 56.2692C185.609 55.6435 184.466 55.3311 182.943 55.3311C181.633 55.3311 180.646 55.6137 179.983 56.1813C179.32 56.7488 178.986 57.4121 178.986 58.1736C178.986 58.877 179.289 59.4335 179.894 59.8441C180.5 60.2547 181.194 60.4595 181.975 60.4595L181.975 60.458ZM199.043 62.919C197.95 62.919 196.967 62.6835 196.099 62.2156C195.231 61.7477 194.58 61.1606 194.152 60.4572H194.035L194.152 62.4495V68.779H191.457V48.0925H194.036V50.0849H194.154C194.583 49.3815 195.233 48.7959 196.101 48.3265C196.969 47.857 197.952 47.6231 199.045 47.6231C200.9 47.6231 202.503 48.3555 203.85 49.8211C205.198 51.2867 205.873 53.1025 205.873 55.2714C205.873 57.4404 205.198 59.2569 203.85 60.7217C202.503 62.1866 200.9 62.9198 199.045 62.9198L199.043 62.919ZM198.603 60.458C199.854 60.458 200.927 59.9838 201.827 59.045C202.726 58.1061 203.175 56.8422 203.175 55.2793C203.175 53.7163 202.726 52.4533 201.827 51.5136C200.928 50.574 199.853 50.1006 198.603 50.1006C197.334 50.1006 196.254 50.5692 195.365 51.5073C194.477 52.4454 194.033 53.7053 194.033 55.2871C194.033 56.8689 194.477 58.1289 195.365 59.0669C196.253 60.005 197.333 60.4737 198.603 60.4737V60.458ZM213.036 62.919C211.434 62.919 210.111 62.528 209.065 61.747C208.02 60.9659 207.26 59.9885 206.765 58.8165L209.167 57.8196C209.929 59.6251 211.229 60.5145 213.066 60.5145C213.906 60.5145 214.595 60.3292 215.132 59.965C215.669 59.6007 215.938 59.1054 215.938 58.5002C215.938 57.5629 215.283 56.927 213.974 56.5957L211.073 55.8932C210.155 55.6592 209.286 55.2141 208.465 54.5602C207.645 53.9063 207.235 53.0216 207.235 51.9092C207.235 50.6399 207.796 49.6092 208.919 48.8163C210.043 48.0235 211.376 47.6294 212.919 47.6294C214.188 47.6294 215.321 47.9175 216.318 48.4929C217.295 49.0471 218.051 49.9217 218.457 50.9688L216.112 51.9359C215.586 50.6666 214.491 50.0315 212.831 50.0315C212.03 50.0315 211.355 50.1979 210.81 50.5292C210.264 50.8605 209.989 51.3111 209.989 51.8778C209.989 52.6982 210.617 53.2548 211.894 53.5483L214.735 54.2219C216.083 54.5343 217.079 55.072 217.724 55.8335C218.368 56.595 218.691 57.4553 218.691 58.413C218.691 59.702 218.163 60.7681 217.108 61.6363C216.053 62.5045 214.696 62.9253 213.026 62.9253L213.036 62.919ZM73.6665 49.9703H62.6088V53.2516H70.4589C70.0719 57.8517 66.2434 59.8143 62.63 59.8143C61.4851 59.8195 60.3505 59.5965 59.2926 59.1584C58.2348 58.7203 57.2748 58.0758 56.4688 57.2625C55.6628 56.4493 55.0269 55.4836 54.5982 54.4218C54.1696 53.3601 53.9568 52.2236 53.9722 51.0787C53.9722 46.112 57.8172 42.2866 62.6387 42.2866C66.3596 42.2866 68.5498 44.6589 68.5498 44.6589L70.8475 42.2804C70.8475 42.2804 67.8982 38.999 62.5209 38.999C55.6733 38.999 50.3745 44.779 50.3745 51.0222C50.3745 57.139 55.3593 63.1058 62.696 63.1058C69.1487 63.1058 73.8745 58.6846 73.8745 52.1471C73.8745 50.7686 73.6743 49.9711 73.6743 49.9711L73.6665 49.9703Z" fill="#767676"/>
<path d="M82.7444 47.6368C78.2071 47.6368 74.9556 51.1835 74.9556 55.3205C74.9556 59.5187 78.1097 63.1313 82.8056 63.1313C87.0502 63.1313 90.527 59.8876 90.527 55.41C90.527 50.2784 86.4818 47.6353 82.7523 47.6353L82.7444 47.6368ZM82.7892 50.6803C85.0209 50.6803 87.135 52.4842 87.135 55.3903C87.135 58.2352 85.0288 60.0925 82.7782 60.0925C80.3054 60.0925 78.3546 58.112 78.3546 55.3691C78.3546 52.686 80.2818 50.6811 82.7884 50.6811L82.7892 50.6803Z" fill="#767676"/>
<path d="M99.6033 47.6368C95.066 47.6368 91.8145 51.1835 91.8145 55.3205C91.8145 59.5187 94.9686 63.1313 99.6645 63.1313C103.909 63.1313 107.386 59.8876 107.386 55.41C107.386 50.2784 103.341 47.6353 99.6111 47.6353L99.6033 47.6368ZM99.648 50.6803C101.88 50.6803 103.994 52.4842 103.994 55.3903C103.994 58.2352 101.888 60.0925 99.6371 60.0925C97.1643 60.0925 95.2135 58.112 95.2135 55.3691C95.2135 52.686 97.1407 50.6811 99.6473 50.6811L99.648 50.6803Z" fill="#767676"/>
<path d="M116.203 47.637C112.038 47.637 108.764 51.2849 108.764 55.3787C108.764 60.0417 112.559 63.1346 116.13 63.1346C118.338 63.1346 119.512 62.2578 120.38 61.2506V62.7782C120.38 65.4512 118.757 67.0526 116.298 67.0526C113.931 67.0526 112.745 65.2926 112.332 64.2941L109.354 65.5391C110.411 67.7724 112.537 70.1023 116.324 70.1023C120.465 70.1023 123.621 67.4945 123.621 62.0168V48.0986H120.373V49.4111C119.374 48.3357 118.008 47.6331 116.197 47.6331L116.203 47.637ZM116.504 50.675C118.547 50.675 120.643 52.4177 120.643 55.3952C120.643 58.4222 118.551 60.0896 116.459 60.0896C114.239 60.0896 112.173 58.2872 112.173 55.4235C112.173 52.4405 114.317 50.6742 116.504 50.6742V50.675ZM138.119 47.637C134.191 47.637 130.891 50.7613 130.891 55.3748C130.891 60.2544 134.567 63.1495 138.496 63.1495C141.774 63.1495 143.786 61.3558 144.986 59.7489L142.317 57.9669C141.622 59.0455 140.46 60.1006 138.521 60.1006C136.343 60.1006 135.342 58.9074 134.722 57.7518L145.111 53.4343L144.571 52.1783C143.567 49.7039 141.226 47.6378 138.134 47.6378L138.119 47.637ZM138.254 50.6169C139.67 50.6169 140.687 51.3705 141.121 52.2717L134.183 55.1715C133.885 52.9264 136.01 50.6169 138.254 50.6169ZM125.929 62.6879H129.341V39.8442H125.929V62.6879Z" fill="#767676"/>
</svg>
