<svg width="162" height="101" viewBox="0 0 162 101" fill="none" xmlns="http://www.w3.org/2000/svg">
<rect y="0.102051" width="161.973" height="100" rx="8" fill="white"/>
<path fill-rule="evenodd" clip-rule="evenodd" d="M69.2594 37.3672C63.0881 37.3672 58.4578 41.0387 58.4969 47.4125H64.235C64.1533 44.863 65.8151 42.388 69.2594 42.388C71.8693 42.388 73.5204 44.0889 73.5204 46.2513C73.5204 48.4919 71.6988 49.7276 68.773 51.1195C65.4451 52.7122 62.0031 54.0546 58.4756 55.1355V62.475H79.8373V57.4542H66.2306C68.2119 56.6446 70.1365 55.7604 71.887 54.9438C76.5031 52.7813 79.2443 50.3277 79.2443 45.9815C79.2656 40.7369 75.2319 37.3672 69.2594 37.3672ZM88.5475 42.7751H99.6225V37.7542H83.0082V62.475H88.5475V42.7751ZM108.326 37.7542H102.79V62.475H108.287L118.612 46.6774V62.475H124.148V37.7542H118.612L108.315 53.5518L108.326 37.7542ZM151.958 53.2038H146.223C145.354 55.9486 142.701 57.8412 139.576 57.8412C135.028 57.8412 132.059 54.017 132.059 50.1146C132.059 46.2123 134.95 42.388 139.736 42.388C141.175 42.3496 142.587 42.7817 143.758 43.6186C144.928 44.4556 145.794 45.6517 146.223 47.0254H151.958C151.127 41.5003 146.657 37.3672 139.576 37.3672C131.743 37.3672 126.524 42.736 126.524 50.1146C126.524 57.4932 131.743 62.8621 139.576 62.8621C146.671 62.8621 151.141 58.807 151.972 53.2038H151.958Z" fill="#262626"/>
<path d="M50.0036 42.4341V60.2947H49.9538C49.9427 61.1574 49.8655 62.0181 49.723 62.869C49.573 63.7347 49.2929 64.5727 48.8922 65.3546C48.4911 66.1434 47.966 66.8627 47.3369 67.4851C46.7118 68.1071 45.9928 68.6271 45.2064 69.0262C44.4134 69.4213 43.5662 69.6965 42.6924 69.8428C41.8164 69.9853 40.931 70.0625 40.0435 70.0737L37.3839 70.095H20.5246C20.3222 70.095 20.1234 70.095 19.921 70.095C19.0346 70.0857 18.1502 70.0085 17.2757 69.8641C16.4007 69.7179 15.5523 69.4426 14.7581 69.0475C13.5001 68.4152 12.4218 67.4761 11.6227 66.3169C11.4587 66.0891 11.3081 65.852 11.1718 65.6067C11.1327 65.5392 11.0937 65.4718 11.0582 65.4008C10.9694 65.2268 10.8877 65.0457 10.8132 64.8717C10.5433 64.2433 10.3478 63.5855 10.2308 62.9116C10.085 62.048 10.0078 61.1741 10 60.2982C10 59.897 10 59.4957 10 59.0945V42.5406C10 42.0648 10 41.589 10 41.1203C10 40.7226 10 40.3213 10 39.9201C10.0116 39.2076 10.0626 38.4964 10.1527 37.7896C10.174 37.6262 10.2024 37.4594 10.2308 37.296C10.2486 37.2037 10.2628 37.1114 10.2841 37.0191C10.3373 36.7634 10.4013 36.5077 10.4758 36.2592C10.6258 35.7597 10.8207 35.2748 11.0582 34.8104C11.8716 33.232 13.1628 31.9508 14.7474 31.1495C15.5417 30.7545 16.3901 30.4792 17.265 30.3329C18.1398 30.1902 19.0241 30.1131 19.9104 30.1021H21.6219H39.4257H40.0329C40.9203 30.1132 41.8057 30.1904 42.6818 30.3329C43.5555 30.4793 44.4028 30.7545 45.1958 31.1495C45.9826 31.5464 46.7016 32.0654 47.3262 32.687C47.9553 33.3094 48.4804 34.0287 48.8815 34.8175C49.2817 35.5997 49.5618 36.4376 49.7124 37.3031C49.8566 38.1682 49.9338 39.0431 49.9432 39.9201C49.9432 40.3178 49.961 40.719 49.9645 41.1203V42.4376L50.0036 42.4341Z" fill="#19AA1E"/>
<path fill-rule="evenodd" clip-rule="evenodd" d="M50.0034 42.4341V43.2223H49.975L36.9968 41.1948L25.3039 39.3661L10.2769 37.0191C10.3301 36.7634 10.394 36.5077 10.4686 36.2592C10.6186 35.7597 10.8135 35.2748 11.0509 34.8104C11.8663 33.2309 13.16 31.9496 14.7473 31.1495C15.5416 30.7545 16.39 30.4792 17.2649 30.3329C18.1397 30.1902 19.0239 30.1131 19.9102 30.1021H21.6217H39.4255H40.0327C40.9202 30.1132 41.8056 30.1904 42.6816 30.3329C43.5554 30.4793 44.4026 30.7545 45.1956 31.1495C45.9825 31.5464 46.7015 32.0654 47.3261 32.687C47.9552 33.3094 48.4803 34.0287 48.8814 34.8175C49.2816 35.5997 49.5617 36.4376 49.7123 37.3031C49.8565 38.1682 49.9337 39.0431 49.9431 39.9201C49.9431 40.3178 49.9608 40.719 49.9644 41.1202V42.4376L50.0034 42.4341Z" fill="#FBBC04"/>
<path fill-rule="evenodd" clip-rule="evenodd" d="M50.0036 59.5029V60.2948H49.9539C49.9427 61.1575 49.8656 62.0181 49.7231 62.8691C49.5731 63.7348 49.293 64.5728 48.8922 65.3547C48.4911 66.1435 47.966 66.8628 47.337 67.4852C46.7118 68.1072 45.9929 68.6272 45.2065 69.0262C44.4135 69.4214 43.5663 69.6966 42.6925 69.8429C41.8165 69.9854 40.9311 70.0626 40.0436 70.0737L37.384 70.095H20.5247C20.3223 70.095 20.1235 70.095 19.9211 70.095C19.0347 70.0858 18.1503 70.0086 17.2757 69.8642C16.4008 69.7179 15.5524 69.4427 14.7582 69.0475C13.5002 68.4153 12.4218 67.4762 11.6228 66.317C11.4588 66.0892 11.3082 65.8521 11.1719 65.6068L49.9823 59.542L50.0036 59.5029Z" fill="#82D714"/>
<path fill-rule="evenodd" clip-rule="evenodd" d="M50.0036 42.4342V44.0178H49.9752L39.756 42.42C40.5231 43.8861 40.9239 45.5162 40.9242 47.171C40.9108 49.3985 40.409 51.596 39.4541 53.6086L39.4257 53.6725L39.0032 54.5851H38.0054C35.9459 54.5851 34.5824 55.2029 33.6912 56.293C32.9703 57.2381 32.5375 58.3712 32.4448 59.5562V59.5953V59.7977V59.8864V60.0569C32.3916 60.6215 32.3596 61.0973 32.3383 61.4772L50.0214 58.7147H50.0498V60.2983H50.0001L11.6512 66.2886C11.4872 66.0608 11.3366 65.8237 11.2002 65.5784C11.1612 65.5109 11.1221 65.4435 11.0866 65.3725C10.9978 65.1985 10.9162 65.0174 10.8416 64.8434L27.708 62.2087V61.8536V61.6157C27.708 61.1825 27.6512 60.6321 27.5908 59.961V59.8332L27.5695 59.613C27.4861 58.4165 27.0609 57.2691 26.3445 56.3072C25.4604 55.21 24.111 54.5851 22.0835 54.5709H21.0183L20.5957 53.669C19.6206 51.6394 19.1076 49.419 19.0937 47.1674C19.106 44.4206 20.2037 41.79 22.1474 39.8492L22.3179 39.6823L10.2202 37.7897C10.2415 37.6263 10.2699 37.4595 10.2983 37.2961C10.3161 37.2038 10.3303 37.1115 10.3516 37.0192C10.4049 36.7635 10.4688 36.5078 10.5434 36.2593L24.001 38.3614C25.8106 37.2315 27.904 36.6392 30.0373 36.6534C31.5011 36.6337 32.9542 36.9062 34.3114 37.455C35.6686 38.0037 36.9027 38.8176 37.9415 39.8492C38.1971 40.1048 38.4351 40.3747 38.6517 40.6516L50.032 42.4271L50.0036 42.4342Z" fill="#FAFAFA"/>
<path fill-rule="evenodd" clip-rule="evenodd" d="M29.959 38.2192C35.5551 38.2192 39.351 42.5228 39.351 47.1673C39.3363 49.1907 38.8731 51.1856 37.9945 53.0084C32.4908 53.0084 31.1344 56.9463 30.8752 59.4283L30.8574 59.5916C30.7722 60.4793 30.7225 61.1895 30.7083 61.7221L29.2169 61.9565V61.9068C29.1956 61.1185 29.1424 60.3314 29.0571 59.5455V59.5029C28.8192 57.0173 27.4912 53.0084 21.9306 53.0084C21.0521 51.1856 20.5889 49.1907 20.5742 47.1673C20.5742 42.5228 24.37 38.2192 29.9626 38.2192H29.959Z" fill="#0073FA"/>
</svg>
